{
  "asset" : {
    "generator" : "UE Viewer (umodel) build 1590",
    "version" : "2.0"
  },
  "scene" : 0,
  "scenes" : [
    {
      "nodes" : [ 0 ]
    }
  ],
  "nodes" : [
    {
      "name" : "SM_Axle_2x2x1s",
      "mesh" : 0
    }
  ],
  "materials" : [
    {
      "name" : "M_Brick",
      "pbrMetallicRoughness" : {
        "baseColorFactor" : [ 0.3, 0.3, 0.3, 1.0 ],
        "metallicFactor" : 0.1,
        "roughnessFactor" : 0.5
      }
    }
  ],
  "meshes" : [
    {
      "primitives" : [
        {
          "attributes" : {
            "POSITION" : 1,
            "NORMAL" : 2,
            "TANGENT" : 3,
            "TEXCOORD_0" : 4
          },
          "indices" : 0,
          "material" : 0
        }
      ],
      "name" : "SM_Axle_2x2x1s"
    }
  ],
  "buffers" : [
    {
      "uri" : "SM_Axle_2x2x1s.bin",
      "byteLength" : 23988
    }
  ],
  "bufferViews" : [
    {
      "buffer" : 0,
      "byteOffset" : 0,
      "byteLength" : 2196
    },
    {
      "buffer" : 0,
      "byteOffset" : 2196,
      "byteLength" : 5448
    },
    {
      "buffer" : 0,
      "byteOffset" : 7644,
      "byteLength" : 5448
    },
    {
      "buffer" : 0,
      "byteOffset" : 13092,
      "byteLength" : 7264
    },
    {
      "buffer" : 0,
      "byteOffset" : 20356,
      "byteLength" : 3632
    }
  ],
  "accessors" : [
    {
      "bufferView" : 0,
      "componentType" : 5123,
      "count" : 1098,
      "type" : "SCALAR"
    },
    {
      "bufferView" : 1,
      "min" : [ -0.3, -5.26909e-08, -0.5 ],
      "max" : [ 0.3, 0.15, 0.5 ],
      "componentType" : 5126,
      "count" : 454,
      "type" : "VEC3"
    },
    {
      "bufferView" : 2,
      "componentType" : 5126,
      "count" : 454,
      "type" : "VEC3"
    },
    {
      "bufferView" : 3,
      "componentType" : 5126,
      "count" : 454,
      "type" : "VEC4"
    },
    {
      "bufferView" : 4,
      "componentType" : 5126,
      "count" : 454,
      "type" : "VEC2"
    }
  ]
}
