{
  "asset" : {
    "generator" : "UE Viewer (umodel) build 1590",
    "version" : "2.0"
  },
  "scene" : 0,
  "scenes" : [
    {
      "nodes" : [ 0 ]
    }
  ],
  "nodes" : [
    {
      "name" : "SM_Actuator_2x2x15_Top",
      "mesh" : 0
    }
  ],
  "materials" : [
    {
      "name" : "M_Brick_Chrome",
      "pbrMetallicRoughness" : {
        "baseColorFactor" : [ 0.3, 0.3, 0.3, 1.0 ],
        "metallicFactor" : 0.1,
        "roughnessFactor" : 0.5
      }
    },
    {
      "name" : "M_Brick",
      "pbrMetallicRoughness" : {
        "baseColorFactor" : [ 0.9, 0.3, 0.3, 1.0 ],
        "metallicFactor" : 0.1,
        "roughnessFactor" : 0.5
      }
    }
  ],
  "meshes" : [
    {
      "primitives" : [
        {
          "attributes" : {
            "POSITION" : 1,
            "NORMAL" : 2,
            "TANGENT" : 3,
            "COLOR_0" : 4,
            "TEXCOORD_0" : 5
          },
          "indices" : 0,
          "material" : 0
        },
        {
          "attributes" : {
            "POSITION" : 7,
            "NORMAL" : 8,
            "TANGENT" : 9,
            "COLOR_0" : 10,
            "TEXCOORD_0" : 11
          },
          "indices" : 6,
          "material" : 1
        }
      ],
      "name" : "SM_Actuator_2x2x15_Top"
    }
  ],
  "buffers" : [
    {
      "uri" : "SM_Actuator_2x2x15_Top.bin",
      "byteLength" : 24216
    }
  ],
  "bufferViews" : [
    {
      "buffer" : 0,
      "byteOffset" : 0,
      "byteLength" : 276
    },
    {
      "buffer" : 0,
      "byteOffset" : 276,
      "byteLength" : 600
    },
    {
      "buffer" : 0,
      "byteOffset" : 876,
      "byteLength" : 600
    },
    {
      "buffer" : 0,
      "byteOffset" : 1476,
      "byteLength" : 800
    },
    {
      "buffer" : 0,
      "byteOffset" : 2276,
      "byteLength" : 200
    },
    {
      "buffer" : 0,
      "byteOffset" : 2476,
      "byteLength" : 400
    },
    {
      "buffer" : 0,
      "byteOffset" : 2876,
      "byteLength" : 2100
    },
    {
      "buffer" : 0,
      "byteOffset" : 4976,
      "byteLength" : 4440
    },
    {
      "buffer" : 0,
      "byteOffset" : 9416,
      "byteLength" : 4440
    },
    {
      "buffer" : 0,
      "byteOffset" : 13856,
      "byteLength" : 5920
    },
    {
      "buffer" : 0,
      "byteOffset" : 19776,
      "byteLength" : 1480
    },
    {
      "buffer" : 0,
      "byteOffset" : 21256,
      "byteLength" : 2960
    }
  ],
  "accessors" : [
    {
      "bufferView" : 0,
      "componentType" : 5123,
      "count" : 138,
      "type" : "SCALAR"
    },
    {
      "bufferView" : 1,
      "min" : [ -0.199516, -4.1, -0.199516 ],
      "max" : [ 0.199516, 5.73006e-14, 0.199517 ],
      "componentType" : 5126,
      "count" : 50,
      "type" : "VEC3"
    },
    {
      "bufferView" : 2,
      "componentType" : 5126,
      "count" : 50,
      "type" : "VEC3"
    },
    {
      "bufferView" : 3,
      "componentType" : 5126,
      "count" : 50,
      "type" : "VEC4"
    },
    {
      "bufferView" : 4,
      "normalized" : true,
      "componentType" : 5121,
      "count" : 50,
      "type" : "VEC4"
    },
    {
      "bufferView" : 5,
      "componentType" : 5126,
      "count" : 50,
      "type" : "VEC2"
    },
    {
      "bufferView" : 6,
      "componentType" : 5123,
      "count" : 1050,
      "type" : "SCALAR"
    },
    {
      "bufferView" : 7,
      "min" : [ -0.3, 5.42824e-14, -0.3 ],
      "max" : [ 0.3, 0.35, 0.3 ],
      "componentType" : 5126,
      "count" : 370,
      "type" : "VEC3"
    },
    {
      "bufferView" : 8,
      "componentType" : 5126,
      "count" : 370,
      "type" : "VEC3"
    },
    {
      "bufferView" : 9,
      "componentType" : 5126,
      "count" : 370,
      "type" : "VEC4"
    },
    {
      "bufferView" : 10,
      "normalized" : true,
      "componentType" : 5121,
      "count" : 370,
      "type" : "VEC4"
    },
    {
      "bufferView" : 11,
      "componentType" : 5126,
      "count" : 370,
      "type" : "VEC2"
    }
  ]
}
