{
  "asset" : {
    "generator" : "UE Viewer (umodel) build 1590",
    "version" : "2.0"
  },
  "scene" : 0,
  "scenes" : [
    {
      "nodes" : [ 0 ]
    }
  ],
  "nodes" : [
    {
      "name" : "SM_Arch_8x1x8",
      "mesh" : 0
    }
  ],
  "materials" : [
    {
      "name" : "M_Brick",
      "pbrMetallicRoughness" : {
        "baseColorFactor" : [ 0.3, 0.3, 0.3, 1.0 ],
        "metallicFactor" : 0.1,
        "roughnessFactor" : 0.5
      }
    }
  ],
  "meshes" : [
    {
      "primitives" : [
        {
          "attributes" : {
            "POSITION" : 1,
            "NORMAL" : 2,
            "TANGENT" : 3,
            "TEXCOORD_0" : 4
          },
          "indices" : 0,
          "material" : 0
        }
      ],
      "name" : "SM_Arch_8x1x8"
    }
  ],
  "buffers" : [
    {
      "uri" : "SM_Arch_8x1x8.bin",
      "byteLength" : 14724
    }
  ],
  "bufferViews" : [
    {
      "buffer" : 0,
      "byteOffset" : 0,
      "byteLength" : 1380
    },
    {
      "buffer" : 0,
      "byteOffset" : 1380,
      "byteLength" : 3336
    },
    {
      "buffer" : 0,
      "byteOffset" : 4716,
      "byteLength" : 3336
    },
    {
      "buffer" : 0,
      "byteOffset" : 8052,
      "byteLength" : 4448
    },
    {
      "buffer" : 0,
      "byteOffset" : 12500,
      "byteLength" : 2224
    }
  ],
  "accessors" : [
    {
      "bufferView" : 0,
      "componentType" : 5123,
      "count" : 690,
      "type" : "SCALAR"
    },
    {
      "bufferView" : 1,
      "min" : [ -2.85, -2.82528e-08, -0.150001 ],
      "max" : [ 0.15, 2.4, 0.15 ],
      "componentType" : 5126,
      "count" : 278,
      "type" : "VEC3"
    },
    {
      "bufferView" : 2,
      "componentType" : 5126,
      "count" : 278,
      "type" : "VEC3"
    },
    {
      "bufferView" : 3,
      "componentType" : 5126,
      "count" : 278,
      "type" : "VEC4"
    },
    {
      "bufferView" : 4,
      "componentType" : 5126,
      "count" : 278,
      "type" : "VEC2"
    }
  ]
}
