{
  "asset" : {
    "generator" : "UE Viewer (umodel) build 1590",
    "version" : "2.0"
  },
  "scene" : 0,
  "scenes" : [
    {
      "nodes" : [ 0 ]
    }
  ],
  "nodes" : [
    {
      "name" : "SM_Actuator_4x1x1s_Bottom",
      "mesh" : 0
    }
  ],
  "materials" : [
    {
      "name" : "M_Brick",
      "pbrMetallicRoughness" : {
        "baseColorFactor" : [ 0.3, 0.3, 0.3, 1.0 ],
        "metallicFactor" : 0.1,
        "roughnessFactor" : 0.5
      }
    }
  ],
  "meshes" : [
    {
      "primitives" : [
        {
          "attributes" : {
            "POSITION" : 1,
            "NORMAL" : 2,
            "TANGENT" : 3,
            "COLOR_0" : 4,
            "TEXCOORD_0" : 5
          },
          "indices" : 0,
          "material" : 0
        }
      ],
      "name" : "SM_Actuator_4x1x1s_Bottom"
    }
  ],
  "buffers" : [
    {
      "uri" : "SM_Actuator_4x1x1s_Bottom.bin",
      "byteLength" : 8460
    }
  ],
  "bufferViews" : [
    {
      "buffer" : 0,
      "byteOffset" : 0,
      "byteLength" : 660
    },
    {
      "buffer" : 0,
      "byteOffset" : 660,
      "byteLength" : 1800
    },
    {
      "buffer" : 0,
      "byteOffset" : 2460,
      "byteLength" : 1800
    },
    {
      "buffer" : 0,
      "byteOffset" : 4260,
      "byteLength" : 2400
    },
    {
      "buffer" : 0,
      "byteOffset" : 6660,
      "byteLength" : 600
    },
    {
      "buffer" : 0,
      "byteOffset" : 7260,
      "byteLength" : 1200
    }
  ],
  "accessors" : [
    {
      "bufferView" : 0,
      "componentType" : 5123,
      "count" : 330,
      "type" : "SCALAR"
    },
    {
      "bufferView" : 1,
      "min" : [ -0.6, -3.17695e-07, -0.15 ],
      "max" : [ 0.6, 0.0999998, 0.15 ],
      "componentType" : 5126,
      "count" : 150,
      "type" : "VEC3"
    },
    {
      "bufferView" : 2,
      "componentType" : 5126,
      "count" : 150,
      "type" : "VEC3"
    },
    {
      "bufferView" : 3,
      "componentType" : 5126,
      "count" : 150,
      "type" : "VEC4"
    },
    {
      "bufferView" : 4,
      "normalized" : true,
      "componentType" : 5121,
      "count" : 150,
      "type" : "VEC4"
    },
    {
      "bufferView" : 5,
      "componentType" : 5126,
      "count" : 150,
      "type" : "VEC2"
    }
  ]
}
