{
  "asset" : {
    "generator" : "UE Viewer (umodel) build 1590",
    "version" : "2.0"
  },
  "scene" : 0,
  "scenes" : [
    {
      "nodes" : [ 0 ]
    }
  ],
  "nodes" : [
    {
      "name" : "SM_Actuator_6x2x1s_Bottom",
      "mesh" : 0
    }
  ],
  "materials" : [
    {
      "name" : "M_Brick",
      "pbrMetallicRoughness" : {
        "baseColorFactor" : [ 0.3, 0.3, 0.3, 1.0 ],
        "metallicFactor" : 0.1,
        "roughnessFactor" : 0.5
      }
    }
  ],
  "meshes" : [
    {
      "primitives" : [
        {
          "attributes" : {
            "POSITION" : 1,
            "NORMAL" : 2,
            "TANGENT" : 3,
            "TEXCOORD_0" : 4
          },
          "indices" : 0,
          "material" : 0
        }
      ],
      "name" : "SM_Actuator_6x2x1s_Bottom"
    }
  ],
  "buffers" : [
    {
      "uri" : "SM_Actuator_6x2x1s_Bottom.bin",
      "byteLength" : 21444
    }
  ],
  "bufferViews" : [
    {
      "buffer" : 0,
      "byteOffset" : 0,
      "byteLength" : 2148
    },
    {
      "buffer" : 0,
      "byteOffset" : 2148,
      "byteLength" : 4824
    },
    {
      "buffer" : 0,
      "byteOffset" : 6972,
      "byteLength" : 4824
    },
    {
      "buffer" : 0,
      "byteOffset" : 11796,
      "byteLength" : 6432
    },
    {
      "buffer" : 0,
      "byteOffset" : 18228,
      "byteLength" : 3216
    }
  ],
  "accessors" : [
    {
      "bufferView" : 0,
      "componentType" : 5123,
      "count" : 1074,
      "type" : "SCALAR"
    },
    {
      "bufferView" : 1,
      "min" : [ -1.9, -0.1, -0.3 ],
      "max" : [ 0.15, 0.1, 0.3 ],
      "componentType" : 5126,
      "count" : 402,
      "type" : "VEC3"
    },
    {
      "bufferView" : 2,
      "componentType" : 5126,
      "count" : 402,
      "type" : "VEC3"
    },
    {
      "bufferView" : 3,
      "componentType" : 5126,
      "count" : 402,
      "type" : "VEC4"
    },
    {
      "bufferView" : 4,
      "componentType" : 5126,
      "count" : 402,
      "type" : "VEC2"
    }
  ]
}
