{
  "asset" : {
    "generator" : "UE Viewer (umodel) build 1590",
    "version" : "2.0"
  },
  "scene" : 0,
  "scenes" : [
    {
      "nodes" : [ 0 ]
    }
  ],
  "nodes" : [
    {
      "name" : "SM_Actuator_2x2x1s_01_Female",
      "mesh" : 0
    }
  ],
  "materials" : [
    {
      "name" : "M_Brick",
      "pbrMetallicRoughness" : {
        "baseColorFactor" : [ 0.3, 0.3, 0.3, 1.0 ],
        "metallicFactor" : 0.1,
        "roughnessFactor" : 0.5
      }
    }
  ],
  "meshes" : [
    {
      "primitives" : [
        {
          "attributes" : {
            "POSITION" : 1,
            "NORMAL" : 2,
            "TANGENT" : 3,
            "TEXCOORD_0" : 4
          },
          "indices" : 0,
          "material" : 0
        }
      ],
      "name" : "SM_Actuator_2x2x1s_01_Female"
    }
  ],
  "buffers" : [
    {
      "uri" : "SM_Actuator_2x2x1s_01_Female.bin",
      "byteLength" : 13788
    }
  ],
  "bufferViews" : [
    {
      "buffer" : 0,
      "byteOffset" : 0,
      "byteLength" : 1308
    },
    {
      "buffer" : 0,
      "byteOffset" : 1308,
      "byteLength" : 3120
    },
    {
      "buffer" : 0,
      "byteOffset" : 4428,
      "byteLength" : 3120
    },
    {
      "buffer" : 0,
      "byteOffset" : 7548,
      "byteLength" : 4160
    },
    {
      "buffer" : 0,
      "byteOffset" : 11708,
      "byteLength" : 2080
    }
  ],
  "accessors" : [
    {
      "bufferView" : 0,
      "componentType" : 5123,
      "count" : 654,
      "type" : "SCALAR"
    },
    {
      "bufferView" : 1,
      "min" : [ -0.3, -2.82528e-08, -0.15 ],
      "max" : [ 0.5, 0.15, 0.15 ],
      "componentType" : 5126,
      "count" : 260,
      "type" : "VEC3"
    },
    {
      "bufferView" : 2,
      "componentType" : 5126,
      "count" : 260,
      "type" : "VEC3"
    },
    {
      "bufferView" : 3,
      "componentType" : 5126,
      "count" : 260,
      "type" : "VEC4"
    },
    {
      "bufferView" : 4,
      "componentType" : 5126,
      "count" : 260,
      "type" : "VEC2"
    }
  ]
}
