{
  "asset" : {
    "generator" : "UE Viewer (umodel) build 1590",
    "version" : "2.0"
  },
  "scene" : 0,
  "scenes" : [
    {
      "nodes" : [ 0 ]
    }
  ],
  "nodes" : [
    {
      "name" : "SM_Actuator_2x2x1s_Bottom",
      "mesh" : 0
    }
  ],
  "materials" : [
    {
      "name" : "M_Brick",
      "pbrMetallicRoughness" : {
        "baseColorFactor" : [ 0.3, 0.3, 0.3, 1.0 ],
        "metallicFactor" : 0.1,
        "roughnessFactor" : 0.5
      }
    }
  ],
  "meshes" : [
    {
      "primitives" : [
        {
          "attributes" : {
            "POSITION" : 1,
            "NORMAL" : 2,
            "TANGENT" : 3,
            "TEXCOORD_0" : 4
          },
          "indices" : 0,
          "material" : 0
        }
      ],
      "name" : "SM_Actuator_2x2x1s_Bottom"
    }
  ],
  "buffers" : [
    {
      "uri" : "SM_Actuator_2x2x1s_Bottom.bin",
      "byteLength" : 10740
    }
  ],
  "bufferViews" : [
    {
      "buffer" : 0,
      "byteOffset" : 0,
      "byteLength" : 1044
    },
    {
      "buffer" : 0,
      "byteOffset" : 1044,
      "byteLength" : 2424
    },
    {
      "buffer" : 0,
      "byteOffset" : 3468,
      "byteLength" : 2424
    },
    {
      "buffer" : 0,
      "byteOffset" : 5892,
      "byteLength" : 3232
    },
    {
      "buffer" : 0,
      "byteOffset" : 9124,
      "byteLength" : 1616
    }
  ],
  "accessors" : [
    {
      "bufferView" : 0,
      "componentType" : 5123,
      "count" : 522,
      "type" : "SCALAR"
    },
    {
      "bufferView" : 1,
      "min" : [ -0.3, -0.1, -0.3 ],
      "max" : [ 0.55, 0.1, 0.3 ],
      "componentType" : 5126,
      "count" : 202,
      "type" : "VEC3"
    },
    {
      "bufferView" : 2,
      "componentType" : 5126,
      "count" : 202,
      "type" : "VEC3"
    },
    {
      "bufferView" : 3,
      "componentType" : 5126,
      "count" : 202,
      "type" : "VEC4"
    },
    {
      "bufferView" : 4,
      "componentType" : 5126,
      "count" : 202,
      "type" : "VEC2"
    }
  ]
}
