{
  "asset" : {
    "generator" : "UE Viewer (umodel) build 1590",
    "version" : "2.0"
  },
  "scene" : 0,
  "scenes" : [
    {
      "nodes" : [ 0 ]
    }
  ],
  "nodes" : [
    {
      "name" : "SM_Arch_6x1x1",
      "mesh" : 0
    }
  ],
  "materials" : [
    {
      "name" : "M_Brick",
      "pbrMetallicRoughness" : {
        "baseColorFactor" : [ 0.3, 0.3, 0.3, 1.0 ],
        "metallicFactor" : 0.1,
        "roughnessFactor" : 0.5
      }
    }
  ],
  "meshes" : [
    {
      "primitives" : [
        {
          "attributes" : {
            "POSITION" : 1,
            "NORMAL" : 2,
            "TANGENT" : 3,
            "TEXCOORD_0" : 4
          },
          "indices" : 0,
          "material" : 0
        }
      ],
      "name" : "SM_Arch_6x1x1"
    }
  ],
  "buffers" : [
    {
      "uri" : "SM_Arch_6x1x1.bin",
      "byteLength" : 21912
    }
  ],
  "bufferViews" : [
    {
      "buffer" : 0,
      "byteOffset" : 0,
      "byteLength" : 2136
    },
    {
      "buffer" : 0,
      "byteOffset" : 2136,
      "byteLength" : 4944
    },
    {
      "buffer" : 0,
      "byteOffset" : 7080,
      "byteLength" : 4944
    },
    {
      "buffer" : 0,
      "byteOffset" : 12024,
      "byteLength" : 6592
    },
    {
      "buffer" : 0,
      "byteOffset" : 18616,
      "byteLength" : 3296
    }
  ],
  "accessors" : [
    {
      "bufferView" : 0,
      "componentType" : 5123,
      "count" : 1068,
      "type" : "SCALAR"
    },
    {
      "bufferView" : 1,
      "min" : [ -0.9, -2.82528e-08, -0.15 ],
      "max" : [ 0.9, 0.35, 0.15 ],
      "componentType" : 5126,
      "count" : 412,
      "type" : "VEC3"
    },
    {
      "bufferView" : 2,
      "componentType" : 5126,
      "count" : 412,
      "type" : "VEC3"
    },
    {
      "bufferView" : 3,
      "componentType" : 5126,
      "count" : 412,
      "type" : "VEC4"
    },
    {
      "bufferView" : 4,
      "componentType" : 5126,
      "count" : 412,
      "type" : "VEC2"
    }
  ]
}
