{
  "asset" : {
    "generator" : "UE Viewer (umodel) build 1590",
    "version" : "2.0"
  },
  "scene" : 0,
  "scenes" : [
    {
      "nodes" : [ 0 ]
    }
  ],
  "nodes" : [
    {
      "name" : "SM_Actuator_4x4x1s_Top",
      "mesh" : 0
    }
  ],
  "materials" : [
    {
      "name" : "M_Brick",
      "pbrMetallicRoughness" : {
        "baseColorFactor" : [ 0.3, 0.3, 0.3, 1.0 ],
        "metallicFactor" : 0.1,
        "roughnessFactor" : 0.5
      }
    }
  ],
  "meshes" : [
    {
      "primitives" : [
        {
          "attributes" : {
            "POSITION" : 1,
            "NORMAL" : 2,
            "TANGENT" : 3,
            "TEXCOORD_0" : 4
          },
          "indices" : 0,
          "material" : 0
        }
      ],
      "name" : "SM_Actuator_4x4x1s_Top"
    }
  ],
  "buffers" : [
    {
      "uri" : "SM_Actuator_4x4x1s_Top.bin",
      "byteLength" : 35328
    }
  ],
  "bufferViews" : [
    {
      "buffer" : 0,
      "byteOffset" : 0,
      "byteLength" : 3744
    },
    {
      "buffer" : 0,
      "byteOffset" : 3744,
      "byteLength" : 7896
    },
    {
      "buffer" : 0,
      "byteOffset" : 11640,
      "byteLength" : 7896
    },
    {
      "buffer" : 0,
      "byteOffset" : 19536,
      "byteLength" : 10528
    },
    {
      "buffer" : 0,
      "byteOffset" : 30064,
      "byteLength" : 5264
    }
  ],
  "accessors" : [
    {
      "bufferView" : 0,
      "componentType" : 5123,
      "count" : 1872,
      "type" : "SCALAR"
    },
    {
      "bufferView" : 1,
      "min" : [ -0.582175, -0.0400001, -0.582175 ],
      "max" : [ 0.582175, 0.05, 0.582175 ],
      "componentType" : 5126,
      "count" : 658,
      "type" : "VEC3"
    },
    {
      "bufferView" : 2,
      "componentType" : 5126,
      "count" : 658,
      "type" : "VEC3"
    },
    {
      "bufferView" : 3,
      "componentType" : 5126,
      "count" : 658,
      "type" : "VEC4"
    },
    {
      "bufferView" : 4,
      "componentType" : 5126,
      "count" : 658,
      "type" : "VEC2"
    }
  ]
}
