{
  "asset" : {
    "generator" : "UE Viewer (umodel) build 1590",
    "version" : "2.0"
  },
  "scene" : 0,
  "scenes" : [
    {
      "nodes" : [ 0 ]
    }
  ],
  "nodes" : [
    {
      "name" : "SM_Actuator_2x2x15_Bottom",
      "mesh" : 0
    }
  ],
  "materials" : [
    {
      "name" : "M_Brick",
      "pbrMetallicRoughness" : {
        "baseColorFactor" : [ 0.3, 0.3, 0.3, 1.0 ],
        "metallicFactor" : 0.1,
        "roughnessFactor" : 0.5
      }
    }
  ],
  "meshes" : [
    {
      "primitives" : [
        {
          "attributes" : {
            "POSITION" : 1,
            "NORMAL" : 2,
            "TANGENT" : 3,
            "COLOR_0" : 4,
            "TEXCOORD_0" : 5
          },
          "indices" : 0,
          "material" : 0
        }
      ],
      "name" : "SM_Actuator_2x2x15_Bottom"
    }
  ],
  "buffers" : [
    {
      "uri" : "SM_Actuator_2x2x15_Bottom.bin",
      "byteLength" : 22356
    }
  ],
  "bufferViews" : [
    {
      "buffer" : 0,
      "byteOffset" : 0,
      "byteLength" : 2076
    },
    {
      "buffer" : 0,
      "byteOffset" : 2076,
      "byteLength" : 4680
    },
    {
      "buffer" : 0,
      "byteOffset" : 6756,
      "byteLength" : 4680
    },
    {
      "buffer" : 0,
      "byteOffset" : 11436,
      "byteLength" : 6240
    },
    {
      "buffer" : 0,
      "byteOffset" : 17676,
      "byteLength" : 1560
    },
    {
      "buffer" : 0,
      "byteOffset" : 19236,
      "byteLength" : 3120
    }
  ],
  "accessors" : [
    {
      "bufferView" : 0,
      "componentType" : 5123,
      "count" : 1038,
      "type" : "SCALAR"
    },
    {
      "bufferView" : 1,
      "min" : [ -0.3, -3.75509e-08, -0.300001 ],
      "max" : [ 0.3, 4.2, 0.3 ],
      "componentType" : 5126,
      "count" : 390,
      "type" : "VEC3"
    },
    {
      "bufferView" : 2,
      "componentType" : 5126,
      "count" : 390,
      "type" : "VEC3"
    },
    {
      "bufferView" : 3,
      "componentType" : 5126,
      "count" : 390,
      "type" : "VEC4"
    },
    {
      "bufferView" : 4,
      "normalized" : true,
      "componentType" : 5121,
      "count" : 390,
      "type" : "VEC4"
    },
    {
      "bufferView" : 5,
      "componentType" : 5126,
      "count" : 390,
      "type" : "VEC2"
    }
  ]
}
