{
  "asset" : {
    "generator" : "UE Viewer (umodel) build 1590",
    "version" : "2.0"
  },
  "scene" : 0,
  "scenes" : [
    {
      "nodes" : [ 0 ]
    }
  ],
  "nodes" : [
    {
      "name" : "SM_Axle_1x1x1s_02",
      "mesh" : 0
    }
  ],
  "materials" : [
    {
      "name" : "M_Brick",
      "pbrMetallicRoughness" : {
        "baseColorFactor" : [ 0.3, 0.3, 0.3, 1.0 ],
        "metallicFactor" : 0.1,
        "roughnessFactor" : 0.5
      }
    }
  ],
  "meshes" : [
    {
      "primitives" : [
        {
          "attributes" : {
            "POSITION" : 1,
            "NORMAL" : 2,
            "TANGENT" : 3,
            "TEXCOORD_0" : 4
          },
          "indices" : 0,
          "material" : 0
        }
      ],
      "name" : "SM_Axle_1x1x1s_02"
    }
  ],
  "buffers" : [
    {
      "uri" : "SM_Axle_1x1x1s_02.bin",
      "byteLength" : 13284
    }
  ],
  "bufferViews" : [
    {
      "buffer" : 0,
      "byteOffset" : 0,
      "byteLength" : 1092
    },
    {
      "buffer" : 0,
      "byteOffset" : 1092,
      "byteLength" : 3048
    },
    {
      "buffer" : 0,
      "byteOffset" : 4140,
      "byteLength" : 3048
    },
    {
      "buffer" : 0,
      "byteOffset" : 7188,
      "byteLength" : 4064
    },
    {
      "buffer" : 0,
      "byteOffset" : 11252,
      "byteLength" : 2032
    }
  ],
  "accessors" : [
    {
      "bufferView" : 0,
      "componentType" : 5123,
      "count" : 546,
      "type" : "SCALAR"
    },
    {
      "bufferView" : 1,
      "min" : [ -0.15, -2.82528e-08, -0.35 ],
      "max" : [ 0.15, 0.15, 0.35 ],
      "componentType" : 5126,
      "count" : 254,
      "type" : "VEC3"
    },
    {
      "bufferView" : 2,
      "componentType" : 5126,
      "count" : 254,
      "type" : "VEC3"
    },
    {
      "bufferView" : 3,
      "componentType" : 5126,
      "count" : 254,
      "type" : "VEC4"
    },
    {
      "bufferView" : 4,
      "componentType" : 5126,
      "count" : 254,
      "type" : "VEC2"
    }
  ]
}
