{
  "asset" : {
    "generator" : "UE Viewer (umodel) build 1590",
    "version" : "2.0"
  },
  "scene" : 0,
  "scenes" : [
    {
      "nodes" : [ 0 ]
    }
  ],
  "nodes" : [
    {
      "name" : "SM_Actuator_20x2x1s_Top",
      "mesh" : 0
    }
  ],
  "materials" : [
    {
      "name" : "M_Brick",
      "pbrMetallicRoughness" : {
        "baseColorFactor" : [ 0.3, 0.3, 0.3, 1.0 ],
        "metallicFactor" : 0.1,
        "roughnessFactor" : 0.5
      }
    }
  ],
  "meshes" : [
    {
      "primitives" : [
        {
          "attributes" : {
            "POSITION" : 1,
            "NORMAL" : 2,
            "TANGENT" : 3,
            "TEXCOORD_0" : 4
          },
          "indices" : 0,
          "material" : 0
        }
      ],
      "name" : "SM_Actuator_20x2x1s_Top"
    }
  ],
  "buffers" : [
    {
      "uri" : "SM_Actuator_20x2x1s_Top.bin",
      "byteLength" : 108264
    }
  ],
  "bufferViews" : [
    {
      "buffer" : 0,
      "byteOffset" : 0,
      "byteLength" : 11112
    },
    {
      "buffer" : 0,
      "byteOffset" : 11112,
      "byteLength" : 24288
    },
    {
      "buffer" : 0,
      "byteOffset" : 35400,
      "byteLength" : 24288
    },
    {
      "buffer" : 0,
      "byteOffset" : 59688,
      "byteLength" : 32384
    },
    {
      "buffer" : 0,
      "byteOffset" : 92072,
      "byteLength" : 16192
    }
  ],
  "accessors" : [
    {
      "bufferView" : 0,
      "componentType" : 5123,
      "count" : 5556,
      "type" : "SCALAR"
    },
    {
      "bufferView" : 1,
      "min" : [ -3, -0.025, -0.26 ],
      "max" : [ 3, 0.0500001, 0.26 ],
      "componentType" : 5126,
      "count" : 2024,
      "type" : "VEC3"
    },
    {
      "bufferView" : 2,
      "componentType" : 5126,
      "count" : 2024,
      "type" : "VEC3"
    },
    {
      "bufferView" : 3,
      "componentType" : 5126,
      "count" : 2024,
      "type" : "VEC4"
    },
    {
      "bufferView" : 4,
      "componentType" : 5126,
      "count" : 2024,
      "type" : "VEC2"
    }
  ]
}
