{
  "asset" : {
    "generator" : "UE Viewer (umodel) build 1590",
    "version" : "2.0"
  },
  "scene" : 0,
  "scenes" : [
    {
      "nodes" : [ 0 ]
    }
  ],
  "nodes" : [
    {
      "name" : "SM_Antenna_1x1x8",
      "mesh" : 0
    }
  ],
  "materials" : [
    {
      "name" : "M_Brick",
      "pbrMetallicRoughness" : {
        "baseColorFactor" : [ 0.3, 0.3, 0.3, 1.0 ],
        "metallicFactor" : 0.1,
        "roughnessFactor" : 0.5
      }
    }
  ],
  "meshes" : [
    {
      "primitives" : [
        {
          "attributes" : {
            "POSITION" : 1,
            "NORMAL" : 2,
            "TANGENT" : 3,
            "TEXCOORD_0" : 4
          },
          "indices" : 0,
          "material" : 0
        }
      ],
      "name" : "SM_Antenna_1x1x8"
    }
  ],
  "buffers" : [
    {
      "uri" : "SM_Antenna_1x1x8.bin",
      "byteLength" : 12552
    }
  ],
  "bufferViews" : [
    {
      "buffer" : 0,
      "byteOffset" : 0,
      "byteLength" : 1320
    },
    {
      "buffer" : 0,
      "byteOffset" : 1320,
      "byteLength" : 2808
    },
    {
      "buffer" : 0,
      "byteOffset" : 4128,
      "byteLength" : 2808
    },
    {
      "buffer" : 0,
      "byteOffset" : 6936,
      "byteLength" : 3744
    },
    {
      "buffer" : 0,
      "byteOffset" : 10680,
      "byteLength" : 1872
    }
  ],
  "accessors" : [
    {
      "bufferView" : 0,
      "componentType" : 5123,
      "count" : 660,
      "type" : "SCALAR"
    },
    {
      "bufferView" : 1,
      "min" : [ -0.15, -2.44381e-08, -0.15 ],
      "max" : [ 0.15, 2.4, 0.15 ],
      "componentType" : 5126,
      "count" : 234,
      "type" : "VEC3"
    },
    {
      "bufferView" : 2,
      "componentType" : 5126,
      "count" : 234,
      "type" : "VEC3"
    },
    {
      "bufferView" : 3,
      "componentType" : 5126,
      "count" : 234,
      "type" : "VEC4"
    },
    {
      "bufferView" : 4,
      "componentType" : 5126,
      "count" : 234,
      "type" : "VEC2"
    }
  ]
}
