{
  "asset" : {
    "generator" : "UE Viewer (umodel) build 1590",
    "version" : "2.0"
  },
  "scene" : 0,
  "scenes" : [
    {
      "nodes" : [ 0 ]
    }
  ],
  "nodes" : [
    {
      "name" : "SM_Actuator_1sx1sx1s_Male",
      "mesh" : 0
    }
  ],
  "materials" : [
    {
      "name" : "M_Brick",
      "pbrMetallicRoughness" : {
        "baseColorFactor" : [ 0.3, 0.3, 0.3, 1.0 ],
        "metallicFactor" : 0.1,
        "roughnessFactor" : 0.5
      }
    }
  ],
  "meshes" : [
    {
      "primitives" : [
        {
          "attributes" : {
            "POSITION" : 1,
            "NORMAL" : 2,
            "TANGENT" : 3,
            "TEXCOORD_0" : 4
          },
          "indices" : 0,
          "material" : 0
        }
      ],
      "name" : "SM_Actuator_1sx1sx1s_Male"
    }
  ],
  "buffers" : [
    {
      "uri" : "SM_Actuator_1sx1sx1s_Male.bin",
      "byteLength" : 3120
    }
  ],
  "bufferViews" : [
    {
      "buffer" : 0,
      "byteOffset" : 0,
      "byteLength" : 240
    },
    {
      "buffer" : 0,
      "byteOffset" : 240,
      "byteLength" : 720
    },
    {
      "buffer" : 0,
      "byteOffset" : 960,
      "byteLength" : 720
    },
    {
      "buffer" : 0,
      "byteOffset" : 1680,
      "byteLength" : 960
    },
    {
      "buffer" : 0,
      "byteOffset" : 2640,
      "byteLength" : 480
    }
  ],
  "accessors" : [
    {
      "bufferView" : 0,
      "componentType" : 5123,
      "count" : 120,
      "type" : "SCALAR"
    },
    {
      "bufferView" : 1,
      "min" : [ -0.15, -8.14603e-09, -0.05 ],
      "max" : [ 0.05, 0.1, 0.05 ],
      "componentType" : 5126,
      "count" : 60,
      "type" : "VEC3"
    },
    {
      "bufferView" : 2,
      "componentType" : 5126,
      "count" : 60,
      "type" : "VEC3"
    },
    {
      "bufferView" : 3,
      "componentType" : 5126,
      "count" : 60,
      "type" : "VEC4"
    },
    {
      "bufferView" : 4,
      "componentType" : 5126,
      "count" : 60,
      "type" : "VEC2"
    }
  ]
}
