{
  "asset" : {
    "generator" : "UE Viewer (umodel) build 1590",
    "version" : "2.0"
  },
  "scene" : 0,
  "scenes" : [
    {
      "nodes" : [ 0 ]
    }
  ],
  "nodes" : [
    {
      "name" : "SM_Actuator_4x4x1s_Bottom",
      "mesh" : 0
    }
  ],
  "materials" : [
    {
      "name" : "M_Brick",
      "pbrMetallicRoughness" : {
        "baseColorFactor" : [ 0.3, 0.3, 0.3, 1.0 ],
        "metallicFactor" : 0.1,
        "roughnessFactor" : 0.5
      }
    }
  ],
  "meshes" : [
    {
      "primitives" : [
        {
          "attributes" : {
            "POSITION" : 1,
            "NORMAL" : 2,
            "TANGENT" : 3,
            "TEXCOORD_0" : 4
          },
          "indices" : 0,
          "material" : 0
        }
      ],
      "name" : "SM_Actuator_4x4x1s_Bottom"
    }
  ],
  "buffers" : [
    {
      "uri" : "SM_Actuator_4x4x1s_Bottom.bin",
      "byteLength" : 44016
    }
  ],
  "bufferViews" : [
    {
      "buffer" : 0,
      "byteOffset" : 0,
      "byteLength" : 4560
    },
    {
      "buffer" : 0,
      "byteOffset" : 4560,
      "byteLength" : 9864
    },
    {
      "buffer" : 0,
      "byteOffset" : 14424,
      "byteLength" : 9864
    },
    {
      "buffer" : 0,
      "byteOffset" : 24288,
      "byteLength" : 13152
    },
    {
      "buffer" : 0,
      "byteOffset" : 37440,
      "byteLength" : 6576
    }
  ],
  "accessors" : [
    {
      "bufferView" : 0,
      "componentType" : 5123,
      "count" : 2280,
      "type" : "SCALAR"
    },
    {
      "bufferView" : 1,
      "min" : [ -0.6, -1.01567e-07, -0.6 ],
      "max" : [ 0.6, 0.1, 0.6 ],
      "componentType" : 5126,
      "count" : 822,
      "type" : "VEC3"
    },
    {
      "bufferView" : 2,
      "componentType" : 5126,
      "count" : 822,
      "type" : "VEC3"
    },
    {
      "bufferView" : 3,
      "componentType" : 5126,
      "count" : 822,
      "type" : "VEC4"
    },
    {
      "bufferView" : 4,
      "componentType" : 5126,
      "count" : 822,
      "type" : "VEC2"
    }
  ]
}
