{
  "asset" : {
    "generator" : "UE Viewer (umodel) build 1590",
    "version" : "2.0"
  },
  "scene" : 0,
  "scenes" : [
    {
      "nodes" : [ 0 ]
    }
  ],
  "nodes" : [
    {
      "name" : "SM_Axle_2x4x1s",
      "mesh" : 0
    }
  ],
  "materials" : [
    {
      "name" : "M_Brick",
      "pbrMetallicRoughness" : {
        "baseColorFactor" : [ 0.3, 0.3, 0.3, 1.0 ],
        "metallicFactor" : 0.1,
        "roughnessFactor" : 0.5
      }
    }
  ],
  "meshes" : [
    {
      "primitives" : [
        {
          "attributes" : {
            "POSITION" : 1,
            "NORMAL" : 2,
            "TANGENT" : 3,
            "TEXCOORD_0" : 4
          },
          "indices" : 0,
          "material" : 0
        }
      ],
      "name" : "SM_Axle_2x4x1s"
    }
  ],
  "buffers" : [
    {
      "uri" : "SM_Axle_2x4x1s.bin",
      "byteLength" : 40044
    }
  ],
  "bufferViews" : [
    {
      "buffer" : 0,
      "byteOffset" : 0,
      "byteLength" : 3852
    },
    {
      "buffer" : 0,
      "byteOffset" : 3852,
      "byteLength" : 9048
    },
    {
      "buffer" : 0,
      "byteOffset" : 12900,
      "byteLength" : 9048
    },
    {
      "buffer" : 0,
      "byteOffset" : 21948,
      "byteLength" : 12064
    },
    {
      "buffer" : 0,
      "byteOffset" : 34012,
      "byteLength" : 6032
    }
  ],
  "accessors" : [
    {
      "bufferView" : 0,
      "componentType" : 5123,
      "count" : 1926,
      "type" : "SCALAR"
    },
    {
      "bufferView" : 1,
      "min" : [ -0.3, -1.01567e-07, -0.8 ],
      "max" : [ 0.3, 0.15, 0.8 ],
      "componentType" : 5126,
      "count" : 754,
      "type" : "VEC3"
    },
    {
      "bufferView" : 2,
      "componentType" : 5126,
      "count" : 754,
      "type" : "VEC3"
    },
    {
      "bufferView" : 3,
      "componentType" : 5126,
      "count" : 754,
      "type" : "VEC4"
    },
    {
      "bufferView" : 4,
      "componentType" : 5126,
      "count" : 754,
      "type" : "VEC2"
    }
  ]
}
