{
  "asset" : {
    "generator" : "UE Viewer (umodel) build 1590",
    "version" : "2.0"
  },
  "scene" : 0,
  "scenes" : [
    {
      "nodes" : [ 0 ]
    }
  ],
  "nodes" : [
    {
      "name" : "SM_Barrel_1sx1sx3",
      "mesh" : 0
    }
  ],
  "materials" : [
    {
      "name" : "M_Brick",
      "pbrMetallicRoughness" : {
        "baseColorFactor" : [ 0.3, 0.3, 0.3, 1.0 ],
        "metallicFactor" : 0.1,
        "roughnessFactor" : 0.5
      }
    }
  ],
  "meshes" : [
    {
      "primitives" : [
        {
          "attributes" : {
            "POSITION" : 1,
            "NORMAL" : 2,
            "TANGENT" : 3,
            "TEXCOORD_0" : 4
          },
          "indices" : 0,
          "material" : 0
        }
      ],
      "name" : "SM_Barrel_1sx1sx3"
    }
  ],
  "buffers" : [
    {
      "uri" : "SM_Barrel_1sx1sx3.bin",
      "byteLength" : 58176
    }
  ],
  "bufferViews" : [
    {
      "buffer" : 0,
      "byteOffset" : 0,
      "byteLength" : 6816
    },
    {
      "buffer" : 0,
      "byteOffset" : 6816,
      "byteLength" : 12840
    },
    {
      "buffer" : 0,
      "byteOffset" : 19656,
      "byteLength" : 12840
    },
    {
      "buffer" : 0,
      "byteOffset" : 32496,
      "byteLength" : 17120
    },
    {
      "buffer" : 0,
      "byteOffset" : 49616,
      "byteLength" : 8560
    }
  ],
  "accessors" : [
    {
      "bufferView" : 0,
      "componentType" : 5123,
      "count" : 3408,
      "type" : "SCALAR"
    },
    {
      "bufferView" : 1,
      "min" : [ -0.075, -0.05, -0.0750001 ],
      "max" : [ 0.0750001, 0.9, 0.075 ],
      "componentType" : 5126,
      "count" : 1070,
      "type" : "VEC3"
    },
    {
      "bufferView" : 2,
      "componentType" : 5126,
      "count" : 1070,
      "type" : "VEC3"
    },
    {
      "bufferView" : 3,
      "componentType" : 5126,
      "count" : 1070,
      "type" : "VEC4"
    },
    {
      "bufferView" : 4,
      "componentType" : 5126,
      "count" : 1070,
      "type" : "VEC2"
    }
  ]
}
