{
  "asset" : {
    "generator" : "UE Viewer (umodel) build 1590",
    "version" : "2.0"
  },
  "scene" : 0,
  "scenes" : [
    {
      "nodes" : [ 0 ]
    }
  ],
  "nodes" : [
    {
      "name" : "SM_Brick_8x2x1s_Flat",
      "mesh" : 0
    }
  ],
  "materials" : [
    {
      "name" : "M_Brick",
      "pbrMetallicRoughness" : {
        "baseColorFactor" : [ 0.3, 0.3, 0.3, 1.0 ],
        "metallicFactor" : 0.1,
        "roughnessFactor" : 0.5
      }
    }
  ],
  "meshes" : [
    {
      "primitives" : [
        {
          "attributes" : {
            "POSITION" : 1,
            "NORMAL" : 2,
            "TANGENT" : 3,
            "TEXCOORD_0" : 4
          },
          "indices" : 0,
          "material" : 0
        }
      ],
      "name" : "SM_Brick_8x2x1s_Flat"
    }
  ],
  "buffers" : [
    {
      "uri" : "SM_Brick_8x2x1s_Flat.bin",
      "byteLength" : 21588
    }
  ],
  "bufferViews" : [
    {
      "buffer" : 0,
      "byteOffset" : 0,
      "byteLength" : 2100
    },
    {
      "buffer" : 0,
      "byteOffset" : 2100,
      "byteLength" : 4872
    },
    {
      "buffer" : 0,
      "byteOffset" : 6972,
      "byteLength" : 4872
    },
    {
      "buffer" : 0,
      "byteOffset" : 11844,
      "byteLength" : 6496
    },
    {
      "buffer" : 0,
      "byteOffset" : 18340,
      "byteLength" : 3248
    }
  ],
  "accessors" : [
    {
      "bufferView" : 0,
      "componentType" : 5123,
      "count" : 1050,
      "type" : "SCALAR"
    },
    {
      "bufferView" : 1,
      "min" : [ -1.2, -2.951e-07, -0.3 ],
      "max" : [ 1.2, 0.1, 0.3 ],
      "componentType" : 5126,
      "count" : 406,
      "type" : "VEC3"
    },
    {
      "bufferView" : 2,
      "componentType" : 5126,
      "count" : 406,
      "type" : "VEC3"
    },
    {
      "bufferView" : 3,
      "componentType" : 5126,
      "count" : 406,
      "type" : "VEC4"
    },
    {
      "bufferView" : 4,
      "componentType" : 5126,
      "count" : 406,
      "type" : "VEC2"
    }
  ]
}
