{
  "asset" : {
    "generator" : "UE Viewer (umodel) build 1590",
    "version" : "2.0"
  },
  "scene" : 0,
  "scenes" : [
    {
      "nodes" : [ 0 ]
    }
  ],
  "nodes" : [
    {
      "name" : "SM_Brick_20x1x1",
      "mesh" : 0
    }
  ],
  "materials" : [
    {
      "name" : "M_Brick",
      "pbrMetallicRoughness" : {
        "baseColorFactor" : [ 0.3, 0.3, 0.3, 1.0 ],
        "metallicFactor" : 0.1,
        "roughnessFactor" : 0.5
      }
    }
  ],
  "meshes" : [
    {
      "primitives" : [
        {
          "attributes" : {
            "POSITION" : 1,
            "NORMAL" : 2,
            "TANGENT" : 3,
            "TEXCOORD_0" : 4
          },
          "indices" : 0,
          "material" : 0
        }
      ],
      "name" : "SM_Brick_20x1x1"
    }
  ],
  "buffers" : [
    {
      "uri" : "SM_Brick_20x1x1.bin",
      "byteLength" : 82212
    }
  ],
  "bufferViews" : [
    {
      "buffer" : 0,
      "byteOffset" : 0,
      "byteLength" : 8196
    },
    {
      "buffer" : 0,
      "byteOffset" : 8196,
      "byteLength" : 18504
    },
    {
      "buffer" : 0,
      "byteOffset" : 26700,
      "byteLength" : 18504
    },
    {
      "buffer" : 0,
      "byteOffset" : 45204,
      "byteLength" : 24672
    },
    {
      "buffer" : 0,
      "byteOffset" : 69876,
      "byteLength" : 12336
    }
  ],
  "accessors" : [
    {
      "bufferView" : 0,
      "componentType" : 5123,
      "count" : 4098,
      "type" : "SCALAR"
    },
    {
      "bufferView" : 1,
      "min" : [ -3, -2.82528e-08, -0.15 ],
      "max" : [ 3, 0.35, 0.15 ],
      "componentType" : 5126,
      "count" : 1542,
      "type" : "VEC3"
    },
    {
      "bufferView" : 2,
      "componentType" : 5126,
      "count" : 1542,
      "type" : "VEC3"
    },
    {
      "bufferView" : 3,
      "componentType" : 5126,
      "count" : 1542,
      "type" : "VEC4"
    },
    {
      "bufferView" : 4,
      "componentType" : 5126,
      "count" : 1542,
      "type" : "VEC2"
    }
  ]
}
