{
  "asset" : {
    "generator" : "UE Viewer (umodel) build 1590",
    "version" : "2.0"
  },
  "scene" : 0,
  "scenes" : [
    {
      "nodes" : [ 0 ]
    }
  ],
  "nodes" : [
    {
      "name" : "SM_Brick_8x8x1s_Flat",
      "mesh" : 0
    }
  ],
  "materials" : [
    {
      "name" : "M_Brick",
      "pbrMetallicRoughness" : {
        "baseColorFactor" : [ 0.3, 0.3, 0.3, 1.0 ],
        "metallicFactor" : 0.1,
        "roughnessFactor" : 0.5
      }
    }
  ],
  "meshes" : [
    {
      "primitives" : [
        {
          "attributes" : {
            "POSITION" : 1,
            "NORMAL" : 2,
            "TANGENT" : 3,
            "TEXCOORD_0" : 4
          },
          "indices" : 0,
          "material" : 0
        }
      ],
      "name" : "SM_Brick_8x8x1s_Flat"
    }
  ],
  "buffers" : [
    {
      "uri" : "SM_Brick_8x8x1s_Flat.bin",
      "byteLength" : 133836
    }
  ],
  "bufferViews" : [
    {
      "buffer" : 0,
      "byteOffset" : 0,
      "byteLength" : 13692
    },
    {
      "buffer" : 0,
      "byteOffset" : 13692,
      "byteLength" : 30036
    },
    {
      "buffer" : 0,
      "byteOffset" : 43728,
      "byteLength" : 30036
    },
    {
      "buffer" : 0,
      "byteOffset" : 73764,
      "byteLength" : 40048
    },
    {
      "buffer" : 0,
      "byteOffset" : 113812,
      "byteLength" : 20024
    }
  ],
  "accessors" : [
    {
      "bufferView" : 0,
      "componentType" : 5123,
      "count" : 6846,
      "type" : "SCALAR"
    },
    {
      "bufferView" : 1,
      "min" : [ -1.2, -1.99319e-07, -1.2 ],
      "max" : [ 1.2, 0.1, 1.2 ],
      "componentType" : 5126,
      "count" : 2503,
      "type" : "VEC3"
    },
    {
      "bufferView" : 2,
      "componentType" : 5126,
      "count" : 2503,
      "type" : "VEC3"
    },
    {
      "bufferView" : 3,
      "componentType" : 5126,
      "count" : 2503,
      "type" : "VEC4"
    },
    {
      "bufferView" : 4,
      "componentType" : 5126,
      "count" : 2503,
      "type" : "VEC2"
    }
  ]
}
