{
  "asset" : {
    "generator" : "UE Viewer (umodel) build 1590",
    "version" : "2.0"
  },
  "scene" : 0,
  "scenes" : [
    {
      "nodes" : [ 0 ]
    }
  ],
  "nodes" : [
    {
      "name" : "SM_BrickRounded_6x1x1s_Flat",
      "mesh" : 0
    }
  ],
  "materials" : [
    {
      "name" : "M_Brick",
      "pbrMetallicRoughness" : {
        "baseColorFactor" : [ 0.3, 0.3, 0.3, 1.0 ],
        "metallicFactor" : 0.1,
        "roughnessFactor" : 0.5
      }
    }
  ],
  "meshes" : [
    {
      "primitives" : [
        {
          "attributes" : {
            "POSITION" : 1,
            "NORMAL" : 2,
            "TANGENT" : 3,
            "TEXCOORD_0" : 4
          },
          "indices" : 0,
          "material" : 0
        }
      ],
      "name" : "SM_BrickRounded_6x1x1s_Flat"
    }
  ],
  "buffers" : [
    {
      "uri" : "SM_BrickRounded_6x1x1s_Flat.bin",
      "byteLength" : 14844
    }
  ],
  "bufferViews" : [
    {
      "buffer" : 0,
      "byteOffset" : 0,
      "byteLength" : 1500
    },
    {
      "buffer" : 0,
      "byteOffset" : 1500,
      "byteLength" : 3336
    },
    {
      "buffer" : 0,
      "byteOffset" : 4836,
      "byteLength" : 3336
    },
    {
      "buffer" : 0,
      "byteOffset" : 8172,
      "byteLength" : 4448
    },
    {
      "buffer" : 0,
      "byteOffset" : 12620,
      "byteLength" : 2224
    }
  ],
  "accessors" : [
    {
      "bufferView" : 0,
      "componentType" : 5123,
      "count" : 750,
      "type" : "SCALAR"
    },
    {
      "bufferView" : 1,
      "min" : [ -0.9, -1.20998e-08, -0.15 ],
      "max" : [ 0.9, 0.1, 0.15 ],
      "componentType" : 5126,
      "count" : 278,
      "type" : "VEC3"
    },
    {
      "bufferView" : 2,
      "componentType" : 5126,
      "count" : 278,
      "type" : "VEC3"
    },
    {
      "bufferView" : 3,
      "componentType" : 5126,
      "count" : 278,
      "type" : "VEC4"
    },
    {
      "bufferView" : 4,
      "componentType" : 5126,
      "count" : 278,
      "type" : "VEC2"
    }
  ]
}
