{
  "asset" : {
    "generator" : "UE Viewer (umodel) build 1590",
    "version" : "2.0"
  },
  "scene" : 0,
  "scenes" : [
    {
      "nodes" : [ 0 ]
    }
  ],
  "nodes" : [
    {
      "name" : "SM_Brick_16x1x1",
      "mesh" : 0
    }
  ],
  "materials" : [
    {
      "name" : "M_Brick",
      "pbrMetallicRoughness" : {
        "baseColorFactor" : [ 0.3, 0.3, 0.3, 1.0 ],
        "metallicFactor" : 0.1,
        "roughnessFactor" : 0.5
      }
    }
  ],
  "meshes" : [
    {
      "primitives" : [
        {
          "attributes" : {
            "POSITION" : 1,
            "NORMAL" : 2,
            "TANGENT" : 3,
            "TEXCOORD_0" : 4,
            "TEXCOORD_1" : 5
          },
          "indices" : 0,
          "material" : 0
        }
      ],
      "name" : "SM_Brick_16x1x1"
    }
  ],
  "buffers" : [
    {
      "uri" : "SM_Brick_16x1x1.bin",
      "byteLength" : 75892
    }
  ],
  "bufferViews" : [
    {
      "buffer" : 0,
      "byteOffset" : 0,
      "byteLength" : 6564
    },
    {
      "buffer" : 0,
      "byteOffset" : 6564,
      "byteLength" : 14856
    },
    {
      "buffer" : 0,
      "byteOffset" : 21420,
      "byteLength" : 14856
    },
    {
      "buffer" : 0,
      "byteOffset" : 36276,
      "byteLength" : 19808
    },
    {
      "buffer" : 0,
      "byteOffset" : 56084,
      "byteLength" : 9904
    },
    {
      "buffer" : 0,
      "byteOffset" : 65988,
      "byteLength" : 9904
    }
  ],
  "accessors" : [
    {
      "bufferView" : 0,
      "componentType" : 5123,
      "count" : 3282,
      "type" : "SCALAR"
    },
    {
      "bufferView" : 1,
      "min" : [ -2.4, -4.76837e-09, -0.15 ],
      "max" : [ 2.4, 0.35, 0.15 ],
      "componentType" : 5126,
      "count" : 1238,
      "type" : "VEC3"
    },
    {
      "bufferView" : 2,
      "componentType" : 5126,
      "count" : 1238,
      "type" : "VEC3"
    },
    {
      "bufferView" : 3,
      "componentType" : 5126,
      "count" : 1238,
      "type" : "VEC4"
    },
    {
      "bufferView" : 4,
      "componentType" : 5126,
      "count" : 1238,
      "type" : "VEC2"
    },
    {
      "bufferView" : 5,
      "componentType" : 5126,
      "count" : 1238,
      "type" : "VEC2"
    }
  ]
}
