{
  "asset" : {
    "generator" : "UE Viewer (umodel) build 1590",
    "version" : "2.0"
  },
  "scene" : 0,
  "scenes" : [
    {
      "nodes" : [ 0 ]
    }
  ],
  "nodes" : [
    {
      "name" : "SM_Blade_20x2",
      "mesh" : 0
    }
  ],
  "materials" : [
    {
      "name" : "M_Brick",
      "pbrMetallicRoughness" : {
        "baseColorFactor" : [ 0.3, 0.3, 0.3, 1.0 ],
        "metallicFactor" : 0.1,
        "roughnessFactor" : 0.5
      }
    }
  ],
  "meshes" : [
    {
      "primitives" : [
        {
          "attributes" : {
            "POSITION" : 1,
            "NORMAL" : 2,
            "TANGENT" : 3,
            "TEXCOORD_0" : 4
          },
          "indices" : 0,
          "material" : 0
        }
      ],
      "name" : "SM_Blade_20x2"
    }
  ],
  "buffers" : [
    {
      "uri" : "SM_Blade_20x2.bin",
      "byteLength" : 10212
    }
  ],
  "bufferViews" : [
    {
      "buffer" : 0,
      "byteOffset" : 0,
      "byteLength" : 948
    },
    {
      "buffer" : 0,
      "byteOffset" : 948,
      "byteLength" : 2316
    },
    {
      "buffer" : 0,
      "byteOffset" : 3264,
      "byteLength" : 2316
    },
    {
      "buffer" : 0,
      "byteOffset" : 5580,
      "byteLength" : 3088
    },
    {
      "buffer" : 0,
      "byteOffset" : 8668,
      "byteLength" : 1544
    }
  ],
  "accessors" : [
    {
      "bufferView" : 0,
      "componentType" : 5123,
      "count" : 474,
      "type" : "SCALAR"
    },
    {
      "bufferView" : 1,
      "min" : [ -0.15, -7.33143e-08, -0.45 ],
      "max" : [ 5.85, 0.15, 0.15 ],
      "componentType" : 5126,
      "count" : 193,
      "type" : "VEC3"
    },
    {
      "bufferView" : 2,
      "componentType" : 5126,
      "count" : 193,
      "type" : "VEC3"
    },
    {
      "bufferView" : 3,
      "componentType" : 5126,
      "count" : 193,
      "type" : "VEC4"
    },
    {
      "bufferView" : 4,
      "componentType" : 5126,
      "count" : 193,
      "type" : "VEC2"
    }
  ]
}
