{
  "asset" : {
    "generator" : "UE Viewer (umodel) build 1590",
    "version" : "2.0"
  },
  "scene" : 0,
  "scenes" : [
    {
      "nodes" : [ 0 ]
    }
  ],
  "nodes" : [
    {
      "name" : "SM_Brick_12x6x1s_Flat",
      "mesh" : 0
    }
  ],
  "materials" : [
    {
      "name" : "M_Brick",
      "pbrMetallicRoughness" : {
        "baseColorFactor" : [ 0.3, 0.3, 0.3, 1.0 ],
        "metallicFactor" : 0.1,
        "roughnessFactor" : 0.5
      }
    }
  ],
  "meshes" : [
    {
      "primitives" : [
        {
          "attributes" : {
            "POSITION" : 1,
            "NORMAL" : 2,
            "TANGENT" : 3,
            "TEXCOORD_0" : 4
          },
          "indices" : 0,
          "material" : 0
        }
      ],
      "name" : "SM_Brick_12x6x1s_Flat"
    }
  ],
  "buffers" : [
    {
      "uri" : "SM_Brick_12x6x1s_Flat.bin",
      "byteLength" : 149988
    }
  ],
  "bufferViews" : [
    {
      "buffer" : 0,
      "byteOffset" : 0,
      "byteLength" : 15348
    },
    {
      "buffer" : 0,
      "byteOffset" : 15348,
      "byteLength" : 33660
    },
    {
      "buffer" : 0,
      "byteOffset" : 49008,
      "byteLength" : 33660
    },
    {
      "buffer" : 0,
      "byteOffset" : 82668,
      "byteLength" : 44880
    },
    {
      "buffer" : 0,
      "byteOffset" : 127548,
      "byteLength" : 22440
    }
  ],
  "accessors" : [
    {
      "bufferView" : 0,
      "componentType" : 5123,
      "count" : 7674,
      "type" : "SCALAR"
    },
    {
      "bufferView" : 1,
      "min" : [ -1.8, -1.50443e-07, -0.9 ],
      "max" : [ 1.8, 0.1, 0.9 ],
      "componentType" : 5126,
      "count" : 2805,
      "type" : "VEC3"
    },
    {
      "bufferView" : 2,
      "componentType" : 5126,
      "count" : 2805,
      "type" : "VEC3"
    },
    {
      "bufferView" : 3,
      "componentType" : 5126,
      "count" : 2805,
      "type" : "VEC4"
    },
    {
      "bufferView" : 4,
      "componentType" : 5126,
      "count" : 2805,
      "type" : "VEC2"
    }
  ]
}
