{
  "asset" : {
    "generator" : "UE Viewer (umodel) build 1590",
    "version" : "2.0"
  },
  "scene" : 0,
  "scenes" : [
    {
      "nodes" : [ 0 ]
    }
  ],
  "nodes" : [
    {
      "name" : "SM_Brick_6x4x1s_Flat",
      "mesh" : 0
    }
  ],
  "materials" : [
    {
      "name" : "M_Brick",
      "pbrMetallicRoughness" : {
        "baseColorFactor" : [ 0.3, 0.3, 0.3, 1.0 ],
        "metallicFactor" : 0.1,
        "roughnessFactor" : 0.5
      }
    }
  ],
  "meshes" : [
    {
      "primitives" : [
        {
          "attributes" : {
            "POSITION" : 1,
            "NORMAL" : 2,
            "TANGENT" : 3,
            "TEXCOORD_0" : 4
          },
          "indices" : 0,
          "material" : 0
        }
      ],
      "name" : "SM_Brick_6x4x1s_Flat"
    }
  ],
  "buffers" : [
    {
      "uri" : "SM_Brick_6x4x1s_Flat.bin",
      "byteLength" : 42804
    }
  ],
  "bufferViews" : [
    {
      "buffer" : 0,
      "byteOffset" : 0,
      "byteLength" : 4308
    },
    {
      "buffer" : 0,
      "byteOffset" : 4308,
      "byteLength" : 9624
    },
    {
      "buffer" : 0,
      "byteOffset" : 13932,
      "byteLength" : 9624
    },
    {
      "buffer" : 0,
      "byteOffset" : 23556,
      "byteLength" : 12832
    },
    {
      "buffer" : 0,
      "byteOffset" : 36388,
      "byteLength" : 6416
    }
  ],
  "accessors" : [
    {
      "bufferView" : 0,
      "componentType" : 5123,
      "count" : 2154,
      "type" : "SCALAR"
    },
    {
      "bufferView" : 1,
      "min" : [ -0.9, -2.04502e-07, -0.6 ],
      "max" : [ 0.9, 0.1, 0.6 ],
      "componentType" : 5126,
      "count" : 802,
      "type" : "VEC3"
    },
    {
      "bufferView" : 2,
      "componentType" : 5126,
      "count" : 802,
      "type" : "VEC3"
    },
    {
      "bufferView" : 3,
      "componentType" : 5126,
      "count" : 802,
      "type" : "VEC4"
    },
    {
      "bufferView" : 4,
      "componentType" : 5126,
      "count" : 802,
      "type" : "VEC2"
    }
  ]
}
