{
  "asset" : {
    "generator" : "UE Viewer (umodel) build 1590",
    "version" : "2.0"
  },
  "scene" : 0,
  "scenes" : [
    {
      "nodes" : [ 0 ]
    }
  ],
  "nodes" : [
    {
      "name" : "SM_Bumper_4sx6x2",
      "mesh" : 0
    }
  ],
  "materials" : [
    {
      "name" : "M_Brick",
      "pbrMetallicRoughness" : {
        "baseColorFactor" : [ 0.3, 0.3, 0.3, 1.0 ],
        "metallicFactor" : 0.1,
        "roughnessFactor" : 0.5
      }
    }
  ],
  "meshes" : [
    {
      "primitives" : [
        {
          "attributes" : {
            "POSITION" : 1,
            "NORMAL" : 2,
            "TANGENT" : 3,
            "TEXCOORD_0" : 4
          },
          "indices" : 0,
          "material" : 0
        }
      ],
      "name" : "SM_Bumper_4sx6x2"
    }
  ],
  "buffers" : [
    {
      "uri" : "SM_Bumper_4sx6x2.bin",
      "byteLength" : 33156
    }
  ],
  "bufferViews" : [
    {
      "buffer" : 0,
      "byteOffset" : 0,
      "byteLength" : 3204
    },
    {
      "buffer" : 0,
      "byteOffset" : 3204,
      "byteLength" : 7488
    },
    {
      "buffer" : 0,
      "byteOffset" : 10692,
      "byteLength" : 7488
    },
    {
      "buffer" : 0,
      "byteOffset" : 18180,
      "byteLength" : 9984
    },
    {
      "buffer" : 0,
      "byteOffset" : 28164,
      "byteLength" : 4992
    }
  ],
  "accessors" : [
    {
      "bufferView" : 0,
      "componentType" : 5123,
      "count" : 1602,
      "type" : "SCALAR"
    },
    {
      "bufferView" : 1,
      "min" : [ -0.15, -1.68682e-08, -0.9 ],
      "max" : [ 0.25, 0.6, 0.9 ],
      "componentType" : 5126,
      "count" : 624,
      "type" : "VEC3"
    },
    {
      "bufferView" : 2,
      "componentType" : 5126,
      "count" : 624,
      "type" : "VEC3"
    },
    {
      "bufferView" : 3,
      "componentType" : 5126,
      "count" : 624,
      "type" : "VEC4"
    },
    {
      "bufferView" : 4,
      "componentType" : 5126,
      "count" : 624,
      "type" : "VEC2"
    }
  ]
}
