{
  "asset" : {
    "generator" : "UE Viewer (umodel) build 1590",
    "version" : "2.0"
  },
  "scene" : 0,
  "scenes" : [
    {
      "nodes" : [ 0 ]
    }
  ],
  "nodes" : [
    {
      "name" : "SM_Brick_6x6x1s",
      "mesh" : 0
    }
  ],
  "materials" : [
    {
      "name" : "M_Brick",
      "pbrMetallicRoughness" : {
        "baseColorFactor" : [ 0.3, 0.3, 0.3, 1.0 ],
        "metallicFactor" : 0.1,
        "roughnessFactor" : 0.5
      }
    }
  ],
  "meshes" : [
    {
      "primitives" : [
        {
          "attributes" : {
            "POSITION" : 1,
            "NORMAL" : 2,
            "TANGENT" : 3,
            "TEXCOORD_0" : 4
          },
          "indices" : 0,
          "material" : 0
        }
      ],
      "name" : "SM_Brick_6x6x1s"
    }
  ],
  "buffers" : [
    {
      "uri" : "SM_Brick_6x6x1s.bin",
      "byteLength" : 166428
    }
  ],
  "bufferViews" : [
    {
      "buffer" : 0,
      "byteOffset" : 0,
      "byteLength" : 17004
    },
    {
      "buffer" : 0,
      "byteOffset" : 17004,
      "byteLength" : 37356
    },
    {
      "buffer" : 0,
      "byteOffset" : 54360,
      "byteLength" : 37356
    },
    {
      "buffer" : 0,
      "byteOffset" : 91716,
      "byteLength" : 49808
    },
    {
      "buffer" : 0,
      "byteOffset" : 141524,
      "byteLength" : 24904
    }
  ],
  "accessors" : [
    {
      "bufferView" : 0,
      "componentType" : 5123,
      "count" : 8502,
      "type" : "SCALAR"
    },
    {
      "bufferView" : 1,
      "min" : [ -0.9, -1.50443e-07, -0.9 ],
      "max" : [ 0.9, 0.15, 0.9 ],
      "componentType" : 5126,
      "count" : 3113,
      "type" : "VEC3"
    },
    {
      "bufferView" : 2,
      "componentType" : 5126,
      "count" : 3113,
      "type" : "VEC3"
    },
    {
      "bufferView" : 3,
      "componentType" : 5126,
      "count" : 3113,
      "type" : "VEC4"
    },
    {
      "bufferView" : 4,
      "componentType" : 5126,
      "count" : 3113,
      "type" : "VEC2"
    }
  ]
}
