{
  "asset" : {
    "generator" : "UE Viewer (umodel) build 1590",
    "version" : "2.0"
  },
  "scene" : 0,
  "scenes" : [
    {
      "nodes" : [ 0 ]
    }
  ],
  "nodes" : [
    {
      "name" : "SM_BrickRoundedCorner_2x2x1s",
      "mesh" : 0
    }
  ],
  "materials" : [
    {
      "name" : "M_Brick",
      "pbrMetallicRoughness" : {
        "baseColorFactor" : [ 0.3, 0.3, 0.3, 1.0 ],
        "metallicFactor" : 0.1,
        "roughnessFactor" : 0.5
      }
    }
  ],
  "meshes" : [
    {
      "primitives" : [
        {
          "attributes" : {
            "POSITION" : 1,
            "NORMAL" : 2,
            "TANGENT" : 3,
            "TEXCOORD_0" : 4
          },
          "indices" : 0,
          "material" : 0
        }
      ],
      "name" : "SM_BrickRoundedCorner_2x2x1s"
    }
  ],
  "buffers" : [
    {
      "uri" : "SM_BrickRoundedCorner_2x2x1s.bin",
      "byteLength" : 20544
    }
  ],
  "bufferViews" : [
    {
      "buffer" : 0,
      "byteOffset" : 0,
      "byteLength" : 1968
    },
    {
      "buffer" : 0,
      "byteOffset" : 1968,
      "byteLength" : 4644
    },
    {
      "buffer" : 0,
      "byteOffset" : 6612,
      "byteLength" : 4644
    },
    {
      "buffer" : 0,
      "byteOffset" : 11256,
      "byteLength" : 6192
    },
    {
      "buffer" : 0,
      "byteOffset" : 17448,
      "byteLength" : 3096
    }
  ],
  "accessors" : [
    {
      "bufferView" : 0,
      "componentType" : 5123,
      "count" : 984,
      "type" : "SCALAR"
    },
    {
      "bufferView" : 1,
      "min" : [ -0.3, -5.26909e-08, -0.3 ],
      "max" : [ 0.3, 0.15, 0.3 ],
      "componentType" : 5126,
      "count" : 387,
      "type" : "VEC3"
    },
    {
      "bufferView" : 2,
      "componentType" : 5126,
      "count" : 387,
      "type" : "VEC3"
    },
    {
      "bufferView" : 3,
      "componentType" : 5126,
      "count" : 387,
      "type" : "VEC4"
    },
    {
      "bufferView" : 4,
      "componentType" : 5126,
      "count" : 387,
      "type" : "VEC2"
    }
  ]
}
