{
  "asset" : {
    "generator" : "UE Viewer (umodel) build 1590",
    "version" : "2.0"
  },
  "scene" : 0,
  "scenes" : [
    {
      "nodes" : [ 0 ]
    }
  ],
  "nodes" : [
    {
      "name" : "SM_BrickRounded_5x1x1s",
      "mesh" : 0
    }
  ],
  "materials" : [
    {
      "name" : "M_Brick",
      "pbrMetallicRoughness" : {
        "baseColorFactor" : [ 0.3, 0.3, 0.3, 1.0 ],
        "metallicFactor" : 0.1,
        "roughnessFactor" : 0.5
      }
    }
  ],
  "meshes" : [
    {
      "primitives" : [
        {
          "attributes" : {
            "POSITION" : 1,
            "NORMAL" : 2,
            "TANGENT" : 3,
            "TEXCOORD_0" : 4
          },
          "indices" : 0,
          "material" : 0
        }
      ],
      "name" : "SM_BrickRounded_5x1x1s"
    }
  ],
  "buffers" : [
    {
      "uri" : "SM_BrickRounded_5x1x1s.bin",
      "byteLength" : 26844
    }
  ],
  "bufferViews" : [
    {
      "buffer" : 0,
      "byteOffset" : 0,
      "byteLength" : 2748
    },
    {
      "buffer" : 0,
      "byteOffset" : 2748,
      "byteLength" : 6024
    },
    {
      "buffer" : 0,
      "byteOffset" : 8772,
      "byteLength" : 6024
    },
    {
      "buffer" : 0,
      "byteOffset" : 14796,
      "byteLength" : 8032
    },
    {
      "buffer" : 0,
      "byteOffset" : 22828,
      "byteLength" : 4016
    }
  ],
  "accessors" : [
    {
      "bufferView" : 0,
      "componentType" : 5123,
      "count" : 1374,
      "type" : "SCALAR"
    },
    {
      "bufferView" : 1,
      "min" : [ -0.75, -1.20998e-08, -0.15 ],
      "max" : [ 0.75, 0.15, 0.15 ],
      "componentType" : 5126,
      "count" : 502,
      "type" : "VEC3"
    },
    {
      "bufferView" : 2,
      "componentType" : 5126,
      "count" : 502,
      "type" : "VEC3"
    },
    {
      "bufferView" : 3,
      "componentType" : 5126,
      "count" : 502,
      "type" : "VEC4"
    },
    {
      "bufferView" : 4,
      "componentType" : 5126,
      "count" : 502,
      "type" : "VEC2"
    }
  ]
}
