{
  "asset" : {
    "generator" : "UE Viewer (umodel) build 1590",
    "version" : "2.0"
  },
  "scene" : 0,
  "scenes" : [
    {
      "nodes" : [ 0 ]
    }
  ],
  "nodes" : [
    {
      "name" : "SM_Brick_5x2x1s",
      "mesh" : 0
    }
  ],
  "materials" : [
    {
      "name" : "M_Brick",
      "pbrMetallicRoughness" : {
        "baseColorFactor" : [ 0.3, 0.3, 0.3, 1.0 ],
        "metallicFactor" : 0.1,
        "roughnessFactor" : 0.5
      }
    }
  ],
  "meshes" : [
    {
      "primitives" : [
        {
          "attributes" : {
            "POSITION" : 1,
            "NORMAL" : 2,
            "TANGENT" : 3,
            "TEXCOORD_0" : 4
          },
          "indices" : 0,
          "material" : 0
        }
      ],
      "name" : "SM_Brick_5x2x1s"
    }
  ],
  "buffers" : [
    {
      "uri" : "SM_Brick_5x2x1s.bin",
      "byteLength" : 40128
    }
  ],
  "bufferViews" : [
    {
      "buffer" : 0,
      "byteOffset" : 0,
      "byteLength" : 4032
    },
    {
      "buffer" : 0,
      "byteOffset" : 4032,
      "byteLength" : 9024
    },
    {
      "buffer" : 0,
      "byteOffset" : 13056,
      "byteLength" : 9024
    },
    {
      "buffer" : 0,
      "byteOffset" : 22080,
      "byteLength" : 12032
    },
    {
      "buffer" : 0,
      "byteOffset" : 34112,
      "byteLength" : 6016
    }
  ],
  "accessors" : [
    {
      "bufferView" : 0,
      "componentType" : 5123,
      "count" : 2016,
      "type" : "SCALAR"
    },
    {
      "bufferView" : 1,
      "min" : [ -0.75, -1.59203e-07, -0.3 ],
      "max" : [ 0.75, 0.15, 0.3 ],
      "componentType" : 5126,
      "count" : 752,
      "type" : "VEC3"
    },
    {
      "bufferView" : 2,
      "componentType" : 5126,
      "count" : 752,
      "type" : "VEC3"
    },
    {
      "bufferView" : 3,
      "componentType" : 5126,
      "count" : 752,
      "type" : "VEC4"
    },
    {
      "bufferView" : 4,
      "componentType" : 5126,
      "count" : 752,
      "type" : "VEC2"
    }
  ]
}
