{
  "asset" : {
    "generator" : "UE Viewer (umodel) build 1590",
    "version" : "2.0"
  },
  "scene" : 0,
  "scenes" : [
    {
      "nodes" : [ 0 ]
    }
  ],
  "nodes" : [
    {
      "name" : "SM_Brick_10x1x1s",
      "mesh" : 0
    }
  ],
  "materials" : [
    {
      "name" : "M_Brick",
      "pbrMetallicRoughness" : {
        "baseColorFactor" : [ 0.3, 0.3, 0.3, 1.0 ],
        "metallicFactor" : 0.1,
        "roughnessFactor" : 0.5
      }
    }
  ],
  "meshes" : [
    {
      "primitives" : [
        {
          "attributes" : {
            "POSITION" : 1,
            "NORMAL" : 2,
            "TANGENT" : 3,
            "TEXCOORD_0" : 4
          },
          "indices" : 0,
          "material" : 0
        }
      ],
      "name" : "SM_Brick_10x1x1s"
    }
  ],
  "buffers" : [
    {
      "uri" : "SM_Brick_10x1x1s.bin",
      "byteLength" : 41652
    }
  ],
  "bufferViews" : [
    {
      "buffer" : 0,
      "byteOffset" : 0,
      "byteLength" : 4116
    },
    {
      "buffer" : 0,
      "byteOffset" : 4116,
      "byteLength" : 9384
    },
    {
      "buffer" : 0,
      "byteOffset" : 13500,
      "byteLength" : 9384
    },
    {
      "buffer" : 0,
      "byteOffset" : 22884,
      "byteLength" : 12512
    },
    {
      "buffer" : 0,
      "byteOffset" : 35396,
      "byteLength" : 6256
    }
  ],
  "accessors" : [
    {
      "bufferView" : 0,
      "componentType" : 5123,
      "count" : 2058,
      "type" : "SCALAR"
    },
    {
      "bufferView" : 1,
      "min" : [ -1.5, -2.82528e-08, -0.15 ],
      "max" : [ 1.5, 0.15, 0.15 ],
      "componentType" : 5126,
      "count" : 782,
      "type" : "VEC3"
    },
    {
      "bufferView" : 2,
      "componentType" : 5126,
      "count" : 782,
      "type" : "VEC3"
    },
    {
      "bufferView" : 3,
      "componentType" : 5126,
      "count" : 782,
      "type" : "VEC4"
    },
    {
      "bufferView" : 4,
      "componentType" : 5126,
      "count" : 782,
      "type" : "VEC2"
    }
  ]
}
