{
  "asset" : {
    "generator" : "UE Viewer (umodel) build 1590",
    "version" : "2.0"
  },
  "scene" : 0,
  "scenes" : [
    {
      "nodes" : [ 0 ]
    }
  ],
  "nodes" : [
    {
      "name" : "SM_Brick_8x1x1s",
      "mesh" : 0
    }
  ],
  "materials" : [
    {
      "name" : "M_Brick",
      "pbrMetallicRoughness" : {
        "baseColorFactor" : [ 0.3, 0.3, 0.3, 1.0 ],
        "metallicFactor" : 0.1,
        "roughnessFactor" : 0.5
      }
    }
  ],
  "meshes" : [
    {
      "primitives" : [
        {
          "attributes" : {
            "POSITION" : 1,
            "NORMAL" : 2,
            "TANGENT" : 3,
            "TEXCOORD_0" : 4
          },
          "indices" : 0,
          "material" : 0
        }
      ],
      "name" : "SM_Brick_8x1x1s"
    }
  ],
  "buffers" : [
    {
      "uri" : "SM_Brick_8x1x1s.bin",
      "byteLength" : 33540
    }
  ],
  "bufferViews" : [
    {
      "buffer" : 0,
      "byteOffset" : 0,
      "byteLength" : 3300
    },
    {
      "buffer" : 0,
      "byteOffset" : 3300,
      "byteLength" : 7560
    },
    {
      "buffer" : 0,
      "byteOffset" : 10860,
      "byteLength" : 7560
    },
    {
      "buffer" : 0,
      "byteOffset" : 18420,
      "byteLength" : 10080
    },
    {
      "buffer" : 0,
      "byteOffset" : 28500,
      "byteLength" : 5040
    }
  ],
  "accessors" : [
    {
      "bufferView" : 0,
      "componentType" : 5123,
      "count" : 1650,
      "type" : "SCALAR"
    },
    {
      "bufferView" : 1,
      "min" : [ -1.2, -2.82528e-08, -0.15 ],
      "max" : [ 1.2, 0.15, 0.15 ],
      "componentType" : 5126,
      "count" : 630,
      "type" : "VEC3"
    },
    {
      "bufferView" : 2,
      "componentType" : 5126,
      "count" : 630,
      "type" : "VEC3"
    },
    {
      "bufferView" : 3,
      "componentType" : 5126,
      "count" : 630,
      "type" : "VEC4"
    },
    {
      "bufferView" : 4,
      "componentType" : 5126,
      "count" : 630,
      "type" : "VEC2"
    }
  ]
}
