{
  "asset" : {
    "generator" : "UE Viewer (umodel) build 1590",
    "version" : "2.0"
  },
  "scene" : 0,
  "scenes" : [
    {
      "nodes" : [ 0 ]
    }
  ],
  "nodes" : [
    {
      "name" : "SM_Brick_10x2x1s_Flat",
      "mesh" : 0
    }
  ],
  "materials" : [
    {
      "name" : "M_Brick",
      "pbrMetallicRoughness" : {
        "baseColorFactor" : [ 0.3, 0.3, 0.3, 1.0 ],
        "metallicFactor" : 0.1,
        "roughnessFactor" : 0.5
      }
    }
  ],
  "meshes" : [
    {
      "primitives" : [
        {
          "attributes" : {
            "POSITION" : 1,
            "NORMAL" : 2,
            "TANGENT" : 3,
            "TEXCOORD_0" : 4
          },
          "indices" : 0,
          "material" : 0
        }
      ],
      "name" : "SM_Brick_10x2x1s_Flat"
    }
  ],
  "buffers" : [
    {
      "uri" : "SM_Brick_10x2x1s_Flat.bin",
      "byteLength" : 26940
    }
  ],
  "bufferViews" : [
    {
      "buffer" : 0,
      "byteOffset" : 0,
      "byteLength" : 2652
    },
    {
      "buffer" : 0,
      "byteOffset" : 2652,
      "byteLength" : 6072
    },
    {
      "buffer" : 0,
      "byteOffset" : 8724,
      "byteLength" : 6072
    },
    {
      "buffer" : 0,
      "byteOffset" : 14796,
      "byteLength" : 8096
    },
    {
      "buffer" : 0,
      "byteOffset" : 22892,
      "byteLength" : 4048
    }
  ],
  "accessors" : [
    {
      "bufferView" : 0,
      "componentType" : 5123,
      "count" : 1326,
      "type" : "SCALAR"
    },
    {
      "bufferView" : 1,
      "min" : [ -1.5, -3.85697e-07, -0.3 ],
      "max" : [ 1.5, 0.1, 0.3 ],
      "componentType" : 5126,
      "count" : 506,
      "type" : "VEC3"
    },
    {
      "bufferView" : 2,
      "componentType" : 5126,
      "count" : 506,
      "type" : "VEC3"
    },
    {
      "bufferView" : 3,
      "componentType" : 5126,
      "count" : 506,
      "type" : "VEC4"
    },
    {
      "bufferView" : 4,
      "componentType" : 5126,
      "count" : 506,
      "type" : "VEC2"
    }
  ]
}
