{
  "asset" : {
    "generator" : "UE Viewer (umodel) build 1590",
    "version" : "2.0"
  },
  "scene" : 0,
  "scenes" : [
    {
      "nodes" : [ 0 ]
    }
  ],
  "nodes" : [
    {
      "name" : "SM_Brick_10x6x1s_Flat",
      "mesh" : 0
    }
  ],
  "materials" : [
    {
      "name" : "M_Brick",
      "pbrMetallicRoughness" : {
        "baseColorFactor" : [ 0.3, 0.3, 0.3, 1.0 ],
        "metallicFactor" : 0.1,
        "roughnessFactor" : 0.5
      }
    }
  ],
  "meshes" : [
    {
      "primitives" : [
        {
          "attributes" : {
            "POSITION" : 1,
            "NORMAL" : 2,
            "TANGENT" : 3,
            "TEXCOORD_0" : 4
          },
          "indices" : 0,
          "material" : 0
        }
      ],
      "name" : "SM_Brick_10x6x1s_Flat"
    }
  ],
  "buffers" : [
    {
      "uri" : "SM_Brick_10x6x1s_Flat.bin",
      "byteLength" : 123324
    }
  ],
  "bufferViews" : [
    {
      "buffer" : 0,
      "byteOffset" : 0,
      "byteLength" : 12588
    },
    {
      "buffer" : 0,
      "byteOffset" : 12588,
      "byteLength" : 27684
    },
    {
      "buffer" : 0,
      "byteOffset" : 40272,
      "byteLength" : 27684
    },
    {
      "buffer" : 0,
      "byteOffset" : 67956,
      "byteLength" : 36912
    },
    {
      "buffer" : 0,
      "byteOffset" : 104868,
      "byteLength" : 18456
    }
  ],
  "accessors" : [
    {
      "bufferView" : 0,
      "componentType" : 5123,
      "count" : 6294,
      "type" : "SCALAR"
    },
    {
      "bufferView" : 1,
      "min" : [ -1.5, -1.50443e-07, -0.9 ],
      "max" : [ 1.5, 0.1, 0.9 ],
      "componentType" : 5126,
      "count" : 2307,
      "type" : "VEC3"
    },
    {
      "bufferView" : 2,
      "componentType" : 5126,
      "count" : 2307,
      "type" : "VEC3"
    },
    {
      "bufferView" : 3,
      "componentType" : 5126,
      "count" : 2307,
      "type" : "VEC4"
    },
    {
      "bufferView" : 4,
      "componentType" : 5126,
      "count" : 2307,
      "type" : "VEC2"
    }
  ]
}
