{
  "asset" : {
    "generator" : "UE Viewer (umodel) build 1590",
    "version" : "2.0"
  },
  "scene" : 0,
  "scenes" : [
    {
      "nodes" : [ 0 ]
    }
  ],
  "nodes" : [
    {
      "name" : "SM_Brick_10x2x1s",
      "mesh" : 0
    }
  ],
  "materials" : [
    {
      "name" : "M_Brick",
      "pbrMetallicRoughness" : {
        "baseColorFactor" : [ 0.3, 0.3, 0.3, 1.0 ],
        "metallicFactor" : 0.1,
        "roughnessFactor" : 0.5
      }
    }
  ],
  "meshes" : [
    {
      "primitives" : [
        {
          "attributes" : {
            "POSITION" : 1,
            "NORMAL" : 2,
            "TANGENT" : 3,
            "TEXCOORD_0" : 4
          },
          "indices" : 0,
          "material" : 0
        }
      ],
      "name" : "SM_Brick_10x2x1s"
    }
  ],
  "buffers" : [
    {
      "uri" : "SM_Brick_10x2x1s.bin",
      "byteLength" : 80460
    }
  ],
  "bufferViews" : [
    {
      "buffer" : 0,
      "byteOffset" : 0,
      "byteLength" : 8172
    },
    {
      "buffer" : 0,
      "byteOffset" : 8172,
      "byteLength" : 18072
    },
    {
      "buffer" : 0,
      "byteOffset" : 26244,
      "byteLength" : 18072
    },
    {
      "buffer" : 0,
      "byteOffset" : 44316,
      "byteLength" : 24096
    },
    {
      "buffer" : 0,
      "byteOffset" : 68412,
      "byteLength" : 12048
    }
  ],
  "accessors" : [
    {
      "bufferView" : 0,
      "componentType" : 5123,
      "count" : 4086,
      "type" : "SCALAR"
    },
    {
      "bufferView" : 1,
      "min" : [ -1.5, -3.85697e-07, -0.3 ],
      "max" : [ 1.5, 0.15, 0.3 ],
      "componentType" : 5126,
      "count" : 1506,
      "type" : "VEC3"
    },
    {
      "bufferView" : 2,
      "componentType" : 5126,
      "count" : 1506,
      "type" : "VEC3"
    },
    {
      "bufferView" : 3,
      "componentType" : 5126,
      "count" : 1506,
      "type" : "VEC4"
    },
    {
      "bufferView" : 4,
      "componentType" : 5126,
      "count" : 1506,
      "type" : "VEC2"
    }
  ]
}
