{
  "asset" : {
    "generator" : "UE Viewer (umodel) build 1590",
    "version" : "2.0"
  },
  "scene" : 0,
  "scenes" : [
    {
      "nodes" : [ 0 ]
    }
  ],
  "nodes" : [
    {
      "name" : "SM_Brick_6x2x1s",
      "mesh" : 0
    }
  ],
  "materials" : [
    {
      "name" : "M_Brick",
      "pbrMetallicRoughness" : {
        "baseColorFactor" : [ 0.3, 0.3, 0.3, 1.0 ],
        "metallicFactor" : 0.1,
        "roughnessFactor" : 0.5
      }
    }
  ],
  "meshes" : [
    {
      "primitives" : [
        {
          "attributes" : {
            "POSITION" : 1,
            "NORMAL" : 2,
            "TANGENT" : 3,
            "TEXCOORD_0" : 4
          },
          "indices" : 0,
          "material" : 0
        }
      ],
      "name" : "SM_Brick_6x2x1s"
    }
  ],
  "buffers" : [
    {
      "uri" : "SM_Brick_6x2x1s.bin",
      "byteLength" : 48060
    }
  ],
  "bufferViews" : [
    {
      "buffer" : 0,
      "byteOffset" : 0,
      "byteLength" : 4860
    },
    {
      "buffer" : 0,
      "byteOffset" : 4860,
      "byteLength" : 10800
    },
    {
      "buffer" : 0,
      "byteOffset" : 15660,
      "byteLength" : 10800
    },
    {
      "buffer" : 0,
      "byteOffset" : 26460,
      "byteLength" : 14400
    },
    {
      "buffer" : 0,
      "byteOffset" : 40860,
      "byteLength" : 7200
    }
  ],
  "accessors" : [
    {
      "bufferView" : 0,
      "componentType" : 5123,
      "count" : 2430,
      "type" : "SCALAR"
    },
    {
      "bufferView" : 1,
      "min" : [ -0.9, -2.04502e-07, -0.3 ],
      "max" : [ 0.9, 0.15, 0.3 ],
      "componentType" : 5126,
      "count" : 900,
      "type" : "VEC3"
    },
    {
      "bufferView" : 2,
      "componentType" : 5126,
      "count" : 900,
      "type" : "VEC3"
    },
    {
      "bufferView" : 3,
      "componentType" : 5126,
      "count" : 900,
      "type" : "VEC4"
    },
    {
      "bufferView" : 4,
      "componentType" : 5126,
      "count" : 900,
      "type" : "VEC2"
    }
  ]
}
