{
  "asset" : {
    "generator" : "UE Viewer (umodel) build 1590",
    "version" : "2.0"
  },
  "scene" : 0,
  "scenes" : [
    {
      "nodes" : [ 0 ]
    }
  ],
  "nodes" : [
    {
      "name" : "SM_Brick_5x1x1",
      "mesh" : 0
    }
  ],
  "materials" : [
    {
      "name" : "M_Brick",
      "pbrMetallicRoughness" : {
        "baseColorFactor" : [ 0.3, 0.3, 0.3, 1.0 ],
        "metallicFactor" : 0.1,
        "roughnessFactor" : 0.5
      }
    }
  ],
  "meshes" : [
    {
      "primitives" : [
        {
          "attributes" : {
            "POSITION" : 1,
            "NORMAL" : 2,
            "TANGENT" : 3,
            "TEXCOORD_0" : 4
          },
          "indices" : 0,
          "material" : 0
        }
      ],
      "name" : "SM_Brick_5x1x1"
    }
  ],
  "buffers" : [
    {
      "uri" : "SM_Brick_5x1x1.bin",
      "byteLength" : 21372
    }
  ],
  "bufferViews" : [
    {
      "buffer" : 0,
      "byteOffset" : 0,
      "byteLength" : 2076
    },
    {
      "buffer" : 0,
      "byteOffset" : 2076,
      "byteLength" : 4824
    },
    {
      "buffer" : 0,
      "byteOffset" : 6900,
      "byteLength" : 4824
    },
    {
      "buffer" : 0,
      "byteOffset" : 11724,
      "byteLength" : 6432
    },
    {
      "buffer" : 0,
      "byteOffset" : 18156,
      "byteLength" : 3216
    }
  ],
  "accessors" : [
    {
      "bufferView" : 0,
      "componentType" : 5123,
      "count" : 1038,
      "type" : "SCALAR"
    },
    {
      "bufferView" : 1,
      "min" : [ -0.75, -4.76837e-09, -0.15 ],
      "max" : [ 0.75, 0.35, 0.15 ],
      "componentType" : 5126,
      "count" : 402,
      "type" : "VEC3"
    },
    {
      "bufferView" : 2,
      "componentType" : 5126,
      "count" : 402,
      "type" : "VEC3"
    },
    {
      "bufferView" : 3,
      "componentType" : 5126,
      "count" : 402,
      "type" : "VEC4"
    },
    {
      "bufferView" : 4,
      "componentType" : 5126,
      "count" : 402,
      "type" : "VEC2"
    }
  ]
}
