{
  "asset" : {
    "generator" : "UE Viewer (umodel) build 1590",
    "version" : "2.0"
  },
  "scene" : 0,
  "scenes" : [
    {
      "nodes" : [ 0 ]
    }
  ],
  "nodes" : [
    {
      "name" : "SM_Brick_16x8x1s",
      "mesh" : 0
    }
  ],
  "materials" : [
    {
      "name" : "M_Brick",
      "pbrMetallicRoughness" : {
        "baseColorFactor" : [ 0.3, 0.3, 0.3, 1.0 ],
        "metallicFactor" : 0.1,
        "roughnessFactor" : 0.5
      }
    }
  ],
  "meshes" : [
    {
      "primitives" : [
        {
          "attributes" : {
            "POSITION" : 1,
            "NORMAL" : 2,
            "TANGENT" : 3,
            "TEXCOORD_0" : 4
          },
          "indices" : 0,
          "material" : 0
        }
      ],
      "name" : "SM_Brick_16x8x1s"
    }
  ],
  "buffers" : [
    {
      "uri" : "SM_Brick_16x8x1s.bin",
      "byteLength" : 353868
    }
  ],
  "bufferViews" : [
    {
      "buffer" : 0,
      "byteOffset" : 0,
      "byteLength" : 30924
    },
    {
      "buffer" : 0,
      "byteOffset" : 30924,
      "byteLength" : 80736
    },
    {
      "buffer" : 0,
      "byteOffset" : 111660,
      "byteLength" : 80736
    },
    {
      "buffer" : 0,
      "byteOffset" : 192396,
      "byteLength" : 107648
    },
    {
      "buffer" : 0,
      "byteOffset" : 300044,
      "byteLength" : 53824
    }
  ],
  "accessors" : [
    {
      "bufferView" : 0,
      "componentType" : 5123,
      "count" : 15462,
      "type" : "SCALAR"
    },
    {
      "bufferView" : 1,
      "min" : [ -2.4, -1.99319e-07, -1.2 ],
      "max" : [ 2.4, 0.15, 1.2 ],
      "componentType" : 5126,
      "count" : 6728,
      "type" : "VEC3"
    },
    {
      "bufferView" : 2,
      "componentType" : 5126,
      "count" : 6728,
      "type" : "VEC3"
    },
    {
      "bufferView" : 3,
      "componentType" : 5126,
      "count" : 6728,
      "type" : "VEC4"
    },
    {
      "bufferView" : 4,
      "componentType" : 5126,
      "count" : 6728,
      "type" : "VEC2"
    }
  ]
}
