{
  "asset" : {
    "generator" : "UE Viewer (umodel) build 1590",
    "version" : "2.0"
  },
  "scene" : 0,
  "scenes" : [
    {
      "nodes" : [ 0 ]
    }
  ],
  "nodes" : [
    {
      "name" : "SM_Barrel_1x1x4",
      "mesh" : 0
    }
  ],
  "materials" : [
    {
      "name" : "M_Brick",
      "pbrMetallicRoughness" : {
        "baseColorFactor" : [ 0.3, 0.3, 0.3, 1.0 ],
        "metallicFactor" : 0.1,
        "roughnessFactor" : 0.5
      }
    }
  ],
  "meshes" : [
    {
      "primitives" : [
        {
          "attributes" : {
            "POSITION" : 1,
            "NORMAL" : 2,
            "TANGENT" : 3,
            "TEXCOORD_0" : 4
          },
          "indices" : 0,
          "material" : 0
        }
      ],
      "name" : "SM_Barrel_1x1x4"
    }
  ],
  "buffers" : [
    {
      "uri" : "SM_Barrel_1x1x4.bin",
      "byteLength" : 42240
    }
  ],
  "bufferViews" : [
    {
      "buffer" : 0,
      "byteOffset" : 0,
      "byteLength" : 3840
    },
    {
      "buffer" : 0,
      "byteOffset" : 3840,
      "byteLength" : 9600
    },
    {
      "buffer" : 0,
      "byteOffset" : 13440,
      "byteLength" : 9600
    },
    {
      "buffer" : 0,
      "byteOffset" : 23040,
      "byteLength" : 12800
    },
    {
      "buffer" : 0,
      "byteOffset" : 35840,
      "byteLength" : 6400
    }
  ],
  "accessors" : [
    {
      "bufferView" : 0,
      "componentType" : 5123,
      "count" : 1920,
      "type" : "SCALAR"
    },
    {
      "bufferView" : 1,
      "min" : [ -0.15, -0.05, -0.15 ],
      "max" : [ 0.2, 1.2, 0.15 ],
      "componentType" : 5126,
      "count" : 800,
      "type" : "VEC3"
    },
    {
      "bufferView" : 2,
      "componentType" : 5126,
      "count" : 800,
      "type" : "VEC3"
    },
    {
      "bufferView" : 3,
      "componentType" : 5126,
      "count" : 800,
      "type" : "VEC4"
    },
    {
      "bufferView" : 4,
      "componentType" : 5126,
      "count" : 800,
      "type" : "VEC2"
    }
  ]
}
