{
  "asset" : {
    "generator" : "UE Viewer (umodel) build 1590",
    "version" : "2.0"
  },
  "scene" : 0,
  "scenes" : [
    {
      "nodes" : [ 0 ]
    }
  ],
  "nodes" : [
    {
      "name" : "SM_Brick_6x2x1",
      "mesh" : 0
    }
  ],
  "materials" : [
    {
      "name" : "M_Brick",
      "pbrMetallicRoughness" : {
        "baseColorFactor" : [ 0.3, 0.3, 0.3, 1.0 ],
        "metallicFactor" : 0.1,
        "roughnessFactor" : 0.5
      }
    }
  ],
  "meshes" : [
    {
      "primitives" : [
        {
          "attributes" : {
            "POSITION" : 1,
            "NORMAL" : 2,
            "TANGENT" : 3,
            "TEXCOORD_0" : 4
          },
          "indices" : 0,
          "material" : 0
        }
      ],
      "name" : "SM_Brick_6x2x1"
    }
  ],
  "buffers" : [
    {
      "uri" : "SM_Brick_6x2x1.bin",
      "byteLength" : 47964
    }
  ],
  "bufferViews" : [
    {
      "buffer" : 0,
      "byteOffset" : 0,
      "byteLength" : 4860
    },
    {
      "buffer" : 0,
      "byteOffset" : 4860,
      "byteLength" : 10776
    },
    {
      "buffer" : 0,
      "byteOffset" : 15636,
      "byteLength" : 10776
    },
    {
      "buffer" : 0,
      "byteOffset" : 26412,
      "byteLength" : 14368
    },
    {
      "buffer" : 0,
      "byteOffset" : 40780,
      "byteLength" : 7184
    }
  ],
  "accessors" : [
    {
      "bufferView" : 0,
      "componentType" : 5123,
      "count" : 2430,
      "type" : "SCALAR"
    },
    {
      "bufferView" : 1,
      "min" : [ -0.9, -5.26909e-08, -0.3 ],
      "max" : [ 0.9, 0.35, 0.3 ],
      "componentType" : 5126,
      "count" : 898,
      "type" : "VEC3"
    },
    {
      "bufferView" : 2,
      "componentType" : 5126,
      "count" : 898,
      "type" : "VEC3"
    },
    {
      "bufferView" : 3,
      "componentType" : 5126,
      "count" : 898,
      "type" : "VEC4"
    },
    {
      "bufferView" : 4,
      "componentType" : 5126,
      "count" : 898,
      "type" : "VEC2"
    }
  ]
}
