{
  "asset" : {
    "generator" : "UE Viewer (umodel) build 1590",
    "version" : "2.0"
  },
  "scene" : 0,
  "scenes" : [
    {
      "nodes" : [ 0 ]
    }
  ],
  "nodes" : [
    {
      "name" : "SM_CornerRamp_4x3x1_L",
      "mesh" : 0
    }
  ],
  "materials" : [
    {
      "name" : "M_Brick",
      "pbrMetallicRoughness" : {
        "baseColorFactor" : [ 0.3, 0.3, 0.3, 1.0 ],
        "metallicFactor" : 0.1,
        "roughnessFactor" : 0.5
      }
    }
  ],
  "meshes" : [
    {
      "primitives" : [
        {
          "attributes" : {
            "POSITION" : 1,
            "NORMAL" : 2,
            "TANGENT" : 3,
            "COLOR_0" : 4,
            "TEXCOORD_0" : 5,
            "TEXCOORD_1" : 6
          },
          "indices" : 0,
          "material" : 0
        }
      ],
      "name" : "SM_CornerRamp_4x3x1_L"
    }
  ],
  "buffers" : [
    {
      "uri" : "SM_CornerRamp_4x3x1_L.bin",
      "byteLength" : 26232
    }
  ],
  "bufferViews" : [
    {
      "buffer" : 0,
      "byteOffset" : 0,
      "byteLength" : 1992
    },
    {
      "buffer" : 0,
      "byteOffset" : 1992,
      "byteLength" : 4848
    },
    {
      "buffer" : 0,
      "byteOffset" : 6840,
      "byteLength" : 4848
    },
    {
      "buffer" : 0,
      "byteOffset" : 11688,
      "byteLength" : 6464
    },
    {
      "buffer" : 0,
      "byteOffset" : 18152,
      "byteLength" : 1616
    },
    {
      "buffer" : 0,
      "byteOffset" : 19768,
      "byteLength" : 3232
    },
    {
      "buffer" : 0,
      "byteOffset" : 23000,
      "byteLength" : 3232
    }
  ],
  "accessors" : [
    {
      "bufferView" : 0,
      "componentType" : 5123,
      "count" : 996,
      "type" : "SCALAR"
    },
    {
      "bufferView" : 1,
      "min" : [ -0.6, -2.21489e-07, -0.45 ],
      "max" : [ 0.6, 0.35, 0.45 ],
      "componentType" : 5126,
      "count" : 404,
      "type" : "VEC3"
    },
    {
      "bufferView" : 2,
      "componentType" : 5126,
      "count" : 404,
      "type" : "VEC3"
    },
    {
      "bufferView" : 3,
      "componentType" : 5126,
      "count" : 404,
      "type" : "VEC4"
    },
    {
      "bufferView" : 4,
      "normalized" : true,
      "componentType" : 5121,
      "count" : 404,
      "type" : "VEC4"
    },
    {
      "bufferView" : 5,
      "componentType" : 5126,
      "count" : 404,
      "type" : "VEC2"
    },
    {
      "bufferView" : 6,
      "componentType" : 5126,
      "count" : 404,
      "type" : "VEC2"
    }
  ]
}
