{
  "asset" : {
    "generator" : "UE Viewer (umodel) build 1590",
    "version" : "2.0"
  },
  "scene" : 0,
  "scenes" : [
    {
      "nodes" : [ 0 ]
    }
  ],
  "nodes" : [
    {
      "name" : "SM_Camera_2x1x1",
      "mesh" : 0
    }
  ],
  "materials" : [
    {
      "name" : "M_Brick",
      "pbrMetallicRoughness" : {
        "baseColorFactor" : [ 0.3, 0.3, 0.3, 1.0 ],
        "metallicFactor" : 0.1,
        "roughnessFactor" : 0.5
      }
    },
    {
      "name" : "M_Lense_Round_Blue",
      "pbrMetallicRoughness" : {
        "baseColorFactor" : [ 0.9, 0.3, 0.3, 1.0 ],
        "metallicFactor" : 0.1,
        "roughnessFactor" : 0.5
      }
    }
  ],
  "meshes" : [
    {
      "primitives" : [
        {
          "attributes" : {
            "POSITION" : 1,
            "NORMAL" : 2,
            "TANGENT" : 3,
            "TEXCOORD_0" : 4
          },
          "indices" : 0,
          "material" : 0
        },
        {
          "attributes" : {
            "POSITION" : 6,
            "NORMAL" : 7,
            "TANGENT" : 8,
            "TEXCOORD_0" : 9
          },
          "indices" : 5,
          "material" : 1
        }
      ],
      "name" : "SM_Camera_2x1x1"
    }
  ],
  "buffers" : [
    {
      "uri" : "SM_Camera_2x1x1.bin",
      "byteLength" : 15432
    }
  ],
  "bufferViews" : [
    {
      "buffer" : 0,
      "byteOffset" : 0,
      "byteLength" : 1428
    },
    {
      "buffer" : 0,
      "byteOffset" : 1428,
      "byteLength" : 3288
    },
    {
      "buffer" : 0,
      "byteOffset" : 4716,
      "byteLength" : 3288
    },
    {
      "buffer" : 0,
      "byteOffset" : 8004,
      "byteLength" : 4384
    },
    {
      "buffer" : 0,
      "byteOffset" : 12388,
      "byteLength" : 2192
    },
    {
      "buffer" : 0,
      "byteOffset" : 14580,
      "byteLength" : 84
    },
    {
      "buffer" : 0,
      "byteOffset" : 14664,
      "byteLength" : 192
    },
    {
      "buffer" : 0,
      "byteOffset" : 14856,
      "byteLength" : 192
    },
    {
      "buffer" : 0,
      "byteOffset" : 15048,
      "byteLength" : 256
    },
    {
      "buffer" : 0,
      "byteOffset" : 15304,
      "byteLength" : 128
    }
  ],
  "accessors" : [
    {
      "bufferView" : 0,
      "componentType" : 5123,
      "count" : 714,
      "type" : "SCALAR"
    },
    {
      "bufferView" : 1,
      "min" : [ -0.3, -2.82528e-08, -0.15 ],
      "max" : [ 0.4, 0.35, 0.15 ],
      "componentType" : 5126,
      "count" : 274,
      "type" : "VEC3"
    },
    {
      "bufferView" : 2,
      "componentType" : 5126,
      "count" : 274,
      "type" : "VEC3"
    },
    {
      "bufferView" : 3,
      "componentType" : 5126,
      "count" : 274,
      "type" : "VEC4"
    },
    {
      "bufferView" : 4,
      "componentType" : 5126,
      "count" : 274,
      "type" : "VEC2"
    },
    {
      "bufferView" : 5,
      "componentType" : 5123,
      "count" : 42,
      "type" : "SCALAR"
    },
    {
      "bufferView" : 6,
      "min" : [ 0.35, 0.0653918, -0.0846082 ],
      "max" : [ 0.35, 0.234608, 0.0846082 ],
      "componentType" : 5126,
      "count" : 16,
      "type" : "VEC3"
    },
    {
      "bufferView" : 7,
      "componentType" : 5126,
      "count" : 16,
      "type" : "VEC3"
    },
    {
      "bufferView" : 8,
      "componentType" : 5126,
      "count" : 16,
      "type" : "VEC4"
    },
    {
      "bufferView" : 9,
      "componentType" : 5126,
      "count" : 16,
      "type" : "VEC2"
    }
  ]
}
