{
  "asset" : {
    "generator" : "UE Viewer (umodel) build 1590",
    "version" : "2.0"
  },
  "scene" : 0,
  "scenes" : [
    {
      "nodes" : [ 0 ]
    }
  ],
  "nodes" : [
    {
      "name" : "SM_Coupling_2x2x1s_Front_Male",
      "mesh" : 0
    }
  ],
  "materials" : [
    {
      "name" : "M_Brick",
      "pbrMetallicRoughness" : {
        "baseColorFactor" : [ 0.3, 0.3, 0.3, 1.0 ],
        "metallicFactor" : 0.1,
        "roughnessFactor" : 0.5
      }
    }
  ],
  "meshes" : [
    {
      "primitives" : [
        {
          "attributes" : {
            "POSITION" : 1,
            "NORMAL" : 2,
            "TANGENT" : 3,
            "TEXCOORD_0" : 4
          },
          "indices" : 0,
          "material" : 0
        }
      ],
      "name" : "SM_Coupling_2x2x1s_Front_Male"
    }
  ],
  "buffers" : [
    {
      "uri" : "SM_Coupling_2x2x1s_Front_Male.bin",
      "byteLength" : 26028
    }
  ],
  "bufferViews" : [
    {
      "buffer" : 0,
      "byteOffset" : 0,
      "byteLength" : 2940
    },
    {
      "buffer" : 0,
      "byteOffset" : 2940,
      "byteLength" : 5772
    },
    {
      "buffer" : 0,
      "byteOffset" : 8712,
      "byteLength" : 5772
    },
    {
      "buffer" : 0,
      "byteOffset" : 14484,
      "byteLength" : 7696
    },
    {
      "buffer" : 0,
      "byteOffset" : 22180,
      "byteLength" : 3848
    }
  ],
  "accessors" : [
    {
      "bufferView" : 0,
      "componentType" : 5123,
      "count" : 1470,
      "type" : "SCALAR"
    },
    {
      "bufferView" : 1,
      "min" : [ -0.3, -0.0500001, -0.3 ],
      "max" : [ 0.542388, 0.15, 0.3 ],
      "componentType" : 5126,
      "count" : 481,
      "type" : "VEC3"
    },
    {
      "bufferView" : 2,
      "componentType" : 5126,
      "count" : 481,
      "type" : "VEC3"
    },
    {
      "bufferView" : 3,
      "componentType" : 5126,
      "count" : 481,
      "type" : "VEC4"
    },
    {
      "bufferView" : 4,
      "componentType" : 5126,
      "count" : 481,
      "type" : "VEC2"
    }
  ]
}
