{
  "asset" : {
    "generator" : "UE Viewer (umodel) build 1590",
    "version" : "2.0"
  },
  "scene" : 0,
  "scenes" : [
    {
      "nodes" : [ 0 ]
    }
  ],
  "nodes" : [
    {
      "name" : "SM_CornerRamp_3x3x1",
      "mesh" : 0
    }
  ],
  "materials" : [
    {
      "name" : "M_Brick",
      "pbrMetallicRoughness" : {
        "baseColorFactor" : [ 0.3, 0.3, 0.3, 1.0 ],
        "metallicFactor" : 0.1,
        "roughnessFactor" : 0.5
      }
    }
  ],
  "meshes" : [
    {
      "primitives" : [
        {
          "attributes" : {
            "POSITION" : 1,
            "NORMAL" : 2,
            "TANGENT" : 3,
            "COLOR_0" : 4,
            "TEXCOORD_0" : 5,
            "TEXCOORD_1" : 6
          },
          "indices" : 0,
          "material" : 0
        }
      ],
      "name" : "SM_CornerRamp_3x3x1"
    }
  ],
  "buffers" : [
    {
      "uri" : "SM_CornerRamp_3x3x1.bin",
      "byteLength" : 22104
    }
  ],
  "bufferViews" : [
    {
      "buffer" : 0,
      "byteOffset" : 0,
      "byteLength" : 1644
    },
    {
      "buffer" : 0,
      "byteOffset" : 1644,
      "byteLength" : 4092
    },
    {
      "buffer" : 0,
      "byteOffset" : 5736,
      "byteLength" : 4092
    },
    {
      "buffer" : 0,
      "byteOffset" : 9828,
      "byteLength" : 5456
    },
    {
      "buffer" : 0,
      "byteOffset" : 15284,
      "byteLength" : 1364
    },
    {
      "buffer" : 0,
      "byteOffset" : 16648,
      "byteLength" : 2728
    },
    {
      "buffer" : 0,
      "byteOffset" : 19376,
      "byteLength" : 2728
    }
  ],
  "accessors" : [
    {
      "bufferView" : 0,
      "componentType" : 5123,
      "count" : 822,
      "type" : "SCALAR"
    },
    {
      "bufferView" : 1,
      "min" : [ -0.45, -1.53541e-07, -0.45 ],
      "max" : [ 0.45, 0.35, 0.45 ],
      "componentType" : 5126,
      "count" : 341,
      "type" : "VEC3"
    },
    {
      "bufferView" : 2,
      "componentType" : 5126,
      "count" : 341,
      "type" : "VEC3"
    },
    {
      "bufferView" : 3,
      "componentType" : 5126,
      "count" : 341,
      "type" : "VEC4"
    },
    {
      "bufferView" : 4,
      "normalized" : true,
      "componentType" : 5121,
      "count" : 341,
      "type" : "VEC4"
    },
    {
      "bufferView" : 5,
      "componentType" : 5126,
      "count" : 341,
      "type" : "VEC2"
    },
    {
      "bufferView" : 6,
      "componentType" : 5126,
      "count" : 341,
      "type" : "VEC2"
    }
  ]
}
