{
  "asset" : {
    "generator" : "UE Viewer (umodel) build 1590",
    "version" : "2.0"
  },
  "scene" : 0,
  "scenes" : [
    {
      "nodes" : [ 0 ]
    }
  ],
  "nodes" : [
    {
      "name" : "SM_Coupling_2x2x1s_Male",
      "mesh" : 0
    }
  ],
  "materials" : [
    {
      "name" : "M_Brick",
      "pbrMetallicRoughness" : {
        "baseColorFactor" : [ 0.3, 0.3, 0.3, 1.0 ],
        "metallicFactor" : 0.1,
        "roughnessFactor" : 0.5
      }
    }
  ],
  "meshes" : [
    {
      "primitives" : [
        {
          "attributes" : {
            "POSITION" : 1,
            "NORMAL" : 2,
            "TANGENT" : 3,
            "TEXCOORD_0" : 4
          },
          "indices" : 0,
          "material" : 0
        }
      ],
      "name" : "SM_Coupling_2x2x1s_Male"
    }
  ],
  "buffers" : [
    {
      "uri" : "SM_Coupling_2x2x1s_Male.bin",
      "byteLength" : 15324
    }
  ],
  "bufferViews" : [
    {
      "buffer" : 0,
      "byteOffset" : 0,
      "byteLength" : 1836
    },
    {
      "buffer" : 0,
      "byteOffset" : 1836,
      "byteLength" : 3372
    },
    {
      "buffer" : 0,
      "byteOffset" : 5208,
      "byteLength" : 3372
    },
    {
      "buffer" : 0,
      "byteOffset" : 8580,
      "byteLength" : 4496
    },
    {
      "buffer" : 0,
      "byteOffset" : 13076,
      "byteLength" : 2248
    }
  ],
  "accessors" : [
    {
      "bufferView" : 0,
      "componentType" : 5123,
      "count" : 918,
      "type" : "SCALAR"
    },
    {
      "bufferView" : 1,
      "min" : [ -0.3, -5.26909e-08, -0.3 ],
      "max" : [ 0.3, 0.342388, 0.3 ],
      "componentType" : 5126,
      "count" : 281,
      "type" : "VEC3"
    },
    {
      "bufferView" : 2,
      "componentType" : 5126,
      "count" : 281,
      "type" : "VEC3"
    },
    {
      "bufferView" : 3,
      "componentType" : 5126,
      "count" : 281,
      "type" : "VEC4"
    },
    {
      "bufferView" : 4,
      "componentType" : 5126,
      "count" : 281,
      "type" : "VEC2"
    }
  ]
}
