{
  "asset" : {
    "generator" : "UE Viewer (umodel) build 1590",
    "version" : "2.0"
  },
  "scene" : 0,
  "scenes" : [
    {
      "nodes" : [ 0 ]
    }
  ],
  "nodes" : [
    {
      "name" : "SM_CornerRamp_5x3x1_R",
      "mesh" : 0
    }
  ],
  "materials" : [
    {
      "name" : "M_Brick",
      "pbrMetallicRoughness" : {
        "baseColorFactor" : [ 0.3, 0.3, 0.3, 1.0 ],
        "metallicFactor" : 0.1,
        "roughnessFactor" : 0.5
      }
    }
  ],
  "meshes" : [
    {
      "primitives" : [
        {
          "attributes" : {
            "POSITION" : 1,
            "NORMAL" : 2,
            "TANGENT" : 3,
            "COLOR_0" : 4,
            "TEXCOORD_0" : 5,
            "TEXCOORD_1" : 6
          },
          "indices" : 0,
          "material" : 0
        }
      ],
      "name" : "SM_CornerRamp_5x3x1_R"
    }
  ],
  "buffers" : [
    {
      "uri" : "SM_CornerRamp_5x3x1_R.bin",
      "byteLength" : 34220
    }
  ],
  "bufferViews" : [
    {
      "buffer" : 0,
      "byteOffset" : 0,
      "byteLength" : 2600
    },
    {
      "buffer" : 0,
      "byteOffset" : 2600,
      "byteLength" : 6324
    },
    {
      "buffer" : 0,
      "byteOffset" : 8924,
      "byteLength" : 6324
    },
    {
      "buffer" : 0,
      "byteOffset" : 15248,
      "byteLength" : 8432
    },
    {
      "buffer" : 0,
      "byteOffset" : 23680,
      "byteLength" : 2108
    },
    {
      "buffer" : 0,
      "byteOffset" : 25788,
      "byteLength" : 4216
    },
    {
      "buffer" : 0,
      "byteOffset" : 30004,
      "byteLength" : 4216
    }
  ],
  "accessors" : [
    {
      "bufferView" : 0,
      "componentType" : 5123,
      "count" : 1299,
      "type" : "SCALAR"
    },
    {
      "bufferView" : 1,
      "min" : [ -0.75, -2.70365e-07, -0.45 ],
      "max" : [ 0.75, 0.35, 0.45 ],
      "componentType" : 5126,
      "count" : 527,
      "type" : "VEC3"
    },
    {
      "bufferView" : 2,
      "componentType" : 5126,
      "count" : 527,
      "type" : "VEC3"
    },
    {
      "bufferView" : 3,
      "componentType" : 5126,
      "count" : 527,
      "type" : "VEC4"
    },
    {
      "bufferView" : 4,
      "normalized" : true,
      "componentType" : 5121,
      "count" : 527,
      "type" : "VEC4"
    },
    {
      "bufferView" : 5,
      "componentType" : 5126,
      "count" : 527,
      "type" : "VEC2"
    },
    {
      "bufferView" : 6,
      "componentType" : 5126,
      "count" : 527,
      "type" : "VEC2"
    }
  ]
}
