{
  "asset" : {
    "generator" : "UE Viewer (umodel) build 1590",
    "version" : "2.0"
  },
  "scene" : 0,
  "scenes" : [
    {
      "nodes" : [ 0 ]
    }
  ],
  "nodes" : [
    {
      "name" : "SM_CornerRamp_3x2x1_L",
      "mesh" : 0
    }
  ],
  "materials" : [
    {
      "name" : "M_Brick",
      "pbrMetallicRoughness" : {
        "baseColorFactor" : [ 0.3, 0.3, 0.3, 1.0 ],
        "metallicFactor" : 0.1,
        "roughnessFactor" : 0.5
      }
    }
  ],
  "meshes" : [
    {
      "primitives" : [
        {
          "attributes" : {
            "POSITION" : 1,
            "NORMAL" : 2,
            "TANGENT" : 3,
            "TEXCOORD_0" : 4
          },
          "indices" : 0,
          "material" : 0
        }
      ],
      "name" : "SM_CornerRamp_3x2x1_L"
    }
  ],
  "buffers" : [
    {
      "uri" : "SM_CornerRamp_3x2x1_L.bin",
      "byteLength" : 11096
    }
  ],
  "bufferViews" : [
    {
      "buffer" : 0,
      "byteOffset" : 0,
      "byteLength" : 1016
    },
    {
      "buffer" : 0,
      "byteOffset" : 1016,
      "byteLength" : 2520
    },
    {
      "buffer" : 0,
      "byteOffset" : 3536,
      "byteLength" : 2520
    },
    {
      "buffer" : 0,
      "byteOffset" : 6056,
      "byteLength" : 3360
    },
    {
      "buffer" : 0,
      "byteOffset" : 9416,
      "byteLength" : 1680
    }
  ],
  "accessors" : [
    {
      "bufferView" : 0,
      "componentType" : 5123,
      "count" : 507,
      "type" : "SCALAR"
    },
    {
      "bufferView" : 1,
      "min" : [ -0.45, -4.88762e-08, -0.3 ],
      "max" : [ 0.45, 0.35, 0.3 ],
      "componentType" : 5126,
      "count" : 210,
      "type" : "VEC3"
    },
    {
      "bufferView" : 2,
      "componentType" : 5126,
      "count" : 210,
      "type" : "VEC3"
    },
    {
      "bufferView" : 3,
      "componentType" : 5126,
      "count" : 210,
      "type" : "VEC4"
    },
    {
      "bufferView" : 4,
      "componentType" : 5126,
      "count" : 210,
      "type" : "VEC2"
    }
  ]
}
