{
  "asset" : {
    "generator" : "UE Viewer (umodel) build 1590",
    "version" : "2.0"
  },
  "scene" : 0,
  "scenes" : [
    {
      "nodes" : [ 0 ]
    }
  ],
  "nodes" : [
    {
      "name" : "SM_CornerRampN_2x2x1",
      "mesh" : 0
    }
  ],
  "materials" : [
    {
      "name" : "M_Brick",
      "pbrMetallicRoughness" : {
        "baseColorFactor" : [ 0.3, 0.3, 0.3, 1.0 ],
        "metallicFactor" : 0.1,
        "roughnessFactor" : 0.5
      }
    }
  ],
  "meshes" : [
    {
      "primitives" : [
        {
          "attributes" : {
            "POSITION" : 1,
            "NORMAL" : 2,
            "TANGENT" : 3,
            "TEXCOORD_0" : 4
          },
          "indices" : 0,
          "material" : 0
        }
      ],
      "name" : "SM_CornerRampN_2x2x1"
    }
  ],
  "buffers" : [
    {
      "uri" : "SM_CornerRampN_2x2x1.bin",
      "byteLength" : 13176
    }
  ],
  "bufferViews" : [
    {
      "buffer" : 0,
      "byteOffset" : 0,
      "byteLength" : 1272
    },
    {
      "buffer" : 0,
      "byteOffset" : 1272,
      "byteLength" : 2976
    },
    {
      "buffer" : 0,
      "byteOffset" : 4248,
      "byteLength" : 2976
    },
    {
      "buffer" : 0,
      "byteOffset" : 7224,
      "byteLength" : 3968
    },
    {
      "buffer" : 0,
      "byteOffset" : 11192,
      "byteLength" : 1984
    }
  ],
  "accessors" : [
    {
      "bufferView" : 0,
      "componentType" : 5123,
      "count" : 636,
      "type" : "SCALAR"
    },
    {
      "bufferView" : 1,
      "min" : [ -0.15, -2.82528e-08, -0.15 ],
      "max" : [ 0.45, 0.35, 0.45 ],
      "componentType" : 5126,
      "count" : 248,
      "type" : "VEC3"
    },
    {
      "bufferView" : 2,
      "componentType" : 5126,
      "count" : 248,
      "type" : "VEC3"
    },
    {
      "bufferView" : 3,
      "componentType" : 5126,
      "count" : 248,
      "type" : "VEC4"
    },
    {
      "bufferView" : 4,
      "componentType" : 5126,
      "count" : 248,
      "type" : "VEC2"
    }
  ]
}
