{
  "asset" : {
    "generator" : "UE Viewer (umodel) build 1590",
    "version" : "2.0"
  },
  "scene" : 0,
  "scenes" : [
    {
      "nodes" : [ 0 ]
    }
  ],
  "nodes" : [
    {
      "name" : "SM_Coupling_2x2x1s_Female",
      "mesh" : 0
    }
  ],
  "materials" : [
    {
      "name" : "M_Brick",
      "pbrMetallicRoughness" : {
        "baseColorFactor" : [ 0.3, 0.3, 0.3, 1.0 ],
        "metallicFactor" : 0.1,
        "roughnessFactor" : 0.5
      }
    }
  ],
  "meshes" : [
    {
      "primitives" : [
        {
          "attributes" : {
            "POSITION" : 1,
            "NORMAL" : 2,
            "TANGENT" : 3,
            "TEXCOORD_0" : 4
          },
          "indices" : 0,
          "material" : 0
        }
      ],
      "name" : "SM_Coupling_2x2x1s_Female"
    }
  ],
  "buffers" : [
    {
      "uri" : "SM_Coupling_2x2x1s_Female.bin",
      "byteLength" : 24084
    }
  ],
  "bufferViews" : [
    {
      "buffer" : 0,
      "byteOffset" : 0,
      "byteLength" : 2532
    },
    {
      "buffer" : 0,
      "byteOffset" : 2532,
      "byteLength" : 5388
    },
    {
      "buffer" : 0,
      "byteOffset" : 7920,
      "byteLength" : 5388
    },
    {
      "buffer" : 0,
      "byteOffset" : 13308,
      "byteLength" : 7184
    },
    {
      "buffer" : 0,
      "byteOffset" : 20492,
      "byteLength" : 3592
    }
  ],
  "accessors" : [
    {
      "bufferView" : 0,
      "componentType" : 5123,
      "count" : 1266,
      "type" : "SCALAR"
    },
    {
      "bufferView" : 1,
      "min" : [ -0.3, -0.12, -0.3 ],
      "max" : [ 0.3, 0.15, 0.3 ],
      "componentType" : 5126,
      "count" : 449,
      "type" : "VEC3"
    },
    {
      "bufferView" : 2,
      "componentType" : 5126,
      "count" : 449,
      "type" : "VEC3"
    },
    {
      "bufferView" : 3,
      "componentType" : 5126,
      "count" : 449,
      "type" : "VEC4"
    },
    {
      "bufferView" : 4,
      "componentType" : 5126,
      "count" : 449,
      "type" : "VEC2"
    }
  ]
}
