{
  "asset" : {
    "generator" : "UE Viewer (umodel) build 1590",
    "version" : "2.0"
  },
  "scene" : 0,
  "scenes" : [
    {
      "nodes" : [ 0 ]
    }
  ],
  "nodes" : [
    {
      "name" : "SM_DoubleSiren_1x2x1s",
      "mesh" : 0
    }
  ],
  "materials" : [
    {
      "name" : "M_Brick",
      "pbrMetallicRoughness" : {
        "baseColorFactor" : [ 0.3, 0.3, 0.3, 1.0 ],
        "metallicFactor" : 0.1,
        "roughnessFactor" : 0.5
      }
    }
  ],
  "meshes" : [
    {
      "primitives" : [
        {
          "attributes" : {
            "POSITION" : 1,
            "NORMAL" : 2,
            "TANGENT" : 3,
            "TEXCOORD_0" : 4
          },
          "indices" : 0,
          "material" : 0
        }
      ],
      "name" : "SM_DoubleSiren_1x2x1s"
    }
  ],
  "buffers" : [
    {
      "uri" : "SM_DoubleSiren_1x2x1s.bin",
      "byteLength" : 20736
    }
  ],
  "bufferViews" : [
    {
      "buffer" : 0,
      "byteOffset" : 0,
      "byteLength" : 2208
    },
    {
      "buffer" : 0,
      "byteOffset" : 2208,
      "byteLength" : 4632
    },
    {
      "buffer" : 0,
      "byteOffset" : 6840,
      "byteLength" : 4632
    },
    {
      "buffer" : 0,
      "byteOffset" : 11472,
      "byteLength" : 6176
    },
    {
      "buffer" : 0,
      "byteOffset" : 17648,
      "byteLength" : 3088
    }
  ],
  "accessors" : [
    {
      "bufferView" : 0,
      "componentType" : 5123,
      "count" : 1104,
      "type" : "SCALAR"
    },
    {
      "bufferView" : 1,
      "min" : [ -0.15, -5.26909e-08, -0.3 ],
      "max" : [ 0.3, 0.336, 0.3 ],
      "componentType" : 5126,
      "count" : 386,
      "type" : "VEC3"
    },
    {
      "bufferView" : 2,
      "componentType" : 5126,
      "count" : 386,
      "type" : "VEC3"
    },
    {
      "bufferView" : 3,
      "componentType" : 5126,
      "count" : 386,
      "type" : "VEC4"
    },
    {
      "bufferView" : 4,
      "componentType" : 5126,
      "count" : 386,
      "type" : "VEC2"
    }
  ]
}
