{
  "asset" : {
    "generator" : "UE Viewer (umodel) build 1590",
    "version" : "2.0"
  },
  "scene" : 0,
  "scenes" : [
    {
      "nodes" : [ 0 ]
    }
  ],
  "nodes" : [
    {
      "name" : "SM_DragV8",
      "mesh" : 0
    }
  ],
  "materials" : [
    {
      "name" : "M_Brick",
      "pbrMetallicRoughness" : {
        "baseColorFactor" : [ 0.3, 0.3, 0.3, 1.0 ],
        "metallicFactor" : 0.1,
        "roughnessFactor" : 0.5
      }
    },
    {
      "name" : "M_DragV8",
      "pbrMetallicRoughness" : {
        "baseColorFactor" : [ 0.9, 0.3, 0.3, 1.0 ],
        "metallicFactor" : 0.1,
        "roughnessFactor" : 0.5
      }
    }
  ],
  "meshes" : [
    {
      "primitives" : [
        {
          "attributes" : {
            "POSITION" : 1,
            "NORMAL" : 2,
            "TANGENT" : 3,
            "TEXCOORD_0" : 4
          },
          "indices" : 0,
          "material" : 0
        },
        {
          "attributes" : {
            "POSITION" : 6,
            "NORMAL" : 7,
            "TANGENT" : 8,
            "TEXCOORD_0" : 9
          },
          "indices" : 5,
          "material" : 1
        }
      ],
      "name" : "SM_DragV8"
    }
  ],
  "buffers" : [
    {
      "uri" : "SM_DragV8.bin",
      "byteLength" : 63876
    }
  ],
  "bufferViews" : [
    {
      "buffer" : 0,
      "byteOffset" : 0,
      "byteLength" : 2208
    },
    {
      "buffer" : 0,
      "byteOffset" : 2208,
      "byteLength" : 4800
    },
    {
      "buffer" : 0,
      "byteOffset" : 7008,
      "byteLength" : 4800
    },
    {
      "buffer" : 0,
      "byteOffset" : 11808,
      "byteLength" : 6400
    },
    {
      "buffer" : 0,
      "byteOffset" : 18208,
      "byteLength" : 3200
    },
    {
      "buffer" : 0,
      "byteOffset" : 21408,
      "byteLength" : 3348
    },
    {
      "buffer" : 0,
      "byteOffset" : 24756,
      "byteLength" : 9780
    },
    {
      "buffer" : 0,
      "byteOffset" : 34536,
      "byteLength" : 9780
    },
    {
      "buffer" : 0,
      "byteOffset" : 44316,
      "byteLength" : 13040
    },
    {
      "buffer" : 0,
      "byteOffset" : 57356,
      "byteLength" : 6520
    }
  ],
  "accessors" : [
    {
      "bufferView" : 0,
      "componentType" : 5123,
      "count" : 1104,
      "type" : "SCALAR"
    },
    {
      "bufferView" : 1,
      "min" : [ -0.555, 0.587886, -0.621733 ],
      "max" : [ 0.555, 0.771734, 0.621733 ],
      "componentType" : 5126,
      "count" : 400,
      "type" : "VEC3"
    },
    {
      "bufferView" : 2,
      "componentType" : 5126,
      "count" : 400,
      "type" : "VEC3"
    },
    {
      "bufferView" : 3,
      "componentType" : 5126,
      "count" : 400,
      "type" : "VEC4"
    },
    {
      "bufferView" : 4,
      "componentType" : 5126,
      "count" : 400,
      "type" : "VEC2"
    },
    {
      "bufferView" : 5,
      "componentType" : 5123,
      "count" : 1674,
      "type" : "SCALAR"
    },
    {
      "bufferView" : 6,
      "min" : [ -0.6, -6.79497e-08, -0.662132 ],
      "max" : [ 0.6, 0.812132, 0.662132 ],
      "componentType" : 5126,
      "count" : 815,
      "type" : "VEC3"
    },
    {
      "bufferView" : 7,
      "componentType" : 5126,
      "count" : 815,
      "type" : "VEC3"
    },
    {
      "bufferView" : 8,
      "componentType" : 5126,
      "count" : 815,
      "type" : "VEC4"
    },
    {
      "bufferView" : 9,
      "componentType" : 5126,
      "count" : 815,
      "type" : "VEC2"
    }
  ]
}
