{
  "asset" : {
    "generator" : "UE Viewer (umodel) build 1590",
    "version" : "2.0"
  },
  "scene" : 0,
  "scenes" : [
    {
      "nodes" : [ 0 ]
    }
  ],
  "nodes" : [
    {
      "name" : "SM_ExhaustCylinder",
      "mesh" : 0
    }
  ],
  "materials" : [
    {
      "name" : "M_Brick",
      "pbrMetallicRoughness" : {
        "baseColorFactor" : [ 0.3, 0.3, 0.3, 1.0 ],
        "metallicFactor" : 0.1,
        "roughnessFactor" : 0.5
      }
    },
    {
      "name" : "BlackUnlitMaterial",
      "pbrMetallicRoughness" : {
        "baseColorFactor" : [ 0.9, 0.3, 0.3, 1.0 ],
        "metallicFactor" : 0.1,
        "roughnessFactor" : 0.5
      }
    }
  ],
  "meshes" : [
    {
      "primitives" : [
        {
          "attributes" : {
            "POSITION" : 1,
            "NORMAL" : 2,
            "TANGENT" : 3,
            "TEXCOORD_0" : 4
          },
          "indices" : 0,
          "material" : 0
        },
        {
          "attributes" : {
            "POSITION" : 6,
            "NORMAL" : 7,
            "TANGENT" : 8,
            "TEXCOORD_0" : 9
          },
          "indices" : 5,
          "material" : 1
        }
      ],
      "name" : "SM_ExhaustCylinder"
    }
  ],
  "buffers" : [
    {
      "uri" : "SM_ExhaustCylinder.bin",
      "byteLength" : 16056
    }
  ],
  "bufferViews" : [
    {
      "buffer" : 0,
      "byteOffset" : 0,
      "byteLength" : 948
    },
    {
      "buffer" : 0,
      "byteOffset" : 948,
      "byteLength" : 2604
    },
    {
      "buffer" : 0,
      "byteOffset" : 3552,
      "byteLength" : 2604
    },
    {
      "buffer" : 0,
      "byteOffset" : 6156,
      "byteLength" : 3472
    },
    {
      "buffer" : 0,
      "byteOffset" : 9628,
      "byteLength" : 1736
    },
    {
      "buffer" : 0,
      "byteOffset" : 11364,
      "byteLength" : 372
    },
    {
      "buffer" : 0,
      "byteOffset" : 11736,
      "byteLength" : 1080
    },
    {
      "buffer" : 0,
      "byteOffset" : 12816,
      "byteLength" : 1080
    },
    {
      "buffer" : 0,
      "byteOffset" : 13896,
      "byteLength" : 1440
    },
    {
      "buffer" : 0,
      "byteOffset" : 15336,
      "byteLength" : 720
    }
  ],
  "accessors" : [
    {
      "bufferView" : 0,
      "componentType" : 5123,
      "count" : 474,
      "type" : "SCALAR"
    },
    {
      "bufferView" : 1,
      "min" : [ -0.15, -0.15, -0.15 ],
      "max" : [ 0.15, 0.15, 0.15 ],
      "componentType" : 5126,
      "count" : 217,
      "type" : "VEC3"
    },
    {
      "bufferView" : 2,
      "componentType" : 5126,
      "count" : 217,
      "type" : "VEC3"
    },
    {
      "bufferView" : 3,
      "componentType" : 5126,
      "count" : 217,
      "type" : "VEC4"
    },
    {
      "bufferView" : 4,
      "componentType" : 5126,
      "count" : 217,
      "type" : "VEC2"
    },
    {
      "bufferView" : 5,
      "componentType" : 5123,
      "count" : 186,
      "type" : "SCALAR"
    },
    {
      "bufferView" : 6,
      "min" : [ -0.124879, -1.01727e-08, -0.124879 ],
      "max" : [ 0.124879, 0.15, 0.124879 ],
      "componentType" : 5126,
      "count" : 90,
      "type" : "VEC3"
    },
    {
      "bufferView" : 7,
      "componentType" : 5126,
      "count" : 90,
      "type" : "VEC3"
    },
    {
      "bufferView" : 8,
      "componentType" : 5126,
      "count" : 90,
      "type" : "VEC4"
    },
    {
      "bufferView" : 9,
      "componentType" : 5126,
      "count" : 90,
      "type" : "VEC2"
    }
  ]
}
