{
  "asset" : {
    "generator" : "UE Viewer (umodel) build 1590",
    "version" : "2.0"
  },
  "scene" : 0,
  "scenes" : [
    {
      "nodes" : [ 0 ]
    }
  ],
  "nodes" : [
    {
      "name" : "SM_FlareGun_1x1x1",
      "mesh" : 0
    }
  ],
  "materials" : [
    {
      "name" : "M_Brick",
      "pbrMetallicRoughness" : {
        "baseColorFactor" : [ 0.3, 0.3, 0.3, 1.0 ],
        "metallicFactor" : 0.1,
        "roughnessFactor" : 0.5
      }
    },
    {
      "name" : "M_LauncherCap",
      "pbrMetallicRoughness" : {
        "baseColorFactor" : [ 0.9, 0.3, 0.3, 1.0 ],
        "metallicFactor" : 0.1,
        "roughnessFactor" : 0.5
      }
    }
  ],
  "meshes" : [
    {
      "primitives" : [
        {
          "attributes" : {
            "POSITION" : 1,
            "NORMAL" : 2,
            "TANGENT" : 3,
            "TEXCOORD_0" : 4
          },
          "indices" : 0,
          "material" : 0
        },
        {
          "attributes" : {
            "POSITION" : 6,
            "NORMAL" : 7,
            "TANGENT" : 8,
            "TEXCOORD_0" : 9
          },
          "indices" : 5,
          "material" : 1
        }
      ],
      "name" : "SM_FlareGun_1x1x1"
    }
  ],
  "buffers" : [
    {
      "uri" : "SM_FlareGun_1x1x1.bin",
      "byteLength" : 10728
    }
  ],
  "bufferViews" : [
    {
      "buffer" : 0,
      "byteOffset" : 0,
      "byteLength" : 540
    },
    {
      "buffer" : 0,
      "byteOffset" : 540,
      "byteLength" : 2064
    },
    {
      "buffer" : 0,
      "byteOffset" : 2604,
      "byteLength" : 2064
    },
    {
      "buffer" : 0,
      "byteOffset" : 4668,
      "byteLength" : 2752
    },
    {
      "buffer" : 0,
      "byteOffset" : 7420,
      "byteLength" : 1376
    },
    {
      "buffer" : 0,
      "byteOffset" : 8796,
      "byteLength" : 108
    },
    {
      "buffer" : 0,
      "byteOffset" : 8904,
      "byteLength" : 456
    },
    {
      "buffer" : 0,
      "byteOffset" : 9360,
      "byteLength" : 456
    },
    {
      "buffer" : 0,
      "byteOffset" : 9816,
      "byteLength" : 608
    },
    {
      "buffer" : 0,
      "byteOffset" : 10424,
      "byteLength" : 304
    }
  ],
  "accessors" : [
    {
      "bufferView" : 0,
      "componentType" : 5123,
      "count" : 270,
      "type" : "SCALAR"
    },
    {
      "bufferView" : 1,
      "min" : [ -0.15, -2.44381e-08, -0.15 ],
      "max" : [ 0.15, 0.3, 0.15 ],
      "componentType" : 5126,
      "count" : 172,
      "type" : "VEC3"
    },
    {
      "bufferView" : 2,
      "componentType" : 5126,
      "count" : 172,
      "type" : "VEC3"
    },
    {
      "bufferView" : 3,
      "componentType" : 5126,
      "count" : 172,
      "type" : "VEC4"
    },
    {
      "bufferView" : 4,
      "componentType" : 5126,
      "count" : 172,
      "type" : "VEC2"
    },
    {
      "bufferView" : 5,
      "componentType" : 5123,
      "count" : 54,
      "type" : "SCALAR"
    },
    {
      "bufferView" : 6,
      "min" : [ -0.14, 0.29, -0.14 ],
      "max" : [ 0.14, 0.29, 0.14 ],
      "componentType" : 5126,
      "count" : 38,
      "type" : "VEC3"
    },
    {
      "bufferView" : 7,
      "componentType" : 5126,
      "count" : 38,
      "type" : "VEC3"
    },
    {
      "bufferView" : 8,
      "componentType" : 5126,
      "count" : 38,
      "type" : "VEC4"
    },
    {
      "bufferView" : 9,
      "componentType" : 5126,
      "count" : 38,
      "type" : "VEC2"
    }
  ]
}
