{
  "asset" : {
    "generator" : "UE Viewer (umodel) build 1590",
    "version" : "2.0"
  },
  "scene" : 0,
  "scenes" : [
    {
      "nodes" : [ 0 ]
    }
  ],
  "nodes" : [
    {
      "name" : "SM_Flag_3x1x2",
      "mesh" : 0
    }
  ],
  "materials" : [
    {
      "name" : "M_Brick",
      "pbrMetallicRoughness" : {
        "baseColorFactor" : [ 0.3, 0.3, 0.3, 1.0 ],
        "metallicFactor" : 0.1,
        "roughnessFactor" : 0.5
      }
    }
  ],
  "meshes" : [
    {
      "primitives" : [
        {
          "attributes" : {
            "POSITION" : 1,
            "NORMAL" : 2,
            "TANGENT" : 3,
            "COLOR_0" : 4,
            "TEXCOORD_0" : 5
          },
          "indices" : 0,
          "material" : 0
        }
      ],
      "name" : "SM_Flag_3x1x2"
    }
  ],
  "buffers" : [
    {
      "uri" : "SM_Flag_3x1x2.bin",
      "byteLength" : 7388
    }
  ],
  "bufferViews" : [
    {
      "buffer" : 0,
      "byteOffset" : 0,
      "byteLength" : 420
    },
    {
      "buffer" : 0,
      "byteOffset" : 420,
      "byteLength" : 1608
    },
    {
      "buffer" : 0,
      "byteOffset" : 2028,
      "byteLength" : 1608
    },
    {
      "buffer" : 0,
      "byteOffset" : 3636,
      "byteLength" : 2144
    },
    {
      "buffer" : 0,
      "byteOffset" : 5780,
      "byteLength" : 536
    },
    {
      "buffer" : 0,
      "byteOffset" : 6316,
      "byteLength" : 1072
    }
  ],
  "accessors" : [
    {
      "bufferView" : 0,
      "componentType" : 5123,
      "count" : 210,
      "type" : "SCALAR"
    },
    {
      "bufferView" : 1,
      "min" : [ -0.05, -8.14603e-09, -0.0500001 ],
      "max" : [ 0.6, 0.6, 0.05 ],
      "componentType" : 5126,
      "count" : 134,
      "type" : "VEC3"
    },
    {
      "bufferView" : 2,
      "componentType" : 5126,
      "count" : 134,
      "type" : "VEC3"
    },
    {
      "bufferView" : 3,
      "componentType" : 5126,
      "count" : 134,
      "type" : "VEC4"
    },
    {
      "bufferView" : 4,
      "normalized" : true,
      "componentType" : 5121,
      "count" : 134,
      "type" : "VEC4"
    },
    {
      "bufferView" : 5,
      "componentType" : 5126,
      "count" : 134,
      "type" : "VEC2"
    }
  ]
}
