{
  "asset" : {
    "generator" : "UE Viewer (umodel) build 1590",
    "version" : "2.0"
  },
  "scene" : 0,
  "scenes" : [
    {
      "nodes" : [ 0 ]
    }
  ],
  "nodes" : [
    {
      "name" : "SM_Grid_2x1x1s_02",
      "mesh" : 0
    }
  ],
  "materials" : [
    {
      "name" : "M_Brick",
      "pbrMetallicRoughness" : {
        "baseColorFactor" : [ 0.3, 0.3, 0.3, 1.0 ],
        "metallicFactor" : 0.1,
        "roughnessFactor" : 0.5
      }
    }
  ],
  "meshes" : [
    {
      "primitives" : [
        {
          "attributes" : {
            "POSITION" : 1,
            "NORMAL" : 2,
            "TANGENT" : 3,
            "TEXCOORD_0" : 4
          },
          "indices" : 0,
          "material" : 0
        }
      ],
      "name" : "SM_Grid_2x1x1s_02"
    }
  ],
  "buffers" : [
    {
      "uri" : "SM_Grid_2x1x1s_02.bin",
      "byteLength" : 11808
    }
  ],
  "bufferViews" : [
    {
      "buffer" : 0,
      "byteOffset" : 0,
      "byteLength" : 960
    },
    {
      "buffer" : 0,
      "byteOffset" : 960,
      "byteLength" : 2712
    },
    {
      "buffer" : 0,
      "byteOffset" : 3672,
      "byteLength" : 2712
    },
    {
      "buffer" : 0,
      "byteOffset" : 6384,
      "byteLength" : 3616
    },
    {
      "buffer" : 0,
      "byteOffset" : 10000,
      "byteLength" : 1808
    }
  ],
  "accessors" : [
    {
      "bufferView" : 0,
      "componentType" : 5123,
      "count" : 480,
      "type" : "SCALAR"
    },
    {
      "bufferView" : 1,
      "min" : [ -0.3, -2.82528e-08, -0.15 ],
      "max" : [ 0.3, 0.1, 0.15 ],
      "componentType" : 5126,
      "count" : 226,
      "type" : "VEC3"
    },
    {
      "bufferView" : 2,
      "componentType" : 5126,
      "count" : 226,
      "type" : "VEC3"
    },
    {
      "bufferView" : 3,
      "componentType" : 5126,
      "count" : 226,
      "type" : "VEC4"
    },
    {
      "bufferView" : 4,
      "componentType" : 5126,
      "count" : 226,
      "type" : "VEC2"
    }
  ]
}
