{
  "asset" : {
    "generator" : "UE Viewer (umodel) build 1590",
    "version" : "2.0"
  },
  "scene" : 0,
  "scenes" : [
    {
      "nodes" : [ 0 ]
    }
  ],
  "nodes" : [
    {
      "name" : "SM_Hinge_2x8x1s",
      "mesh" : 0
    }
  ],
  "materials" : [
    {
      "name" : "M_Brick",
      "pbrMetallicRoughness" : {
        "baseColorFactor" : [ 0.3, 0.3, 0.3, 1.0 ],
        "metallicFactor" : 0.1,
        "roughnessFactor" : 0.5
      }
    }
  ],
  "meshes" : [
    {
      "primitives" : [
        {
          "attributes" : {
            "POSITION" : 1,
            "NORMAL" : 2,
            "TANGENT" : 3,
            "TEXCOORD_0" : 4
          },
          "indices" : 0,
          "material" : 0
        }
      ],
      "name" : "SM_Hinge_2x8x1s"
    }
  ],
  "buffers" : [
    {
      "uri" : "SM_Hinge_2x8x1s.bin",
      "byteLength" : 73020
    }
  ],
  "bufferViews" : [
    {
      "buffer" : 0,
      "byteOffset" : 0,
      "byteLength" : 7452
    },
    {
      "buffer" : 0,
      "byteOffset" : 7452,
      "byteLength" : 16392
    },
    {
      "buffer" : 0,
      "byteOffset" : 23844,
      "byteLength" : 16392
    },
    {
      "buffer" : 0,
      "byteOffset" : 40236,
      "byteLength" : 21856
    },
    {
      "buffer" : 0,
      "byteOffset" : 62092,
      "byteLength" : 10928
    }
  ],
  "accessors" : [
    {
      "bufferView" : 0,
      "componentType" : 5123,
      "count" : 3726,
      "type" : "SCALAR"
    },
    {
      "bufferView" : 1,
      "min" : [ -0.4, -1.99319e-07, -1.2 ],
      "max" : [ 0.3, 0.15, 1.2 ],
      "componentType" : 5126,
      "count" : 1366,
      "type" : "VEC3"
    },
    {
      "bufferView" : 2,
      "componentType" : 5126,
      "count" : 1366,
      "type" : "VEC3"
    },
    {
      "bufferView" : 3,
      "componentType" : 5126,
      "count" : 1366,
      "type" : "VEC4"
    },
    {
      "bufferView" : 4,
      "componentType" : 5126,
      "count" : 1366,
      "type" : "VEC2"
    }
  ]
}
