{
  "asset" : {
    "generator" : "UE Viewer (umodel) build 1590",
    "version" : "2.0"
  },
  "scene" : 0,
  "scenes" : [
    {
      "nodes" : [ 0 ]
    }
  ],
  "nodes" : [
    {
      "name" : "SM_HalfZylinder_4x2x4",
      "mesh" : 0
    }
  ],
  "materials" : [
    {
      "name" : "M_Brick",
      "pbrMetallicRoughness" : {
        "baseColorFactor" : [ 0.3, 0.3, 0.3, 1.0 ],
        "metallicFactor" : 0.1,
        "roughnessFactor" : 0.5
      }
    }
  ],
  "meshes" : [
    {
      "primitives" : [
        {
          "attributes" : {
            "POSITION" : 1,
            "NORMAL" : 2,
            "TANGENT" : 3,
            "TEXCOORD_0" : 4
          },
          "indices" : 0,
          "material" : 0
        }
      ],
      "name" : "SM_HalfZylinder_4x2x4"
    }
  ],
  "buffers" : [
    {
      "uri" : "SM_HalfZylinder_4x2x4.bin",
      "byteLength" : 42636
    }
  ],
  "bufferViews" : [
    {
      "buffer" : 0,
      "byteOffset" : 0,
      "byteLength" : 4140
    },
    {
      "buffer" : 0,
      "byteOffset" : 4140,
      "byteLength" : 9624
    },
    {
      "buffer" : 0,
      "byteOffset" : 13764,
      "byteLength" : 9624
    },
    {
      "buffer" : 0,
      "byteOffset" : 23388,
      "byteLength" : 12832
    },
    {
      "buffer" : 0,
      "byteOffset" : 36220,
      "byteLength" : 6416
    }
  ],
  "accessors" : [
    {
      "bufferView" : 0,
      "componentType" : 5123,
      "count" : 2070,
      "type" : "SCALAR"
    },
    {
      "bufferView" : 1,
      "min" : [ -5.28852e-08, -1.95505e-07, -0.6 ],
      "max" : [ 0.6, 1.25, 0.6 ],
      "componentType" : 5126,
      "count" : 802,
      "type" : "VEC3"
    },
    {
      "bufferView" : 2,
      "componentType" : 5126,
      "count" : 802,
      "type" : "VEC3"
    },
    {
      "bufferView" : 3,
      "componentType" : 5126,
      "count" : 802,
      "type" : "VEC4"
    },
    {
      "bufferView" : 4,
      "componentType" : 5126,
      "count" : 802,
      "type" : "VEC2"
    }
  ]
}
