{
  "asset" : {
    "generator" : "UE Viewer (umodel) build 1590",
    "version" : "2.0"
  },
  "scene" : 0,
  "scenes" : [
    {
      "nodes" : [ 0 ]
    }
  ],
  "nodes" : [
    {
      "name" : "SM_IdlerWheel",
      "mesh" : 0
    }
  ],
  "materials" : [
    {
      "name" : "M_Brick",
      "pbrMetallicRoughness" : {
        "baseColorFactor" : [ 0.3, 0.3, 0.3, 1.0 ],
        "metallicFactor" : 0.1,
        "roughnessFactor" : 0.5
      }
    }
  ],
  "meshes" : [
    {
      "primitives" : [
        {
          "attributes" : {
            "POSITION" : 1,
            "NORMAL" : 2,
            "TANGENT" : 3,
            "COLOR_0" : 4,
            "TEXCOORD_0" : 5
          },
          "indices" : 0,
          "material" : 0
        }
      ],
      "name" : "SM_IdlerWheel"
    }
  ],
  "buffers" : [
    {
      "uri" : "SM_IdlerWheel.bin",
      "byteLength" : 40100
    }
  ],
  "bufferViews" : [
    {
      "buffer" : 0,
      "byteOffset" : 0,
      "byteLength" : 3804
    },
    {
      "buffer" : 0,
      "byteOffset" : 3804,
      "byteLength" : 8376
    },
    {
      "buffer" : 0,
      "byteOffset" : 12180,
      "byteLength" : 8376
    },
    {
      "buffer" : 0,
      "byteOffset" : 20556,
      "byteLength" : 11168
    },
    {
      "buffer" : 0,
      "byteOffset" : 31724,
      "byteLength" : 2792
    },
    {
      "buffer" : 0,
      "byteOffset" : 34516,
      "byteLength" : 5584
    }
  ],
  "accessors" : [
    {
      "bufferView" : 0,
      "componentType" : 5123,
      "count" : 1902,
      "type" : "SCALAR"
    },
    {
      "bufferView" : 1,
      "min" : [ -2.38418e-08, -0.45, -0.45 ],
      "max" : [ 0.3, 0.45, 0.45 ],
      "componentType" : 5126,
      "count" : 698,
      "type" : "VEC3"
    },
    {
      "bufferView" : 2,
      "componentType" : 5126,
      "count" : 698,
      "type" : "VEC3"
    },
    {
      "bufferView" : 3,
      "componentType" : 5126,
      "count" : 698,
      "type" : "VEC4"
    },
    {
      "bufferView" : 4,
      "normalized" : true,
      "componentType" : 5121,
      "count" : 698,
      "type" : "VEC4"
    },
    {
      "bufferView" : 5,
      "componentType" : 5126,
      "count" : 698,
      "type" : "VEC2"
    }
  ]
}
