{
  "asset" : {
    "generator" : "UE Viewer (umodel) build 1590",
    "version" : "2.0"
  },
  "scene" : 0,
  "scenes" : [
    {
      "nodes" : [ 0 ]
    }
  ],
  "nodes" : [
    {
      "name" : "SM_Launcher_2x1sx1s",
      "mesh" : 0
    }
  ],
  "materials" : [
    {
      "name" : "M_Brick",
      "pbrMetallicRoughness" : {
        "baseColorFactor" : [ 0.3, 0.3, 0.3, 1.0 ],
        "metallicFactor" : 0.1,
        "roughnessFactor" : 0.5
      }
    },
    {
      "name" : "M_LauncherCap",
      "pbrMetallicRoughness" : {
        "baseColorFactor" : [ 0.9, 0.3, 0.3, 1.0 ],
        "metallicFactor" : 0.1,
        "roughnessFactor" : 0.5
      }
    }
  ],
  "meshes" : [
    {
      "primitives" : [
        {
          "attributes" : {
            "POSITION" : 1,
            "NORMAL" : 2,
            "TANGENT" : 3,
            "TEXCOORD_0" : 4
          },
          "indices" : 0,
          "material" : 0
        },
        {
          "attributes" : {
            "POSITION" : 6,
            "NORMAL" : 7,
            "TANGENT" : 8,
            "TEXCOORD_0" : 9
          },
          "indices" : 5,
          "material" : 1
        }
      ],
      "name" : "SM_Launcher_2x1sx1s"
    }
  ],
  "buffers" : [
    {
      "uri" : "SM_Launcher_2x1sx1s.bin",
      "byteLength" : 4932
    }
  ],
  "bufferViews" : [
    {
      "buffer" : 0,
      "byteOffset" : 0,
      "byteLength" : 372
    },
    {
      "buffer" : 0,
      "byteOffset" : 372,
      "byteLength" : 912
    },
    {
      "buffer" : 0,
      "byteOffset" : 1284,
      "byteLength" : 912
    },
    {
      "buffer" : 0,
      "byteOffset" : 2196,
      "byteLength" : 1216
    },
    {
      "buffer" : 0,
      "byteOffset" : 3412,
      "byteLength" : 608
    },
    {
      "buffer" : 0,
      "byteOffset" : 4020,
      "byteLength" : 96
    },
    {
      "buffer" : 0,
      "byteOffset" : 4116,
      "byteLength" : 204
    },
    {
      "buffer" : 0,
      "byteOffset" : 4320,
      "byteLength" : 204
    },
    {
      "buffer" : 0,
      "byteOffset" : 4524,
      "byteLength" : 272
    },
    {
      "buffer" : 0,
      "byteOffset" : 4796,
      "byteLength" : 136
    }
  ],
  "accessors" : [
    {
      "bufferView" : 0,
      "componentType" : 5123,
      "count" : 186,
      "type" : "SCALAR"
    },
    {
      "bufferView" : 1,
      "min" : [ -0.3, -0.05, -0.05 ],
      "max" : [ 0.3, 0.05, 0.05 ],
      "componentType" : 5126,
      "count" : 76,
      "type" : "VEC3"
    },
    {
      "bufferView" : 2,
      "componentType" : 5126,
      "count" : 76,
      "type" : "VEC3"
    },
    {
      "bufferView" : 3,
      "componentType" : 5126,
      "count" : 76,
      "type" : "VEC4"
    },
    {
      "bufferView" : 4,
      "componentType" : 5126,
      "count" : 76,
      "type" : "VEC2"
    },
    {
      "bufferView" : 5,
      "componentType" : 5123,
      "count" : 48,
      "type" : "SCALAR"
    },
    {
      "bufferView" : 6,
      "min" : [ 0.27, -0.035, -0.035 ],
      "max" : [ 0.295, 0.035, 0.035 ],
      "componentType" : 5126,
      "count" : 17,
      "type" : "VEC3"
    },
    {
      "bufferView" : 7,
      "componentType" : 5126,
      "count" : 17,
      "type" : "VEC3"
    },
    {
      "bufferView" : 8,
      "componentType" : 5126,
      "count" : 17,
      "type" : "VEC4"
    },
    {
      "bufferView" : 9,
      "componentType" : 5126,
      "count" : 17,
      "type" : "VEC2"
    }
  ]
}
