{
  "asset" : {
    "generator" : "UE Viewer (umodel) build 1590",
    "version" : "2.0"
  },
  "scene" : 0,
  "scenes" : [
    {
      "nodes" : [ 0 ]
    }
  ],
  "nodes" : [
    {
      "name" : "SM_LandingGear_2x2x2",
      "mesh" : 0
    }
  ],
  "materials" : [
    {
      "name" : "M_Brick",
      "pbrMetallicRoughness" : {
        "baseColorFactor" : [ 0.3, 0.3, 0.3, 1.0 ],
        "metallicFactor" : 0.1,
        "roughnessFactor" : 0.5
      }
    }
  ],
  "meshes" : [
    {
      "primitives" : [
        {
          "attributes" : {
            "POSITION" : 1,
            "NORMAL" : 2,
            "TANGENT" : 3,
            "TEXCOORD_0" : 4
          },
          "indices" : 0,
          "material" : 0
        }
      ],
      "name" : "SM_LandingGear_2x2x2"
    }
  ],
  "buffers" : [
    {
      "uri" : "SM_LandingGear_2x2x2.bin",
      "byteLength" : 22608
    }
  ],
  "bufferViews" : [
    {
      "buffer" : 0,
      "byteOffset" : 0,
      "byteLength" : 2064
    },
    {
      "buffer" : 0,
      "byteOffset" : 2064,
      "byteLength" : 5136
    },
    {
      "buffer" : 0,
      "byteOffset" : 7200,
      "byteLength" : 5136
    },
    {
      "buffer" : 0,
      "byteOffset" : 12336,
      "byteLength" : 6848
    },
    {
      "buffer" : 0,
      "byteOffset" : 19184,
      "byteLength" : 3424
    }
  ],
  "accessors" : [
    {
      "bufferView" : 0,
      "componentType" : 5123,
      "count" : 1032,
      "type" : "SCALAR"
    },
    {
      "bufferView" : 1,
      "min" : [ -0.417418, -0.6, -0.3 ],
      "max" : [ 0.3, 0.0500001, 0.3 ],
      "componentType" : 5126,
      "count" : 428,
      "type" : "VEC3"
    },
    {
      "bufferView" : 2,
      "componentType" : 5126,
      "count" : 428,
      "type" : "VEC3"
    },
    {
      "bufferView" : 3,
      "componentType" : 5126,
      "count" : 428,
      "type" : "VEC4"
    },
    {
      "bufferView" : 4,
      "componentType" : 5126,
      "count" : 428,
      "type" : "VEC2"
    }
  ]
}
