{
  "asset" : {
    "generator" : "UE Viewer (umodel) build 1590",
    "version" : "2.0"
  },
  "scene" : 0,
  "scenes" : [
    {
      "nodes" : [ 0 ]
    }
  ],
  "nodes" : [
    {
      "name" : "SM_Mudguard_2x1sx3",
      "mesh" : 0
    }
  ],
  "materials" : [
    {
      "name" : "M_Brick",
      "pbrMetallicRoughness" : {
        "baseColorFactor" : [ 0.3, 0.3, 0.3, 1.0 ],
        "metallicFactor" : 0.1,
        "roughnessFactor" : 0.5
      }
    }
  ],
  "meshes" : [
    {
      "primitives" : [
        {
          "attributes" : {
            "POSITION" : 1,
            "NORMAL" : 2,
            "TANGENT" : 3,
            "TEXCOORD_0" : 4
          },
          "indices" : 0,
          "material" : 0
        }
      ],
      "name" : "SM_Mudguard_2x1sx3"
    }
  ],
  "buffers" : [
    {
      "uri" : "SM_Mudguard_2x1sx3.bin",
      "byteLength" : 16620
    }
  ],
  "bufferViews" : [
    {
      "buffer" : 0,
      "byteOffset" : 0,
      "byteLength" : 1644
    },
    {
      "buffer" : 0,
      "byteOffset" : 1644,
      "byteLength" : 3744
    },
    {
      "buffer" : 0,
      "byteOffset" : 5388,
      "byteLength" : 3744
    },
    {
      "buffer" : 0,
      "byteOffset" : 9132,
      "byteLength" : 4992
    },
    {
      "buffer" : 0,
      "byteOffset" : 14124,
      "byteLength" : 2496
    }
  ],
  "accessors" : [
    {
      "bufferView" : 0,
      "componentType" : 5123,
      "count" : 822,
      "type" : "SCALAR"
    },
    {
      "bufferView" : 1,
      "min" : [ -0.5445, -0.4, -0.22 ],
      "max" : [ 0.5445, 0.095, 0.15 ],
      "componentType" : 5126,
      "count" : 312,
      "type" : "VEC3"
    },
    {
      "bufferView" : 2,
      "componentType" : 5126,
      "count" : 312,
      "type" : "VEC3"
    },
    {
      "bufferView" : 3,
      "componentType" : 5126,
      "count" : 312,
      "type" : "VEC4"
    },
    {
      "bufferView" : 4,
      "componentType" : 5126,
      "count" : 312,
      "type" : "VEC2"
    }
  ]
}
