{
  "asset" : {
    "generator" : "UE Viewer (umodel) build 1590",
    "version" : "2.0"
  },
  "scene" : 0,
  "scenes" : [
    {
      "nodes" : [ 0 ]
    }
  ],
  "nodes" : [
    {
      "name" : "SM_Motor_3x2x5s",
      "mesh" : 0
    }
  ],
  "materials" : [
    {
      "name" : "M_Brick",
      "pbrMetallicRoughness" : {
        "baseColorFactor" : [ 0.3, 0.3, 0.3, 1.0 ],
        "metallicFactor" : 0.1,
        "roughnessFactor" : 0.5
      }
    },
    {
      "name" : "M_VMotor",
      "pbrMetallicRoughness" : {
        "baseColorFactor" : [ 0.9, 0.3, 0.3, 1.0 ],
        "metallicFactor" : 0.1,
        "roughnessFactor" : 0.5
      }
    }
  ],
  "meshes" : [
    {
      "primitives" : [
        {
          "attributes" : {
            "POSITION" : 1,
            "NORMAL" : 2,
            "TANGENT" : 3,
            "TEXCOORD_0" : 4
          },
          "indices" : 0,
          "material" : 0
        },
        {
          "attributes" : {
            "POSITION" : 6,
            "NORMAL" : 7,
            "TANGENT" : 8,
            "TEXCOORD_0" : 9
          },
          "indices" : 5,
          "material" : 1
        }
      ],
      "name" : "SM_Motor_3x2x5s"
    }
  ],
  "buffers" : [
    {
      "uri" : "SM_Motor_3x2x5s.bin",
      "byteLength" : 11304
    }
  ],
  "bufferViews" : [
    {
      "buffer" : 0,
      "byteOffset" : 0,
      "byteLength" : 708
    },
    {
      "buffer" : 0,
      "byteOffset" : 708,
      "byteLength" : 1728
    },
    {
      "buffer" : 0,
      "byteOffset" : 2436,
      "byteLength" : 1728
    },
    {
      "buffer" : 0,
      "byteOffset" : 4164,
      "byteLength" : 2304
    },
    {
      "buffer" : 0,
      "byteOffset" : 6468,
      "byteLength" : 1152
    },
    {
      "buffer" : 0,
      "byteOffset" : 7620,
      "byteLength" : 228
    },
    {
      "buffer" : 0,
      "byteOffset" : 7848,
      "byteLength" : 864
    },
    {
      "buffer" : 0,
      "byteOffset" : 8712,
      "byteLength" : 864
    },
    {
      "buffer" : 0,
      "byteOffset" : 9576,
      "byteLength" : 1152
    },
    {
      "buffer" : 0,
      "byteOffset" : 10728,
      "byteLength" : 576
    }
  ],
  "accessors" : [
    {
      "bufferView" : 0,
      "componentType" : 5123,
      "count" : 354,
      "type" : "SCALAR"
    },
    {
      "bufferView" : 1,
      "min" : [ -0.45, -4.88762e-08, -0.3 ],
      "max" : [ 0.45, 0.1, 0.3 ],
      "componentType" : 5126,
      "count" : 144,
      "type" : "VEC3"
    },
    {
      "bufferView" : 2,
      "componentType" : 5126,
      "count" : 144,
      "type" : "VEC3"
    },
    {
      "bufferView" : 3,
      "componentType" : 5126,
      "count" : 144,
      "type" : "VEC4"
    },
    {
      "bufferView" : 4,
      "componentType" : 5126,
      "count" : 144,
      "type" : "VEC2"
    },
    {
      "bufferView" : 5,
      "componentType" : 5123,
      "count" : 114,
      "type" : "SCALAR"
    },
    {
      "bufferView" : 6,
      "min" : [ -0.45, 0.0999999, -0.3 ],
      "max" : [ 0.45, 0.5, 0.3 ],
      "componentType" : 5126,
      "count" : 72,
      "type" : "VEC3"
    },
    {
      "bufferView" : 7,
      "componentType" : 5126,
      "count" : 72,
      "type" : "VEC3"
    },
    {
      "bufferView" : 8,
      "componentType" : 5126,
      "count" : 72,
      "type" : "VEC4"
    },
    {
      "bufferView" : 9,
      "componentType" : 5126,
      "count" : 72,
      "type" : "VEC2"
    }
  ]
}
