{
  "asset" : {
    "generator" : "UE Viewer (umodel) build 1590",
    "version" : "2.0"
  },
  "scene" : 0,
  "scenes" : [
    {
      "nodes" : [ 0 ]
    }
  ],
  "nodes" : [
    {
      "name" : "SM_Octagon_2x4x4",
      "mesh" : 0
    }
  ],
  "materials" : [
    {
      "name" : "M_Brick",
      "pbrMetallicRoughness" : {
        "baseColorFactor" : [ 0.3, 0.3, 0.3, 1.0 ],
        "metallicFactor" : 0.1,
        "roughnessFactor" : 0.5
      }
    }
  ],
  "meshes" : [
    {
      "primitives" : [
        {
          "attributes" : {
            "POSITION" : 1,
            "NORMAL" : 2,
            "TANGENT" : 3,
            "TEXCOORD_0" : 4
          },
          "indices" : 0,
          "material" : 0
        }
      ],
      "name" : "SM_Octagon_2x4x4"
    }
  ],
  "buffers" : [
    {
      "uri" : "SM_Octagon_2x4x4.bin",
      "byteLength" : 263808
    }
  ],
  "bufferViews" : [
    {
      "buffer" : 0,
      "byteOffset" : 0,
      "byteLength" : 26880
    },
    {
      "buffer" : 0,
      "byteOffset" : 26880,
      "byteLength" : 59232
    },
    {
      "buffer" : 0,
      "byteOffset" : 86112,
      "byteLength" : 59232
    },
    {
      "buffer" : 0,
      "byteOffset" : 145344,
      "byteLength" : 78976
    },
    {
      "buffer" : 0,
      "byteOffset" : 224320,
      "byteLength" : 39488
    }
  ],
  "accessors" : [
    {
      "bufferView" : 0,
      "componentType" : 5123,
      "count" : 13440,
      "type" : "SCALAR"
    },
    {
      "bufferView" : 1,
      "min" : [ -0.3, -1.5, -1.5 ],
      "max" : [ 0.3, 1.5, 1.5 ],
      "componentType" : 5126,
      "count" : 4936,
      "type" : "VEC3"
    },
    {
      "bufferView" : 2,
      "componentType" : 5126,
      "count" : 4936,
      "type" : "VEC3"
    },
    {
      "bufferView" : 3,
      "componentType" : 5126,
      "count" : 4936,
      "type" : "VEC4"
    },
    {
      "bufferView" : 4,
      "componentType" : 5126,
      "count" : 4936,
      "type" : "VEC2"
    }
  ]
}
