{
  "asset" : {
    "generator" : "UE Viewer (umodel) build 1590",
    "version" : "2.0"
  },
  "scene" : 0,
  "scenes" : [
    {
      "nodes" : [ 0 ]
    }
  ],
  "nodes" : [
    {
      "name" : "SM_OffroadWheel_3x4s",
      "mesh" : 0
    }
  ],
  "materials" : [
    {
      "name" : "M_Brick",
      "pbrMetallicRoughness" : {
        "baseColorFactor" : [ 0.3, 0.3, 0.3, 1.0 ],
        "metallicFactor" : 0.1,
        "roughnessFactor" : 0.5
      }
    },
    {
      "name" : "M_OffroadTire",
      "pbrMetallicRoughness" : {
        "baseColorFactor" : [ 0.9, 0.3, 0.3, 1.0 ],
        "metallicFactor" : 0.1,
        "roughnessFactor" : 0.5
      }
    }
  ],
  "meshes" : [
    {
      "primitives" : [
        {
          "attributes" : {
            "POSITION" : 1,
            "NORMAL" : 2,
            "TANGENT" : 3,
            "COLOR_0" : 4,
            "TEXCOORD_0" : 5
          },
          "indices" : 0,
          "material" : 0
        },
        {
          "attributes" : {
            "POSITION" : 7,
            "NORMAL" : 8,
            "TANGENT" : 9,
            "COLOR_0" : 10,
            "TEXCOORD_0" : 11
          },
          "indices" : 6,
          "material" : 1
        }
      ],
      "name" : "SM_OffroadWheel_3x4s"
    }
  ],
  "buffers" : [
    {
      "uri" : "SM_OffroadWheel_3x4s.bin",
      "byteLength" : 40768
    }
  ],
  "bufferViews" : [
    {
      "buffer" : 0,
      "byteOffset" : 0,
      "byteLength" : 1992
    },
    {
      "buffer" : 0,
      "byteOffset" : 1992,
      "byteLength" : 4440
    },
    {
      "buffer" : 0,
      "byteOffset" : 6432,
      "byteLength" : 4440
    },
    {
      "buffer" : 0,
      "byteOffset" : 10872,
      "byteLength" : 5920
    },
    {
      "buffer" : 0,
      "byteOffset" : 16792,
      "byteLength" : 1480
    },
    {
      "buffer" : 0,
      "byteOffset" : 18272,
      "byteLength" : 2960
    },
    {
      "buffer" : 0,
      "byteOffset" : 21232,
      "byteLength" : 2688
    },
    {
      "buffer" : 0,
      "byteOffset" : 23920,
      "byteLength" : 3888
    },
    {
      "buffer" : 0,
      "byteOffset" : 27808,
      "byteLength" : 3888
    },
    {
      "buffer" : 0,
      "byteOffset" : 31696,
      "byteLength" : 5184
    },
    {
      "buffer" : 0,
      "byteOffset" : 36880,
      "byteLength" : 1296
    },
    {
      "buffer" : 0,
      "byteOffset" : 38176,
      "byteLength" : 2592
    }
  ],
  "accessors" : [
    {
      "bufferView" : 0,
      "componentType" : 5123,
      "count" : 996,
      "type" : "SCALAR"
    },
    {
      "bufferView" : 1,
      "min" : [ 0, -0.225, -0.225 ],
      "max" : [ 0.35, 0.225, 0.225 ],
      "componentType" : 5126,
      "count" : 370,
      "type" : "VEC3"
    },
    {
      "bufferView" : 2,
      "componentType" : 5126,
      "count" : 370,
      "type" : "VEC3"
    },
    {
      "bufferView" : 3,
      "componentType" : 5126,
      "count" : 370,
      "type" : "VEC4"
    },
    {
      "bufferView" : 4,
      "normalized" : true,
      "componentType" : 5121,
      "count" : 370,
      "type" : "VEC4"
    },
    {
      "bufferView" : 5,
      "componentType" : 5126,
      "count" : 370,
      "type" : "VEC2"
    },
    {
      "bufferView" : 6,
      "componentType" : 5123,
      "count" : 1344,
      "type" : "SCALAR"
    },
    {
      "bufferView" : 7,
      "min" : [ -0.010961, -0.418757, -0.418757 ],
      "max" : [ 0.360961, 0.418757, 0.418757 ],
      "componentType" : 5126,
      "count" : 324,
      "type" : "VEC3"
    },
    {
      "bufferView" : 8,
      "componentType" : 5126,
      "count" : 324,
      "type" : "VEC3"
    },
    {
      "bufferView" : 9,
      "componentType" : 5126,
      "count" : 324,
      "type" : "VEC4"
    },
    {
      "bufferView" : 10,
      "normalized" : true,
      "componentType" : 5121,
      "count" : 324,
      "type" : "VEC4"
    },
    {
      "bufferView" : 11,
      "componentType" : 5126,
      "count" : 324,
      "type" : "VEC2"
    }
  ]
}
