{
  "asset" : {
    "generator" : "UE Viewer (umodel) build 1590",
    "version" : "2.0"
  },
  "scene" : 0,
  "scenes" : [
    {
      "nodes" : [ 0 ]
    }
  ],
  "nodes" : [
    {
      "name" : "SM_OffroadWheel_5x2",
      "mesh" : 0
    }
  ],
  "materials" : [
    {
      "name" : "M_Brick",
      "pbrMetallicRoughness" : {
        "baseColorFactor" : [ 0.3, 0.3, 0.3, 1.0 ],
        "metallicFactor" : 0.1,
        "roughnessFactor" : 0.5
      }
    },
    {
      "name" : "M_OffroadWheel_5x2",
      "pbrMetallicRoughness" : {
        "baseColorFactor" : [ 0.9, 0.3, 0.3, 1.0 ],
        "metallicFactor" : 0.1,
        "roughnessFactor" : 0.5
      }
    }
  ],
  "meshes" : [
    {
      "primitives" : [
        {
          "attributes" : {
            "POSITION" : 1,
            "NORMAL" : 2,
            "TANGENT" : 3,
            "COLOR_0" : 4,
            "TEXCOORD_0" : 5
          },
          "indices" : 0,
          "material" : 0
        },
        {
          "attributes" : {
            "POSITION" : 7,
            "NORMAL" : 8,
            "TANGENT" : 9,
            "COLOR_0" : 10,
            "TEXCOORD_0" : 11
          },
          "indices" : 6,
          "material" : 1
        }
      ],
      "name" : "SM_OffroadWheel_5x2"
    }
  ],
  "buffers" : [
    {
      "uri" : "SM_OffroadWheel_5x2.bin",
      "byteLength" : 62980
    }
  ],
  "bufferViews" : [
    {
      "buffer" : 0,
      "byteOffset" : 0,
      "byteLength" : 3612
    },
    {
      "buffer" : 0,
      "byteOffset" : 3612,
      "byteLength" : 9192
    },
    {
      "buffer" : 0,
      "byteOffset" : 12804,
      "byteLength" : 9192
    },
    {
      "buffer" : 0,
      "byteOffset" : 21996,
      "byteLength" : 12256
    },
    {
      "buffer" : 0,
      "byteOffset" : 34252,
      "byteLength" : 3064
    },
    {
      "buffer" : 0,
      "byteOffset" : 37316,
      "byteLength" : 6128
    },
    {
      "buffer" : 0,
      "byteOffset" : 43444,
      "byteLength" : 2688
    },
    {
      "buffer" : 0,
      "byteOffset" : 46132,
      "byteLength" : 3888
    },
    {
      "buffer" : 0,
      "byteOffset" : 50020,
      "byteLength" : 3888
    },
    {
      "buffer" : 0,
      "byteOffset" : 53908,
      "byteLength" : 5184
    },
    {
      "buffer" : 0,
      "byteOffset" : 59092,
      "byteLength" : 1296
    },
    {
      "buffer" : 0,
      "byteOffset" : 60388,
      "byteLength" : 2592
    }
  ],
  "accessors" : [
    {
      "bufferView" : 0,
      "componentType" : 5123,
      "count" : 1806,
      "type" : "SCALAR"
    },
    {
      "bufferView" : 1,
      "min" : [ -9.15527e-07, -0.35, -0.35 ],
      "max" : [ 0.599999, 0.35, 0.35 ],
      "componentType" : 5126,
      "count" : 766,
      "type" : "VEC3"
    },
    {
      "bufferView" : 2,
      "componentType" : 5126,
      "count" : 766,
      "type" : "VEC3"
    },
    {
      "bufferView" : 3,
      "componentType" : 5126,
      "count" : 766,
      "type" : "VEC4"
    },
    {
      "bufferView" : 4,
      "normalized" : true,
      "componentType" : 5121,
      "count" : 766,
      "type" : "VEC4"
    },
    {
      "bufferView" : 5,
      "componentType" : 5126,
      "count" : 766,
      "type" : "VEC2"
    },
    {
      "bufferView" : 6,
      "componentType" : 5123,
      "count" : 1344,
      "type" : "SCALAR"
    },
    {
      "bufferView" : 7,
      "min" : [ -0.0375709, -0.792645, -0.792645 ],
      "max" : [ 0.637569, 0.792645, 0.792645 ],
      "componentType" : 5126,
      "count" : 324,
      "type" : "VEC3"
    },
    {
      "bufferView" : 8,
      "componentType" : 5126,
      "count" : 324,
      "type" : "VEC3"
    },
    {
      "bufferView" : 9,
      "componentType" : 5126,
      "count" : 324,
      "type" : "VEC4"
    },
    {
      "bufferView" : 10,
      "normalized" : true,
      "componentType" : 5121,
      "count" : 324,
      "type" : "VEC4"
    },
    {
      "bufferView" : 11,
      "componentType" : 5126,
      "count" : 324,
      "type" : "VEC2"
    }
  ]
}
