{
  "asset" : {
    "generator" : "UE Viewer (umodel) build 1590",
    "version" : "2.0"
  },
  "scene" : 0,
  "scenes" : [
    {
      "nodes" : [ 0 ]
    }
  ],
  "nodes" : [
    {
      "name" : "SM_Prop_5x1",
      "mesh" : 0
    }
  ],
  "materials" : [
    {
      "name" : "M_Brick",
      "pbrMetallicRoughness" : {
        "baseColorFactor" : [ 0.3, 0.3, 0.3, 1.0 ],
        "metallicFactor" : 0.1,
        "roughnessFactor" : 0.5
      }
    }
  ],
  "meshes" : [
    {
      "primitives" : [
        {
          "attributes" : {
            "POSITION" : 1,
            "NORMAL" : 2,
            "TANGENT" : 3,
            "TEXCOORD_0" : 4
          },
          "indices" : 0,
          "material" : 0
        }
      ],
      "name" : "SM_Prop_5x1"
    }
  ],
  "buffers" : [
    {
      "uri" : "SM_Prop_5x1.bin",
      "byteLength" : 18972
    }
  ],
  "bufferViews" : [
    {
      "buffer" : 0,
      "byteOffset" : 0,
      "byteLength" : 1884
    },
    {
      "buffer" : 0,
      "byteOffset" : 1884,
      "byteLength" : 4272
    },
    {
      "buffer" : 0,
      "byteOffset" : 6156,
      "byteLength" : 4272
    },
    {
      "buffer" : 0,
      "byteOffset" : 10428,
      "byteLength" : 5696
    },
    {
      "buffer" : 0,
      "byteOffset" : 16124,
      "byteLength" : 2848
    }
  ],
  "accessors" : [
    {
      "bufferView" : 0,
      "componentType" : 5123,
      "count" : 942,
      "type" : "SCALAR"
    },
    {
      "bufferView" : 1,
      "min" : [ -0.09, -0.75, -0.15 ],
      "max" : [ 0.16, 0.75, 0.15 ],
      "componentType" : 5126,
      "count" : 356,
      "type" : "VEC3"
    },
    {
      "bufferView" : 2,
      "componentType" : 5126,
      "count" : 356,
      "type" : "VEC3"
    },
    {
      "bufferView" : 3,
      "componentType" : 5126,
      "count" : 356,
      "type" : "VEC4"
    },
    {
      "bufferView" : 4,
      "componentType" : 5126,
      "count" : 356,
      "type" : "VEC2"
    }
  ]
}
