{
  "asset" : {
    "generator" : "UE Viewer (umodel) build 1590",
    "version" : "2.0"
  },
  "scene" : 0,
  "scenes" : [
    {
      "nodes" : [ 0 ]
    }
  ],
  "nodes" : [
    {
      "name" : "SM_PlaneTail_10x10x16",
      "mesh" : 0
    }
  ],
  "materials" : [
    {
      "name" : "M_Brick",
      "pbrMetallicRoughness" : {
        "baseColorFactor" : [ 0.3, 0.3, 0.3, 1.0 ],
        "metallicFactor" : 0.1,
        "roughnessFactor" : 0.5
      }
    }
  ],
  "meshes" : [
    {
      "primitives" : [
        {
          "attributes" : {
            "POSITION" : 1,
            "NORMAL" : 2,
            "TANGENT" : 3,
            "TEXCOORD_0" : 4
          },
          "indices" : 0,
          "material" : 0
        }
      ],
      "name" : "SM_PlaneTail_10x10x16"
    }
  ],
  "buffers" : [
    {
      "uri" : "SM_PlaneTail_10x10x16.bin",
      "byteLength" : 201696
    }
  ],
  "bufferViews" : [
    {
      "buffer" : 0,
      "byteOffset" : 0,
      "byteLength" : 20160
    },
    {
      "buffer" : 0,
      "byteOffset" : 20160,
      "byteLength" : 45384
    },
    {
      "buffer" : 0,
      "byteOffset" : 65544,
      "byteLength" : 45384
    },
    {
      "buffer" : 0,
      "byteOffset" : 110928,
      "byteLength" : 60512
    },
    {
      "buffer" : 0,
      "byteOffset" : 171440,
      "byteLength" : 30256
    }
  ],
  "accessors" : [
    {
      "bufferView" : 0,
      "componentType" : 5123,
      "count" : 10080,
      "type" : "SCALAR"
    },
    {
      "bufferView" : 1,
      "min" : [ -4.85, -1.54868, -1.55125 ],
      "max" : [ 5.26723e-07, 1.6, 1.55125 ],
      "componentType" : 5126,
      "count" : 3782,
      "type" : "VEC3"
    },
    {
      "bufferView" : 2,
      "componentType" : 5126,
      "count" : 3782,
      "type" : "VEC3"
    },
    {
      "bufferView" : 3,
      "componentType" : 5126,
      "count" : 3782,
      "type" : "VEC4"
    },
    {
      "bufferView" : 4,
      "componentType" : 5126,
      "count" : 3782,
      "type" : "VEC2"
    }
  ]
}
