{
  "asset" : {
    "generator" : "UE Viewer (umodel) build 1590",
    "version" : "2.0"
  },
  "scene" : 0,
  "scenes" : [
    {
      "nodes" : [ 0 ]
    }
  ],
  "nodes" : [
    {
      "name" : "SM_Redirector_2x1x1s_03",
      "mesh" : 0
    }
  ],
  "materials" : [
    {
      "name" : "M_Brick",
      "pbrMetallicRoughness" : {
        "baseColorFactor" : [ 0.3, 0.3, 0.3, 1.0 ],
        "metallicFactor" : 0.1,
        "roughnessFactor" : 0.5
      }
    }
  ],
  "meshes" : [
    {
      "primitives" : [
        {
          "attributes" : {
            "POSITION" : 1,
            "NORMAL" : 2,
            "TANGENT" : 3,
            "TEXCOORD_0" : 4
          },
          "indices" : 0,
          "material" : 0
        }
      ],
      "name" : "SM_Redirector_2x1x1s_03"
    }
  ],
  "buffers" : [
    {
      "uri" : "SM_Redirector_2x1x1s_03.bin",
      "byteLength" : 11928
    }
  ],
  "bufferViews" : [
    {
      "buffer" : 0,
      "byteOffset" : 0,
      "byteLength" : 1176
    },
    {
      "buffer" : 0,
      "byteOffset" : 1176,
      "byteLength" : 2688
    },
    {
      "buffer" : 0,
      "byteOffset" : 3864,
      "byteLength" : 2688
    },
    {
      "buffer" : 0,
      "byteOffset" : 6552,
      "byteLength" : 3584
    },
    {
      "buffer" : 0,
      "byteOffset" : 10136,
      "byteLength" : 1792
    }
  ],
  "accessors" : [
    {
      "bufferView" : 0,
      "componentType" : 5123,
      "count" : 588,
      "type" : "SCALAR"
    },
    {
      "bufferView" : 1,
      "min" : [ -0.3, -0.05, -0.15 ],
      "max" : [ 0.3, 0.15, 0.15 ],
      "componentType" : 5126,
      "count" : 224,
      "type" : "VEC3"
    },
    {
      "bufferView" : 2,
      "componentType" : 5126,
      "count" : 224,
      "type" : "VEC3"
    },
    {
      "bufferView" : 3,
      "componentType" : 5126,
      "count" : 224,
      "type" : "VEC4"
    },
    {
      "bufferView" : 4,
      "componentType" : 5126,
      "count" : 224,
      "type" : "VEC2"
    }
  ]
}
