{
  "asset" : {
    "generator" : "UE Viewer (umodel) build 1590",
    "version" : "2.0"
  },
  "scene" : 0,
  "scenes" : [
    {
      "nodes" : [ 0 ]
    }
  ],
  "nodes" : [
    {
      "name" : "SM_Rod_1x1x10",
      "mesh" : 0
    }
  ],
  "materials" : [
    {
      "name" : "M_Brick",
      "pbrMetallicRoughness" : {
        "baseColorFactor" : [ 0.3, 0.3, 0.3, 1.0 ],
        "metallicFactor" : 0.1,
        "roughnessFactor" : 0.5
      }
    }
  ],
  "meshes" : [
    {
      "primitives" : [
        {
          "attributes" : {
            "POSITION" : 1,
            "NORMAL" : 2,
            "TANGENT" : 3,
            "TEXCOORD_0" : 4
          },
          "indices" : 0,
          "material" : 0
        }
      ],
      "name" : "SM_Rod_1x1x10"
    }
  ],
  "buffers" : [
    {
      "uri" : "SM_Rod_1x1x10.bin",
      "byteLength" : 8904
    }
  ],
  "bufferViews" : [
    {
      "buffer" : 0,
      "byteOffset" : 0,
      "byteLength" : 936
    },
    {
      "buffer" : 0,
      "byteOffset" : 936,
      "byteLength" : 1992
    },
    {
      "buffer" : 0,
      "byteOffset" : 2928,
      "byteLength" : 1992
    },
    {
      "buffer" : 0,
      "byteOffset" : 4920,
      "byteLength" : 2656
    },
    {
      "buffer" : 0,
      "byteOffset" : 7576,
      "byteLength" : 1328
    }
  ],
  "accessors" : [
    {
      "bufferView" : 0,
      "componentType" : 5123,
      "count" : 468,
      "type" : "SCALAR"
    },
    {
      "bufferView" : 1,
      "min" : [ -0.105, -1.55, -0.105 ],
      "max" : [ 0.105, 1.55, 0.105 ],
      "componentType" : 5126,
      "count" : 166,
      "type" : "VEC3"
    },
    {
      "bufferView" : 2,
      "componentType" : 5126,
      "count" : 166,
      "type" : "VEC3"
    },
    {
      "bufferView" : 3,
      "componentType" : 5126,
      "count" : 166,
      "type" : "VEC4"
    },
    {
      "bufferView" : 4,
      "componentType" : 5126,
      "count" : 166,
      "type" : "VEC2"
    }
  ]
}
