{
  "asset" : {
    "generator" : "UE Viewer (umodel) build 1590",
    "version" : "2.0"
  },
  "scene" : 0,
  "scenes" : [
    {
      "nodes" : [ 0 ]
    }
  ],
  "nodes" : [
    {
      "name" : "SM_Redirector_4sx6x1",
      "mesh" : 0
    }
  ],
  "materials" : [
    {
      "name" : "M_Brick",
      "pbrMetallicRoughness" : {
        "baseColorFactor" : [ 0.3, 0.3, 0.3, 1.0 ],
        "metallicFactor" : 0.1,
        "roughnessFactor" : 0.5
      }
    }
  ],
  "meshes" : [
    {
      "primitives" : [
        {
          "attributes" : {
            "POSITION" : 1,
            "NORMAL" : 2,
            "TANGENT" : 3,
            "TEXCOORD_0" : 4
          },
          "indices" : 0,
          "material" : 0
        }
      ],
      "name" : "SM_Redirector_4sx6x1"
    }
  ],
  "buffers" : [
    {
      "uri" : "SM_Redirector_4sx6x1.bin",
      "byteLength" : 26556
    }
  ],
  "bufferViews" : [
    {
      "buffer" : 0,
      "byteOffset" : 0,
      "byteLength" : 2604
    },
    {
      "buffer" : 0,
      "byteOffset" : 2604,
      "byteLength" : 5988
    },
    {
      "buffer" : 0,
      "byteOffset" : 8592,
      "byteLength" : 5988
    },
    {
      "buffer" : 0,
      "byteOffset" : 14580,
      "byteLength" : 7984
    },
    {
      "buffer" : 0,
      "byteOffset" : 22564,
      "byteLength" : 3992
    }
  ],
  "accessors" : [
    {
      "bufferView" : 0,
      "componentType" : 5123,
      "count" : 1302,
      "type" : "SCALAR"
    },
    {
      "bufferView" : 1,
      "min" : [ -0.15, -0.1, -0.9 ],
      "max" : [ 0.3, 0.2, 0.9 ],
      "componentType" : 5126,
      "count" : 499,
      "type" : "VEC3"
    },
    {
      "bufferView" : 2,
      "componentType" : 5126,
      "count" : 499,
      "type" : "VEC3"
    },
    {
      "bufferView" : 3,
      "componentType" : 5126,
      "count" : 499,
      "type" : "VEC4"
    },
    {
      "bufferView" : 4,
      "componentType" : 5126,
      "count" : 499,
      "type" : "VEC2"
    }
  ]
}
