{
  "asset" : {
    "generator" : "UE Viewer (umodel) build 1590",
    "version" : "2.0"
  },
  "scene" : 0,
  "scenes" : [
    {
      "nodes" : [ 0 ]
    }
  ],
  "nodes" : [
    {
      "name" : "SM_RemoteController_2x1x1s",
      "mesh" : 0
    }
  ],
  "materials" : [
    {
      "name" : "M_Receiver_Inst",
      "pbrMetallicRoughness" : {
        "baseColorFactor" : [ 0.3, 0.3, 0.3, 1.0 ],
        "metallicFactor" : 0.1,
        "roughnessFactor" : 0.5
      }
    },
    {
      "name" : "M_Brick",
      "pbrMetallicRoughness" : {
        "baseColorFactor" : [ 0.9, 0.3, 0.3, 1.0 ],
        "metallicFactor" : 0.1,
        "roughnessFactor" : 0.5
      }
    }
  ],
  "meshes" : [
    {
      "primitives" : [
        {
          "attributes" : {
            "POSITION" : 1,
            "NORMAL" : 2,
            "TANGENT" : 3,
            "TEXCOORD_0" : 4
          },
          "indices" : 0,
          "material" : 0
        },
        {
          "attributes" : {
            "POSITION" : 6,
            "NORMAL" : 7,
            "TANGENT" : 8,
            "TEXCOORD_0" : 9
          },
          "indices" : 5,
          "material" : 1
        }
      ],
      "name" : "SM_RemoteController_2x1x1s"
    }
  ],
  "buffers" : [
    {
      "uri" : "SM_RemoteController_2x1x1s.bin",
      "byteLength" : 7968
    }
  ],
  "bufferViews" : [
    {
      "buffer" : 0,
      "byteOffset" : 0,
      "byteLength" : 180
    },
    {
      "buffer" : 0,
      "byteOffset" : 180,
      "byteLength" : 672
    },
    {
      "buffer" : 0,
      "byteOffset" : 852,
      "byteLength" : 672
    },
    {
      "buffer" : 0,
      "byteOffset" : 1524,
      "byteLength" : 896
    },
    {
      "buffer" : 0,
      "byteOffset" : 2420,
      "byteLength" : 448
    },
    {
      "buffer" : 0,
      "byteOffset" : 2868,
      "byteLength" : 396
    },
    {
      "buffer" : 0,
      "byteOffset" : 3264,
      "byteLength" : 1176
    },
    {
      "buffer" : 0,
      "byteOffset" : 4440,
      "byteLength" : 1176
    },
    {
      "buffer" : 0,
      "byteOffset" : 5616,
      "byteLength" : 1568
    },
    {
      "buffer" : 0,
      "byteOffset" : 7184,
      "byteLength" : 784
    }
  ],
  "accessors" : [
    {
      "bufferView" : 0,
      "componentType" : 5123,
      "count" : 90,
      "type" : "SCALAR"
    },
    {
      "bufferView" : 1,
      "min" : [ -0.245661, 0.080138, -0.0941454 ],
      "max" : [ 0.245562, 0.0929852, 0.0941454 ],
      "componentType" : 5126,
      "count" : 56,
      "type" : "VEC3"
    },
    {
      "bufferView" : 2,
      "componentType" : 5126,
      "count" : 56,
      "type" : "VEC3"
    },
    {
      "bufferView" : 3,
      "componentType" : 5126,
      "count" : 56,
      "type" : "VEC4"
    },
    {
      "bufferView" : 4,
      "componentType" : 5126,
      "count" : 56,
      "type" : "VEC2"
    },
    {
      "bufferView" : 5,
      "componentType" : 5123,
      "count" : 198,
      "type" : "SCALAR"
    },
    {
      "bufferView" : 6,
      "min" : [ -0.3, -2.82528e-08, -0.15 ],
      "max" : [ 0.3, 0.1, 0.15 ],
      "componentType" : 5126,
      "count" : 98,
      "type" : "VEC3"
    },
    {
      "bufferView" : 7,
      "componentType" : 5126,
      "count" : 98,
      "type" : "VEC3"
    },
    {
      "bufferView" : 8,
      "componentType" : 5126,
      "count" : 98,
      "type" : "VEC4"
    },
    {
      "bufferView" : 9,
      "componentType" : 5126,
      "count" : 98,
      "type" : "VEC2"
    }
  ]
}
