{
  "asset" : {
    "generator" : "UE Viewer (umodel) build 1590",
    "version" : "2.0"
  },
  "scene" : 0,
  "scenes" : [
    {
      "nodes" : [ 0 ]
    }
  ],
  "nodes" : [
    {
      "name" : "SM_Rotor_4x8",
      "mesh" : 0
    }
  ],
  "materials" : [
    {
      "name" : "M_Brick",
      "pbrMetallicRoughness" : {
        "baseColorFactor" : [ 0.3, 0.3, 0.3, 1.0 ],
        "metallicFactor" : 0.1,
        "roughnessFactor" : 0.5
      }
    }
  ],
  "meshes" : [
    {
      "primitives" : [
        {
          "attributes" : {
            "POSITION" : 1,
            "NORMAL" : 2,
            "TANGENT" : 3,
            "TEXCOORD_0" : 4
          },
          "indices" : 0,
          "material" : 0
        }
      ],
      "name" : "SM_Rotor_4x8"
    }
  ],
  "buffers" : [
    {
      "uri" : "SM_Rotor_4x8.bin",
      "byteLength" : 62472
    }
  ],
  "bufferViews" : [
    {
      "buffer" : 0,
      "byteOffset" : 0,
      "byteLength" : 6408
    },
    {
      "buffer" : 0,
      "byteOffset" : 6408,
      "byteLength" : 14016
    },
    {
      "buffer" : 0,
      "byteOffset" : 20424,
      "byteLength" : 14016
    },
    {
      "buffer" : 0,
      "byteOffset" : 34440,
      "byteLength" : 18688
    },
    {
      "buffer" : 0,
      "byteOffset" : 53128,
      "byteLength" : 9344
    }
  ],
  "accessors" : [
    {
      "bufferView" : 0,
      "componentType" : 5123,
      "count" : 3204,
      "type" : "SCALAR"
    },
    {
      "bufferView" : 1,
      "min" : [ -0.6, -0.15, -0.6 ],
      "max" : [ 0.6, 0.3, 0.6 ],
      "componentType" : 5126,
      "count" : 1168,
      "type" : "VEC3"
    },
    {
      "bufferView" : 2,
      "componentType" : 5126,
      "count" : 1168,
      "type" : "VEC3"
    },
    {
      "bufferView" : 3,
      "componentType" : 5126,
      "count" : 1168,
      "type" : "VEC4"
    },
    {
      "bufferView" : 4,
      "componentType" : 5126,
      "count" : 1168,
      "type" : "VEC2"
    }
  ]
}
