{
  "asset" : {
    "generator" : "UE Viewer (umodel) build 1590",
    "version" : "2.0"
  },
  "scene" : 0,
  "scenes" : [
    {
      "nodes" : [ 0 ]
    }
  ],
  "nodes" : [
    {
      "name" : "SM_RampN_3x2x1",
      "mesh" : 0
    }
  ],
  "materials" : [
    {
      "name" : "M_Brick",
      "pbrMetallicRoughness" : {
        "baseColorFactor" : [ 0.3, 0.3, 0.3, 1.0 ],
        "metallicFactor" : 0.1,
        "roughnessFactor" : 0.5
      }
    }
  ],
  "meshes" : [
    {
      "primitives" : [
        {
          "attributes" : {
            "POSITION" : 1,
            "NORMAL" : 2,
            "TANGENT" : 3,
            "TEXCOORD_0" : 4
          },
          "indices" : 0,
          "material" : 0
        }
      ],
      "name" : "SM_RampN_3x2x1"
    }
  ],
  "buffers" : [
    {
      "uri" : "SM_RampN_3x2x1.bin",
      "byteLength" : 19908
    }
  ],
  "bufferViews" : [
    {
      "buffer" : 0,
      "byteOffset" : 0,
      "byteLength" : 1956
    },
    {
      "buffer" : 0,
      "byteOffset" : 1956,
      "byteLength" : 4488
    },
    {
      "buffer" : 0,
      "byteOffset" : 6444,
      "byteLength" : 4488
    },
    {
      "buffer" : 0,
      "byteOffset" : 10932,
      "byteLength" : 5984
    },
    {
      "buffer" : 0,
      "byteOffset" : 16916,
      "byteLength" : 2992
    }
  ],
  "accessors" : [
    {
      "bufferView" : 0,
      "componentType" : 5123,
      "count" : 978,
      "type" : "SCALAR"
    },
    {
      "bufferView" : 1,
      "min" : [ -0.15, -5.26909e-08, -0.3 ],
      "max" : [ 0.75, 0.35, 0.3 ],
      "componentType" : 5126,
      "count" : 374,
      "type" : "VEC3"
    },
    {
      "bufferView" : 2,
      "componentType" : 5126,
      "count" : 374,
      "type" : "VEC3"
    },
    {
      "bufferView" : 3,
      "componentType" : 5126,
      "count" : 374,
      "type" : "VEC4"
    },
    {
      "bufferView" : 4,
      "componentType" : 5126,
      "count" : 374,
      "type" : "VEC2"
    }
  ]
}
