{
  "asset" : {
    "generator" : "UE Viewer (umodel) build 1590",
    "version" : "2.0"
  },
  "scene" : 0,
  "scenes" : [
    {
      "nodes" : [ 0 ]
    }
  ],
  "nodes" : [
    {
      "name" : "SM_RampN_1x1x1",
      "mesh" : 0
    }
  ],
  "materials" : [
    {
      "name" : "M_Brick",
      "pbrMetallicRoughness" : {
        "baseColorFactor" : [ 0.3, 0.3, 0.3, 1.0 ],
        "metallicFactor" : 0.1,
        "roughnessFactor" : 0.5
      }
    }
  ],
  "meshes" : [
    {
      "primitives" : [
        {
          "attributes" : {
            "POSITION" : 1,
            "NORMAL" : 2,
            "TANGENT" : 3,
            "TEXCOORD_0" : 4
          },
          "indices" : 0,
          "material" : 0
        }
      ],
      "name" : "SM_RampN_1x1x1"
    }
  ],
  "buffers" : [
    {
      "uri" : "SM_RampN_1x1x1.bin",
      "byteLength" : 3588
    }
  ],
  "bufferViews" : [
    {
      "buffer" : 0,
      "byteOffset" : 0,
      "byteLength" : 324
    },
    {
      "buffer" : 0,
      "byteOffset" : 324,
      "byteLength" : 816
    },
    {
      "buffer" : 0,
      "byteOffset" : 1140,
      "byteLength" : 816
    },
    {
      "buffer" : 0,
      "byteOffset" : 1956,
      "byteLength" : 1088
    },
    {
      "buffer" : 0,
      "byteOffset" : 3044,
      "byteLength" : 544
    }
  ],
  "accessors" : [
    {
      "bufferView" : 0,
      "componentType" : 5123,
      "count" : 162,
      "type" : "SCALAR"
    },
    {
      "bufferView" : 1,
      "min" : [ -0.15, -0.3, -0.15 ],
      "max" : [ 0.15, 0.05, 0.15 ],
      "componentType" : 5126,
      "count" : 68,
      "type" : "VEC3"
    },
    {
      "bufferView" : 2,
      "componentType" : 5126,
      "count" : 68,
      "type" : "VEC3"
    },
    {
      "bufferView" : 3,
      "componentType" : 5126,
      "count" : 68,
      "type" : "VEC4"
    },
    {
      "bufferView" : 4,
      "componentType" : 5126,
      "count" : 68,
      "type" : "VEC2"
    }
  ]
}
