{
  "asset" : {
    "generator" : "UE Viewer (umodel) build 1590",
    "version" : "2.0"
  },
  "scene" : 0,
  "scenes" : [
    {
      "nodes" : [ 0 ]
    }
  ],
  "nodes" : [
    {
      "name" : "SM_RampRoundedN_4x2x4",
      "mesh" : 0
    }
  ],
  "materials" : [
    {
      "name" : "M_Brick",
      "pbrMetallicRoughness" : {
        "baseColorFactor" : [ 0.3, 0.3, 0.3, 1.0 ],
        "metallicFactor" : 0.1,
        "roughnessFactor" : 0.5
      }
    }
  ],
  "meshes" : [
    {
      "primitives" : [
        {
          "attributes" : {
            "POSITION" : 1,
            "NORMAL" : 2,
            "TANGENT" : 3,
            "TEXCOORD_0" : 4
          },
          "indices" : 0,
          "material" : 0
        }
      ],
      "name" : "SM_RampRoundedN_4x2x4"
    }
  ],
  "buffers" : [
    {
      "uri" : "SM_RampRoundedN_4x2x4.bin",
      "byteLength" : 33732
    }
  ],
  "bufferViews" : [
    {
      "buffer" : 0,
      "byteOffset" : 0,
      "byteLength" : 3396
    },
    {
      "buffer" : 0,
      "byteOffset" : 3396,
      "byteLength" : 7584
    },
    {
      "buffer" : 0,
      "byteOffset" : 10980,
      "byteLength" : 7584
    },
    {
      "buffer" : 0,
      "byteOffset" : 18564,
      "byteLength" : 10112
    },
    {
      "buffer" : 0,
      "byteOffset" : 28676,
      "byteLength" : 5056
    }
  ],
  "accessors" : [
    {
      "bufferView" : 0,
      "componentType" : 5123,
      "count" : 1698,
      "type" : "SCALAR"
    },
    {
      "bufferView" : 1,
      "min" : [ -0.65, -5.26909e-08, -0.3 ],
      "max" : [ 0.6, 1.2, 0.3 ],
      "componentType" : 5126,
      "count" : 632,
      "type" : "VEC3"
    },
    {
      "bufferView" : 2,
      "componentType" : 5126,
      "count" : 632,
      "type" : "VEC3"
    },
    {
      "bufferView" : 3,
      "componentType" : 5126,
      "count" : 632,
      "type" : "VEC4"
    },
    {
      "bufferView" : 4,
      "componentType" : 5126,
      "count" : 632,
      "type" : "VEC2"
    }
  ]
}
