{
  "asset" : {
    "generator" : "UE Viewer (umodel) build 1590",
    "version" : "2.0"
  },
  "scene" : 0,
  "scenes" : [
    {
      "nodes" : [ 0 ]
    }
  ],
  "nodes" : [
    {
      "name" : "SM_Redirector_3x2x1s",
      "mesh" : 0
    }
  ],
  "materials" : [
    {
      "name" : "M_Brick",
      "pbrMetallicRoughness" : {
        "baseColorFactor" : [ 0.3, 0.3, 0.3, 1.0 ],
        "metallicFactor" : 0.1,
        "roughnessFactor" : 0.5
      }
    }
  ],
  "meshes" : [
    {
      "primitives" : [
        {
          "attributes" : {
            "POSITION" : 1,
            "NORMAL" : 2,
            "TANGENT" : 3,
            "TEXCOORD_0" : 4
          },
          "indices" : 0,
          "material" : 0
        }
      ],
      "name" : "SM_Redirector_3x2x1s"
    }
  ],
  "buffers" : [
    {
      "uri" : "SM_Redirector_3x2x1s.bin",
      "byteLength" : 18528
    }
  ],
  "bufferViews" : [
    {
      "buffer" : 0,
      "byteOffset" : 0,
      "byteLength" : 1824
    },
    {
      "buffer" : 0,
      "byteOffset" : 1824,
      "byteLength" : 4176
    },
    {
      "buffer" : 0,
      "byteOffset" : 6000,
      "byteLength" : 4176
    },
    {
      "buffer" : 0,
      "byteOffset" : 10176,
      "byteLength" : 5568
    },
    {
      "buffer" : 0,
      "byteOffset" : 15744,
      "byteLength" : 2784
    }
  ],
  "accessors" : [
    {
      "bufferView" : 0,
      "componentType" : 5123,
      "count" : 912,
      "type" : "SCALAR"
    },
    {
      "bufferView" : 1,
      "min" : [ -0.45, -6.86058e-08, -0.3 ],
      "max" : [ 0.45, 0.15, 0.3 ],
      "componentType" : 5126,
      "count" : 348,
      "type" : "VEC3"
    },
    {
      "bufferView" : 2,
      "componentType" : 5126,
      "count" : 348,
      "type" : "VEC3"
    },
    {
      "bufferView" : 3,
      "componentType" : 5126,
      "count" : 348,
      "type" : "VEC4"
    },
    {
      "bufferView" : 4,
      "componentType" : 5126,
      "count" : 348,
      "type" : "VEC2"
    }
  ]
}
