{
  "asset" : {
    "generator" : "UE Viewer (umodel) build 1590",
    "version" : "2.0"
  },
  "scene" : 0,
  "scenes" : [
    {
      "nodes" : [ 0 ]
    }
  ],
  "nodes" : [
    {
      "name" : "SM_RampRounded_4x1x2s",
      "mesh" : 0
    }
  ],
  "materials" : [
    {
      "name" : "M_Brick",
      "pbrMetallicRoughness" : {
        "baseColorFactor" : [ 0.3, 0.3, 0.3, 1.0 ],
        "metallicFactor" : 0.1,
        "roughnessFactor" : 0.5
      }
    }
  ],
  "meshes" : [
    {
      "primitives" : [
        {
          "attributes" : {
            "POSITION" : 1,
            "NORMAL" : 2,
            "TANGENT" : 3,
            "TEXCOORD_0" : 4
          },
          "indices" : 0,
          "material" : 0
        }
      ],
      "name" : "SM_RampRounded_4x1x2s"
    }
  ],
  "buffers" : [
    {
      "uri" : "SM_RampRounded_4x1x2s.bin",
      "byteLength" : 9456
    }
  ],
  "bufferViews" : [
    {
      "buffer" : 0,
      "byteOffset" : 0,
      "byteLength" : 816
    },
    {
      "buffer" : 0,
      "byteOffset" : 816,
      "byteLength" : 2160
    },
    {
      "buffer" : 0,
      "byteOffset" : 2976,
      "byteLength" : 2160
    },
    {
      "buffer" : 0,
      "byteOffset" : 5136,
      "byteLength" : 2880
    },
    {
      "buffer" : 0,
      "byteOffset" : 8016,
      "byteLength" : 1440
    }
  ],
  "accessors" : [
    {
      "bufferView" : 0,
      "componentType" : 5123,
      "count" : 408,
      "type" : "SCALAR"
    },
    {
      "bufferView" : 1,
      "min" : [ -0.9, -2.82528e-08, -0.15 ],
      "max" : [ 0.3, 0.2, 0.15 ],
      "componentType" : 5126,
      "count" : 180,
      "type" : "VEC3"
    },
    {
      "bufferView" : 2,
      "componentType" : 5126,
      "count" : 180,
      "type" : "VEC3"
    },
    {
      "bufferView" : 3,
      "componentType" : 5126,
      "count" : 180,
      "type" : "VEC4"
    },
    {
      "bufferView" : 4,
      "componentType" : 5126,
      "count" : 180,
      "type" : "VEC2"
    }
  ]
}
