{
  "asset" : {
    "generator" : "UE Viewer (umodel) build 1590",
    "version" : "2.0"
  },
  "scene" : 0,
  "scenes" : [
    {
      "nodes" : [ 0 ]
    }
  ],
  "nodes" : [
    {
      "name" : "SM_ScalableConeRounded",
      "mesh" : 0
    }
  ],
  "materials" : [
    {
      "name" : "M_Brick",
      "pbrMetallicRoughness" : {
        "baseColorFactor" : [ 0.3, 0.3, 0.3, 1.0 ],
        "metallicFactor" : 0.1,
        "roughnessFactor" : 0.5
      }
    }
  ],
  "meshes" : [
    {
      "primitives" : [
        {
          "attributes" : {
            "POSITION" : 1,
            "NORMAL" : 2,
            "TANGENT" : 3,
            "COLOR_0" : 4,
            "TEXCOORD_0" : 5
          },
          "indices" : 0,
          "material" : 0
        }
      ],
      "name" : "SM_ScalableConeRounded"
    }
  ],
  "buffers" : [
    {
      "uri" : "SM_ScalableConeRounded.bin",
      "byteLength" : 25340
    }
  ],
  "bufferViews" : [
    {
      "buffer" : 0,
      "byteOffset" : 0,
      "byteLength" : 3240
    },
    {
      "buffer" : 0,
      "byteOffset" : 3240,
      "byteLength" : 5100
    },
    {
      "buffer" : 0,
      "byteOffset" : 8340,
      "byteLength" : 5100
    },
    {
      "buffer" : 0,
      "byteOffset" : 13440,
      "byteLength" : 6800
    },
    {
      "buffer" : 0,
      "byteOffset" : 20240,
      "byteLength" : 1700
    },
    {
      "buffer" : 0,
      "byteOffset" : 21940,
      "byteLength" : 3400
    }
  ],
  "accessors" : [
    {
      "bufferView" : 0,
      "componentType" : 5123,
      "count" : 1620,
      "type" : "SCALAR"
    },
    {
      "bufferView" : 1,
      "min" : [ -0.15, -0.15, -0.15 ],
      "max" : [ 0.15, 0.15, 0.15 ],
      "componentType" : 5126,
      "count" : 425,
      "type" : "VEC3"
    },
    {
      "bufferView" : 2,
      "componentType" : 5126,
      "count" : 425,
      "type" : "VEC3"
    },
    {
      "bufferView" : 3,
      "componentType" : 5126,
      "count" : 425,
      "type" : "VEC4"
    },
    {
      "bufferView" : 4,
      "normalized" : true,
      "componentType" : 5121,
      "count" : 425,
      "type" : "VEC4"
    },
    {
      "bufferView" : 5,
      "componentType" : 5126,
      "count" : 425,
      "type" : "VEC2"
    }
  ]
}
