{
  "asset" : {
    "generator" : "UE Viewer (umodel) build 1590",
    "version" : "2.0"
  },
  "scene" : 0,
  "scenes" : [
    {
      "nodes" : [ 0 ]
    }
  ],
  "nodes" : [
    {
      "name" : "SM_SprocketWheel",
      "mesh" : 0
    }
  ],
  "materials" : [
    {
      "name" : "M_Brick",
      "pbrMetallicRoughness" : {
        "baseColorFactor" : [ 0.3, 0.3, 0.3, 1.0 ],
        "metallicFactor" : 0.1,
        "roughnessFactor" : 0.5
      }
    }
  ],
  "meshes" : [
    {
      "primitives" : [
        {
          "attributes" : {
            "POSITION" : 1,
            "NORMAL" : 2,
            "TANGENT" : 3,
            "COLOR_0" : 4,
            "TEXCOORD_0" : 5
          },
          "indices" : 0,
          "material" : 0
        }
      ],
      "name" : "SM_SprocketWheel"
    }
  ],
  "buffers" : [
    {
      "uri" : "SM_SprocketWheel.bin",
      "byteLength" : 50852
    }
  ],
  "bufferViews" : [
    {
      "buffer" : 0,
      "byteOffset" : 0,
      "byteLength" : 4572
    },
    {
      "buffer" : 0,
      "byteOffset" : 4572,
      "byteLength" : 10680
    },
    {
      "buffer" : 0,
      "byteOffset" : 15252,
      "byteLength" : 10680
    },
    {
      "buffer" : 0,
      "byteOffset" : 25932,
      "byteLength" : 14240
    },
    {
      "buffer" : 0,
      "byteOffset" : 40172,
      "byteLength" : 3560
    },
    {
      "buffer" : 0,
      "byteOffset" : 43732,
      "byteLength" : 7120
    }
  ],
  "accessors" : [
    {
      "bufferView" : 0,
      "componentType" : 5123,
      "count" : 2286,
      "type" : "SCALAR"
    },
    {
      "bufferView" : 1,
      "min" : [ -2.38418e-08, -0.477694, -0.477694 ],
      "max" : [ 0.3, 0.477694, 0.477694 ],
      "componentType" : 5126,
      "count" : 890,
      "type" : "VEC3"
    },
    {
      "bufferView" : 2,
      "componentType" : 5126,
      "count" : 890,
      "type" : "VEC3"
    },
    {
      "bufferView" : 3,
      "componentType" : 5126,
      "count" : 890,
      "type" : "VEC4"
    },
    {
      "bufferView" : 4,
      "normalized" : true,
      "componentType" : 5121,
      "count" : 890,
      "type" : "VEC4"
    },
    {
      "bufferView" : 5,
      "componentType" : 5126,
      "count" : 890,
      "type" : "VEC2"
    }
  ]
}
