{
  "asset" : {
    "generator" : "UE Viewer (umodel) build 1590",
    "version" : "2.0"
  },
  "scene" : 0,
  "scenes" : [
    {
      "nodes" : [ 0 ]
    }
  ],
  "nodes" : [
    {
      "name" : "SM_ScalableCylinder90R0",
      "mesh" : 0
    }
  ],
  "materials" : [
    {
      "name" : "M_Brick",
      "pbrMetallicRoughness" : {
        "baseColorFactor" : [ 0.3, 0.3, 0.3, 1.0 ],
        "metallicFactor" : 0.1,
        "roughnessFactor" : 0.5
      }
    }
  ],
  "meshes" : [
    {
      "primitives" : [
        {
          "attributes" : {
            "POSITION" : 1,
            "NORMAL" : 2,
            "TANGENT" : 3,
            "COLOR_0" : 4,
            "TEXCOORD_0" : 5
          },
          "indices" : 0,
          "material" : 0
        }
      ],
      "name" : "SM_ScalableCylinder90R0"
    }
  ],
  "buffers" : [
    {
      "uri" : "SM_ScalableCylinder90R0.bin",
      "byteLength" : 24084
    }
  ],
  "bufferViews" : [
    {
      "buffer" : 0,
      "byteOffset" : 0,
      "byteLength" : 3336
    },
    {
      "buffer" : 0,
      "byteOffset" : 3336,
      "byteLength" : 4788
    },
    {
      "buffer" : 0,
      "byteOffset" : 8124,
      "byteLength" : 4788
    },
    {
      "buffer" : 0,
      "byteOffset" : 12912,
      "byteLength" : 6384
    },
    {
      "buffer" : 0,
      "byteOffset" : 19296,
      "byteLength" : 1596
    },
    {
      "buffer" : 0,
      "byteOffset" : 20892,
      "byteLength" : 3192
    }
  ],
  "accessors" : [
    {
      "bufferView" : 0,
      "componentType" : 5123,
      "count" : 1668,
      "type" : "SCALAR"
    },
    {
      "bufferView" : 1,
      "min" : [ -0.15, -0.15, -0.15 ],
      "max" : [ 0.15, 0.15, 0.15 ],
      "componentType" : 5126,
      "count" : 399,
      "type" : "VEC3"
    },
    {
      "bufferView" : 2,
      "componentType" : 5126,
      "count" : 399,
      "type" : "VEC3"
    },
    {
      "bufferView" : 3,
      "componentType" : 5126,
      "count" : 399,
      "type" : "VEC4"
    },
    {
      "bufferView" : 4,
      "normalized" : true,
      "componentType" : 5121,
      "count" : 399,
      "type" : "VEC4"
    },
    {
      "bufferView" : 5,
      "componentType" : 5126,
      "count" : 399,
      "type" : "VEC2"
    }
  ]
}
