{
  "asset" : {
    "generator" : "UE Viewer (umodel) build 1590",
    "version" : "2.0"
  },
  "scene" : 0,
  "scenes" : [
    {
      "nodes" : [ 0 ]
    }
  ],
  "nodes" : [
    {
      "name" : "SM_Seat_2x2x7s",
      "mesh" : 0
    }
  ],
  "materials" : [
    {
      "name" : "M_Brick",
      "pbrMetallicRoughness" : {
        "baseColorFactor" : [ 0.3, 0.3, 0.3, 1.0 ],
        "metallicFactor" : 0.1,
        "roughnessFactor" : 0.5
      }
    }
  ],
  "meshes" : [
    {
      "primitives" : [
        {
          "attributes" : {
            "POSITION" : 1,
            "NORMAL" : 2,
            "TANGENT" : 3,
            "TEXCOORD_0" : 4
          },
          "indices" : 0,
          "material" : 0
        }
      ],
      "name" : "SM_Seat_2x2x7s"
    }
  ],
  "buffers" : [
    {
      "uri" : "SM_Seat_2x2x7s.bin",
      "byteLength" : 14292
    }
  ],
  "bufferViews" : [
    {
      "buffer" : 0,
      "byteOffset" : 0,
      "byteLength" : 1428
    },
    {
      "buffer" : 0,
      "byteOffset" : 1428,
      "byteLength" : 3216
    },
    {
      "buffer" : 0,
      "byteOffset" : 4644,
      "byteLength" : 3216
    },
    {
      "buffer" : 0,
      "byteOffset" : 7860,
      "byteLength" : 4288
    },
    {
      "buffer" : 0,
      "byteOffset" : 12148,
      "byteLength" : 2144
    }
  ],
  "accessors" : [
    {
      "bufferView" : 0,
      "componentType" : 5123,
      "count" : 714,
      "type" : "SCALAR"
    },
    {
      "bufferView" : 1,
      "min" : [ -0.3, -4.88762e-08, -0.3 ],
      "max" : [ 0.3, 0.8, 0.3 ],
      "componentType" : 5126,
      "count" : 268,
      "type" : "VEC3"
    },
    {
      "bufferView" : 2,
      "componentType" : 5126,
      "count" : 268,
      "type" : "VEC3"
    },
    {
      "bufferView" : 3,
      "componentType" : 5126,
      "count" : 268,
      "type" : "VEC4"
    },
    {
      "bufferView" : 4,
      "componentType" : 5126,
      "count" : 268,
      "type" : "VEC2"
    }
  ]
}
