{
  "asset" : {
    "generator" : "UE Viewer (umodel) build 1590",
    "version" : "2.0"
  },
  "scene" : 0,
  "scenes" : [
    {
      "nodes" : [ 0 ]
    }
  ],
  "nodes" : [
    {
      "name" : "SM_Sensor_1x1x1s",
      "mesh" : 0
    }
  ],
  "materials" : [
    {
      "name" : "M_Brick",
      "pbrMetallicRoughness" : {
        "baseColorFactor" : [ 0.3, 0.3, 0.3, 1.0 ],
        "metallicFactor" : 0.1,
        "roughnessFactor" : 0.5
      }
    },
    {
      "name" : "M_FuturisticGrid",
      "pbrMetallicRoughness" : {
        "baseColorFactor" : [ 0.9, 0.3, 0.3, 1.0 ],
        "metallicFactor" : 0.1,
        "roughnessFactor" : 0.5
      }
    }
  ],
  "meshes" : [
    {
      "primitives" : [
        {
          "attributes" : {
            "POSITION" : 1,
            "NORMAL" : 2,
            "TANGENT" : 3,
            "TEXCOORD_0" : 4
          },
          "indices" : 0,
          "material" : 0
        },
        {
          "attributes" : {
            "POSITION" : 6,
            "NORMAL" : 7,
            "TANGENT" : 8,
            "TEXCOORD_0" : 9
          },
          "indices" : 5,
          "material" : 1
        }
      ],
      "name" : "SM_Sensor_1x1x1s"
    }
  ],
  "buffers" : [
    {
      "uri" : "SM_Sensor_1x1x1s.bin",
      "byteLength" : 10632
    }
  ],
  "bufferViews" : [
    {
      "buffer" : 0,
      "byteOffset" : 0,
      "byteLength" : 1044
    },
    {
      "buffer" : 0,
      "byteOffset" : 1044,
      "byteLength" : 2184
    },
    {
      "buffer" : 0,
      "byteOffset" : 3228,
      "byteLength" : 2184
    },
    {
      "buffer" : 0,
      "byteOffset" : 5412,
      "byteLength" : 2912
    },
    {
      "buffer" : 0,
      "byteOffset" : 8324,
      "byteLength" : 1456
    },
    {
      "buffer" : 0,
      "byteOffset" : 9780,
      "byteLength" : 84
    },
    {
      "buffer" : 0,
      "byteOffset" : 9864,
      "byteLength" : 192
    },
    {
      "buffer" : 0,
      "byteOffset" : 10056,
      "byteLength" : 192
    },
    {
      "buffer" : 0,
      "byteOffset" : 10248,
      "byteLength" : 256
    },
    {
      "buffer" : 0,
      "byteOffset" : 10504,
      "byteLength" : 128
    }
  ],
  "accessors" : [
    {
      "bufferView" : 0,
      "componentType" : 5123,
      "count" : 522,
      "type" : "SCALAR"
    },
    {
      "bufferView" : 1,
      "min" : [ -0.15, -2.44381e-08, -0.15 ],
      "max" : [ 0.15, 0.1, 0.15 ],
      "componentType" : 5126,
      "count" : 182,
      "type" : "VEC3"
    },
    {
      "bufferView" : 2,
      "componentType" : 5126,
      "count" : 182,
      "type" : "VEC3"
    },
    {
      "bufferView" : 3,
      "componentType" : 5126,
      "count" : 182,
      "type" : "VEC4"
    },
    {
      "bufferView" : 4,
      "componentType" : 5126,
      "count" : 182,
      "type" : "VEC2"
    },
    {
      "bufferView" : 5,
      "componentType" : 5123,
      "count" : 42,
      "type" : "SCALAR"
    },
    {
      "bufferView" : 6,
      "min" : [ -0.105, 0.075, -0.105 ],
      "max" : [ 0.105, 0.075, 0.105 ],
      "componentType" : 5126,
      "count" : 16,
      "type" : "VEC3"
    },
    {
      "bufferView" : 7,
      "componentType" : 5126,
      "count" : 16,
      "type" : "VEC3"
    },
    {
      "bufferView" : 8,
      "componentType" : 5126,
      "count" : 16,
      "type" : "VEC4"
    },
    {
      "bufferView" : 9,
      "componentType" : 5126,
      "count" : 16,
      "type" : "VEC2"
    }
  ]
}
