{
  "asset" : {
    "generator" : "UE Viewer (umodel) build 1590",
    "version" : "2.0"
  },
  "scene" : 0,
  "scenes" : [
    {
      "nodes" : [ 0 ]
    }
  ],
  "nodes" : [
    {
      "name" : "SM_Sensor_1sx1sx1s",
      "mesh" : 0
    }
  ],
  "materials" : [
    {
      "name" : "M_Brick",
      "pbrMetallicRoughness" : {
        "baseColorFactor" : [ 0.3, 0.3, 0.3, 1.0 ],
        "metallicFactor" : 0.1,
        "roughnessFactor" : 0.5
      }
    },
    {
      "name" : "M_FuturisticGrid",
      "pbrMetallicRoughness" : {
        "baseColorFactor" : [ 0.9, 0.3, 0.3, 1.0 ],
        "metallicFactor" : 0.1,
        "roughnessFactor" : 0.5
      }
    }
  ],
  "meshes" : [
    {
      "primitives" : [
        {
          "attributes" : {
            "POSITION" : 1,
            "NORMAL" : 2,
            "TANGENT" : 3,
            "TEXCOORD_0" : 4
          },
          "indices" : 0,
          "material" : 0
        },
        {
          "attributes" : {
            "POSITION" : 6,
            "NORMAL" : 7,
            "TANGENT" : 8,
            "TEXCOORD_0" : 9
          },
          "indices" : 5,
          "material" : 1
        }
      ],
      "name" : "SM_Sensor_1sx1sx1s"
    }
  ],
  "buffers" : [
    {
      "uri" : "SM_Sensor_1sx1sx1s.bin",
      "byteLength" : 1224
    }
  ],
  "bufferViews" : [
    {
      "buffer" : 0,
      "byteOffset" : 0,
      "byteLength" : 60
    },
    {
      "buffer" : 0,
      "byteOffset" : 60,
      "byteLength" : 240
    },
    {
      "buffer" : 0,
      "byteOffset" : 300,
      "byteLength" : 240
    },
    {
      "buffer" : 0,
      "byteOffset" : 540,
      "byteLength" : 320
    },
    {
      "buffer" : 0,
      "byteOffset" : 860,
      "byteLength" : 160
    },
    {
      "buffer" : 0,
      "byteOffset" : 1020,
      "byteLength" : 12
    },
    {
      "buffer" : 0,
      "byteOffset" : 1032,
      "byteLength" : 48
    },
    {
      "buffer" : 0,
      "byteOffset" : 1080,
      "byteLength" : 48
    },
    {
      "buffer" : 0,
      "byteOffset" : 1128,
      "byteLength" : 64
    },
    {
      "buffer" : 0,
      "byteOffset" : 1192,
      "byteLength" : 32
    }
  ],
  "accessors" : [
    {
      "bufferView" : 0,
      "componentType" : 5123,
      "count" : 30,
      "type" : "SCALAR"
    },
    {
      "bufferView" : 1,
      "min" : [ -0.05, -8.14603e-09, -0.05 ],
      "max" : [ 0.05, 0.1, 0.05 ],
      "componentType" : 5126,
      "count" : 20,
      "type" : "VEC3"
    },
    {
      "bufferView" : 2,
      "componentType" : 5126,
      "count" : 20,
      "type" : "VEC3"
    },
    {
      "bufferView" : 3,
      "componentType" : 5126,
      "count" : 20,
      "type" : "VEC4"
    },
    {
      "bufferView" : 4,
      "componentType" : 5126,
      "count" : 20,
      "type" : "VEC2"
    },
    {
      "bufferView" : 5,
      "componentType" : 5123,
      "count" : 6,
      "type" : "SCALAR"
    },
    {
      "bufferView" : 6,
      "min" : [ -0.05, 0.1, -0.05 ],
      "max" : [ 0.05, 0.1, 0.05 ],
      "componentType" : 5126,
      "count" : 4,
      "type" : "VEC3"
    },
    {
      "bufferView" : 7,
      "componentType" : 5126,
      "count" : 4,
      "type" : "VEC3"
    },
    {
      "bufferView" : 8,
      "componentType" : 5126,
      "count" : 4,
      "type" : "VEC4"
    },
    {
      "bufferView" : 9,
      "componentType" : 5126,
      "count" : 4,
      "type" : "VEC2"
    }
  ]
}
