{
  "asset" : {
    "generator" : "UE Viewer (umodel) build 1590",
    "version" : "2.0"
  },
  "scene" : 0,
  "scenes" : [
    {
      "nodes" : [ 0 ]
    }
  ],
  "nodes" : [
    {
      "name" : "SM_Thruster_1x1x3",
      "mesh" : 0
    }
  ],
  "materials" : [
    {
      "name" : "M_Brick",
      "pbrMetallicRoughness" : {
        "baseColorFactor" : [ 0.3, 0.3, 0.3, 1.0 ],
        "metallicFactor" : 0.1,
        "roughnessFactor" : 0.5
      }
    },
    {
      "name" : "M_Brick_Chrome",
      "pbrMetallicRoughness" : {
        "baseColorFactor" : [ 0.9, 0.3, 0.3, 1.0 ],
        "metallicFactor" : 0.1,
        "roughnessFactor" : 0.5
      }
    },
    {
      "name" : "BlackUnlitMaterial",
      "pbrMetallicRoughness" : {
        "baseColorFactor" : [ 0.3, 0.9, 0.3, 1.0 ],
        "metallicFactor" : 0.1,
        "roughnessFactor" : 0.5
      }
    }
  ],
  "meshes" : [
    {
      "primitives" : [
        {
          "attributes" : {
            "POSITION" : 1,
            "NORMAL" : 2,
            "TANGENT" : 3,
            "TEXCOORD_0" : 4
          },
          "indices" : 0,
          "material" : 0
        },
        {
          "attributes" : {
            "POSITION" : 6,
            "NORMAL" : 7,
            "TANGENT" : 8,
            "TEXCOORD_0" : 9
          },
          "indices" : 5,
          "material" : 1
        },
        {
          "attributes" : {
            "POSITION" : 11,
            "NORMAL" : 12,
            "TANGENT" : 13,
            "TEXCOORD_0" : 14
          },
          "indices" : 10,
          "material" : 2
        }
      ],
      "name" : "SM_Thruster_1x1x3"
    }
  ],
  "buffers" : [
    {
      "uri" : "SM_Thruster_1x1x3.bin",
      "byteLength" : 10584
    }
  ],
  "bufferViews" : [
    {
      "buffer" : 0,
      "byteOffset" : 0,
      "byteLength" : 552
    },
    {
      "buffer" : 0,
      "byteOffset" : 552,
      "byteLength" : 1200
    },
    {
      "buffer" : 0,
      "byteOffset" : 1752,
      "byteLength" : 1200
    },
    {
      "buffer" : 0,
      "byteOffset" : 2952,
      "byteLength" : 1600
    },
    {
      "buffer" : 0,
      "byteOffset" : 4552,
      "byteLength" : 800
    },
    {
      "buffer" : 0,
      "byteOffset" : 5352,
      "byteLength" : 384
    },
    {
      "buffer" : 0,
      "byteOffset" : 5736,
      "byteLength" : 792
    },
    {
      "buffer" : 0,
      "byteOffset" : 6528,
      "byteLength" : 792
    },
    {
      "buffer" : 0,
      "byteOffset" : 7320,
      "byteLength" : 1056
    },
    {
      "buffer" : 0,
      "byteOffset" : 8376,
      "byteLength" : 528
    },
    {
      "buffer" : 0,
      "byteOffset" : 8904,
      "byteLength" : 96
    },
    {
      "buffer" : 0,
      "byteOffset" : 9000,
      "byteLength" : 396
    },
    {
      "buffer" : 0,
      "byteOffset" : 9396,
      "byteLength" : 396
    },
    {
      "buffer" : 0,
      "byteOffset" : 9792,
      "byteLength" : 528
    },
    {
      "buffer" : 0,
      "byteOffset" : 10320,
      "byteLength" : 264
    }
  ],
  "accessors" : [
    {
      "bufferView" : 0,
      "componentType" : 5123,
      "count" : 276,
      "type" : "SCALAR"
    },
    {
      "bufferView" : 1,
      "min" : [ -0.15, -0.8, -0.15 ],
      "max" : [ 0.15, 0.05, 0.15 ],
      "componentType" : 5126,
      "count" : 100,
      "type" : "VEC3"
    },
    {
      "bufferView" : 2,
      "componentType" : 5126,
      "count" : 100,
      "type" : "VEC3"
    },
    {
      "bufferView" : 3,
      "componentType" : 5126,
      "count" : 100,
      "type" : "VEC4"
    },
    {
      "bufferView" : 4,
      "componentType" : 5126,
      "count" : 100,
      "type" : "VEC2"
    },
    {
      "bufferView" : 5,
      "componentType" : 5123,
      "count" : 192,
      "type" : "SCALAR"
    },
    {
      "bufferView" : 6,
      "min" : [ -0.15, -0.9, -0.15 ],
      "max" : [ 0.15, -0.8, 0.15 ],
      "componentType" : 5126,
      "count" : 66,
      "type" : "VEC3"
    },
    {
      "bufferView" : 7,
      "componentType" : 5126,
      "count" : 66,
      "type" : "VEC3"
    },
    {
      "bufferView" : 8,
      "componentType" : 5126,
      "count" : 66,
      "type" : "VEC4"
    },
    {
      "bufferView" : 9,
      "componentType" : 5126,
      "count" : 66,
      "type" : "VEC2"
    },
    {
      "bufferView" : 10,
      "componentType" : 5123,
      "count" : 48,
      "type" : "SCALAR"
    },
    {
      "bufferView" : 11,
      "min" : [ -0.105, -0.9, -0.105 ],
      "max" : [ 0.105, -0.8, 0.105 ],
      "componentType" : 5126,
      "count" : 33,
      "type" : "VEC3"
    },
    {
      "bufferView" : 12,
      "componentType" : 5126,
      "count" : 33,
      "type" : "VEC3"
    },
    {
      "bufferView" : 13,
      "componentType" : 5126,
      "count" : 33,
      "type" : "VEC4"
    },
    {
      "bufferView" : 14,
      "componentType" : 5126,
      "count" : 33,
      "type" : "VEC2"
    }
  ]
}
