{
  "asset" : {
    "generator" : "UE Viewer (umodel) build 1590",
    "version" : "2.0"
  },
  "scene" : 0,
  "scenes" : [
    {
      "nodes" : [ 0 ]
    }
  ],
  "nodes" : [
    {
      "name" : "SM_Track",
      "mesh" : 0
    }
  ],
  "materials" : [
    {
      "name" : "M_Track",
      "pbrMetallicRoughness" : {
        "baseColorFactor" : [ 0.3, 0.3, 0.3, 1.0 ],
        "metallicFactor" : 0.1,
        "roughnessFactor" : 0.5
      }
    }
  ],
  "meshes" : [
    {
      "primitives" : [
        {
          "attributes" : {
            "POSITION" : 1,
            "NORMAL" : 2,
            "TANGENT" : 3,
            "COLOR_0" : 4,
            "TEXCOORD_0" : 5
          },
          "indices" : 0,
          "material" : 0
        }
      ],
      "name" : "SM_Track"
    }
  ],
  "buffers" : [
    {
      "uri" : "SM_Track.bin",
      "byteLength" : 6880
    }
  ],
  "bufferViews" : [
    {
      "buffer" : 0,
      "byteOffset" : 0,
      "byteLength" : 432
    },
    {
      "buffer" : 0,
      "byteOffset" : 432,
      "byteLength" : 1488
    },
    {
      "buffer" : 0,
      "byteOffset" : 1920,
      "byteLength" : 1488
    },
    {
      "buffer" : 0,
      "byteOffset" : 3408,
      "byteLength" : 1984
    },
    {
      "buffer" : 0,
      "byteOffset" : 5392,
      "byteLength" : 496
    },
    {
      "buffer" : 0,
      "byteOffset" : 5888,
      "byteLength" : 992
    }
  ],
  "accessors" : [
    {
      "bufferView" : 0,
      "componentType" : 5123,
      "count" : 216,
      "type" : "SCALAR"
    },
    {
      "bufferView" : 1,
      "min" : [ -0.2, -0.05, -0.32 ],
      "max" : [ 0.23, 0.0700001, 0.32 ],
      "componentType" : 5126,
      "count" : 124,
      "type" : "VEC3"
    },
    {
      "bufferView" : 2,
      "componentType" : 5126,
      "count" : 124,
      "type" : "VEC3"
    },
    {
      "bufferView" : 3,
      "componentType" : 5126,
      "count" : 124,
      "type" : "VEC4"
    },
    {
      "bufferView" : 4,
      "normalized" : true,
      "componentType" : 5121,
      "count" : 124,
      "type" : "VEC4"
    },
    {
      "bufferView" : 5,
      "componentType" : 5126,
      "count" : 124,
      "type" : "VEC2"
    }
  ]
}
