{
  "asset" : {
    "generator" : "UE Viewer (umodel) build 1590",
    "version" : "2.0"
  },
  "scene" : 0,
  "scenes" : [
    {
      "nodes" : [ 0 ]
    }
  ],
  "nodes" : [
    {
      "name" : "SM_Tank_2x2x4",
      "mesh" : 0
    }
  ],
  "materials" : [
    {
      "name" : "M_Brick",
      "pbrMetallicRoughness" : {
        "baseColorFactor" : [ 0.3, 0.3, 0.3, 1.0 ],
        "metallicFactor" : 0.1,
        "roughnessFactor" : 0.5
      }
    }
  ],
  "meshes" : [
    {
      "primitives" : [
        {
          "attributes" : {
            "POSITION" : 1,
            "NORMAL" : 2,
            "TANGENT" : 3,
            "TEXCOORD_0" : 4
          },
          "indices" : 0,
          "material" : 0
        }
      ],
      "name" : "SM_Tank_2x2x4"
    }
  ],
  "buffers" : [
    {
      "uri" : "SM_Tank_2x2x4.bin",
      "byteLength" : 47832
    }
  ],
  "bufferViews" : [
    {
      "buffer" : 0,
      "byteOffset" : 0,
      "byteLength" : 4584
    },
    {
      "buffer" : 0,
      "byteOffset" : 4584,
      "byteLength" : 10812
    },
    {
      "buffer" : 0,
      "byteOffset" : 15396,
      "byteLength" : 10812
    },
    {
      "buffer" : 0,
      "byteOffset" : 26208,
      "byteLength" : 14416
    },
    {
      "buffer" : 0,
      "byteOffset" : 40624,
      "byteLength" : 7208
    }
  ],
  "accessors" : [
    {
      "bufferView" : 0,
      "componentType" : 5123,
      "count" : 2292,
      "type" : "SCALAR"
    },
    {
      "bufferView" : 1,
      "min" : [ -0.3, -4.88762e-08, -0.3 ],
      "max" : [ 0.35, 1.25, 0.3 ],
      "componentType" : 5126,
      "count" : 901,
      "type" : "VEC3"
    },
    {
      "bufferView" : 2,
      "componentType" : 5126,
      "count" : 901,
      "type" : "VEC3"
    },
    {
      "bufferView" : 3,
      "componentType" : 5126,
      "count" : 901,
      "type" : "VEC4"
    },
    {
      "bufferView" : 4,
      "componentType" : 5126,
      "count" : 901,
      "type" : "VEC2"
    }
  ]
}
