{
  "asset" : {
    "generator" : "UE Viewer (umodel) build 1590",
    "version" : "2.0"
  },
  "scene" : 0,
  "scenes" : [
    {
      "nodes" : [ 0 ]
    }
  ],
  "nodes" : [
    {
      "name" : "SM_TargetMarker_1x1x1",
      "mesh" : 0
    }
  ],
  "materials" : [
    {
      "name" : "M_Brick",
      "pbrMetallicRoughness" : {
        "baseColorFactor" : [ 0.3, 0.3, 0.3, 1.0 ],
        "metallicFactor" : 0.1,
        "roughnessFactor" : 0.5
      }
    },
    {
      "name" : "M_TargetMarker_Inst",
      "pbrMetallicRoughness" : {
        "baseColorFactor" : [ 0.9, 0.3, 0.3, 1.0 ],
        "metallicFactor" : 0.1,
        "roughnessFactor" : 0.5
      }
    }
  ],
  "meshes" : [
    {
      "primitives" : [
        {
          "attributes" : {
            "POSITION" : 1,
            "NORMAL" : 2,
            "TANGENT" : 3,
            "TEXCOORD_0" : 4
          },
          "indices" : 0,
          "material" : 0
        },
        {
          "attributes" : {
            "POSITION" : 6,
            "NORMAL" : 7,
            "TANGENT" : 8,
            "TEXCOORD_0" : 9
          },
          "indices" : 5,
          "material" : 1
        }
      ],
      "name" : "SM_TargetMarker_1x1x1"
    }
  ],
  "buffers" : [
    {
      "uri" : "SM_TargetMarker_1x1x1.bin",
      "byteLength" : 13404
    }
  ],
  "bufferViews" : [
    {
      "buffer" : 0,
      "byteOffset" : 0,
      "byteLength" : 1212
    },
    {
      "buffer" : 0,
      "byteOffset" : 1212,
      "byteLength" : 2592
    },
    {
      "buffer" : 0,
      "byteOffset" : 3804,
      "byteLength" : 2592
    },
    {
      "buffer" : 0,
      "byteOffset" : 6396,
      "byteLength" : 3456
    },
    {
      "buffer" : 0,
      "byteOffset" : 9852,
      "byteLength" : 1728
    },
    {
      "buffer" : 0,
      "byteOffset" : 11580,
      "byteLength" : 192
    },
    {
      "buffer" : 0,
      "byteOffset" : 11772,
      "byteLength" : 408
    },
    {
      "buffer" : 0,
      "byteOffset" : 12180,
      "byteLength" : 408
    },
    {
      "buffer" : 0,
      "byteOffset" : 12588,
      "byteLength" : 544
    },
    {
      "buffer" : 0,
      "byteOffset" : 13132,
      "byteLength" : 272
    }
  ],
  "accessors" : [
    {
      "bufferView" : 0,
      "componentType" : 5123,
      "count" : 606,
      "type" : "SCALAR"
    },
    {
      "bufferView" : 1,
      "min" : [ -0.15, -2.44381e-08, -0.15 ],
      "max" : [ 0.15, 0.35, 0.15 ],
      "componentType" : 5126,
      "count" : 216,
      "type" : "VEC3"
    },
    {
      "bufferView" : 2,
      "componentType" : 5126,
      "count" : 216,
      "type" : "VEC3"
    },
    {
      "bufferView" : 3,
      "componentType" : 5126,
      "count" : 216,
      "type" : "VEC4"
    },
    {
      "bufferView" : 4,
      "componentType" : 5126,
      "count" : 216,
      "type" : "VEC2"
    },
    {
      "bufferView" : 5,
      "componentType" : 5123,
      "count" : 96,
      "type" : "SCALAR"
    },
    {
      "bufferView" : 6,
      "min" : [ -0.15, 0.1, -0.15 ],
      "max" : [ 0.15, 0.2, 0.15 ],
      "componentType" : 5126,
      "count" : 34,
      "type" : "VEC3"
    },
    {
      "bufferView" : 7,
      "componentType" : 5126,
      "count" : 34,
      "type" : "VEC3"
    },
    {
      "bufferView" : 8,
      "componentType" : 5126,
      "count" : 34,
      "type" : "VEC4"
    },
    {
      "bufferView" : 9,
      "componentType" : 5126,
      "count" : 34,
      "type" : "VEC2"
    }
  ]
}
