{
  "asset" : {
    "generator" : "UE Viewer (umodel) build 1590",
    "version" : "2.0"
  },
  "scene" : 0,
  "scenes" : [
    {
      "nodes" : [ 0 ]
    }
  ],
  "nodes" : [
    {
      "name" : "SM_TrainWheel_4x2s",
      "mesh" : 0
    }
  ],
  "materials" : [
    {
      "name" : "M_Brick",
      "pbrMetallicRoughness" : {
        "baseColorFactor" : [ 0.3, 0.3, 0.3, 1.0 ],
        "metallicFactor" : 0.1,
        "roughnessFactor" : 0.5
      }
    }
  ],
  "meshes" : [
    {
      "primitives" : [
        {
          "attributes" : {
            "POSITION" : 1,
            "NORMAL" : 2,
            "TANGENT" : 3,
            "COLOR_0" : 4,
            "TEXCOORD_0" : 5
          },
          "indices" : 0,
          "material" : 0
        }
      ],
      "name" : "SM_TrainWheel_4x2s"
    }
  ],
  "buffers" : [
    {
      "uri" : "SM_TrainWheel_4x2s.bin",
      "byteLength" : 24992
    }
  ],
  "bufferViews" : [
    {
      "buffer" : 0,
      "byteOffset" : 0,
      "byteLength" : 2268
    },
    {
      "buffer" : 0,
      "byteOffset" : 2268,
      "byteLength" : 5244
    },
    {
      "buffer" : 0,
      "byteOffset" : 7512,
      "byteLength" : 5244
    },
    {
      "buffer" : 0,
      "byteOffset" : 12756,
      "byteLength" : 6992
    },
    {
      "buffer" : 0,
      "byteOffset" : 19748,
      "byteLength" : 1748
    },
    {
      "buffer" : 0,
      "byteOffset" : 21496,
      "byteLength" : 3496
    }
  ],
  "accessors" : [
    {
      "bufferView" : 0,
      "componentType" : 5123,
      "count" : 1134,
      "type" : "SCALAR"
    },
    {
      "bufferView" : 1,
      "min" : [ -1.90735e-08, -0.55755, -0.55755 ],
      "max" : [ 0.25, 0.55755, 0.55755 ],
      "componentType" : 5126,
      "count" : 437,
      "type" : "VEC3"
    },
    {
      "bufferView" : 2,
      "componentType" : 5126,
      "count" : 437,
      "type" : "VEC3"
    },
    {
      "bufferView" : 3,
      "componentType" : 5126,
      "count" : 437,
      "type" : "VEC4"
    },
    {
      "bufferView" : 4,
      "normalized" : true,
      "componentType" : 5121,
      "count" : 437,
      "type" : "VEC4"
    },
    {
      "bufferView" : 5,
      "componentType" : 5126,
      "count" : 437,
      "type" : "VEC2"
    }
  ]
}
