{
  "asset" : {
    "generator" : "UE Viewer (umodel) build 1590",
    "version" : "2.0"
  },
  "scene" : 0,
  "scenes" : [
    {
      "nodes" : [ 0 ]
    }
  ],
  "nodes" : [
    {
      "name" : "SM_Windscreen_2x4x3",
      "mesh" : 0
    }
  ],
  "materials" : [
    {
      "name" : "M_Brick_Translucent",
      "pbrMetallicRoughness" : {
        "baseColorFactor" : [ 0.3, 0.3, 0.3, 1.0 ],
        "metallicFactor" : 0.1,
        "roughnessFactor" : 0.5
      }
    }
  ],
  "meshes" : [
    {
      "primitives" : [
        {
          "attributes" : {
            "POSITION" : 1,
            "NORMAL" : 2,
            "TANGENT" : 3,
            "TEXCOORD_0" : 4
          },
          "indices" : 0,
          "material" : 0
        }
      ],
      "name" : "SM_Windscreen_2x4x3"
    }
  ],
  "buffers" : [
    {
      "uri" : "SM_Windscreen_2x4x3.bin",
      "byteLength" : 32724
    }
  ],
  "bufferViews" : [
    {
      "buffer" : 0,
      "byteOffset" : 0,
      "byteLength" : 3300
    },
    {
      "buffer" : 0,
      "byteOffset" : 3300,
      "byteLength" : 7356
    },
    {
      "buffer" : 0,
      "byteOffset" : 10656,
      "byteLength" : 7356
    },
    {
      "buffer" : 0,
      "byteOffset" : 18012,
      "byteLength" : 9808
    },
    {
      "buffer" : 0,
      "byteOffset" : 27820,
      "byteLength" : 4904
    }
  ],
  "accessors" : [
    {
      "bufferView" : 0,
      "componentType" : 5123,
      "count" : 1650,
      "type" : "SCALAR"
    },
    {
      "bufferView" : 1,
      "min" : [ -0.3, -1.58728e-07, -0.6 ],
      "max" : [ 0.3, 0.95, 0.6 ],
      "componentType" : 5126,
      "count" : 613,
      "type" : "VEC3"
    },
    {
      "bufferView" : 2,
      "componentType" : 5126,
      "count" : 613,
      "type" : "VEC3"
    },
    {
      "bufferView" : 3,
      "componentType" : 5126,
      "count" : 613,
      "type" : "VEC4"
    },
    {
      "bufferView" : 4,
      "componentType" : 5126,
      "count" : 613,
      "type" : "VEC2"
    }
  ]
}
