{
  "asset" : {
    "generator" : "UE Viewer (umodel) build 1590",
    "version" : "2.0"
  },
  "scene" : 0,
  "scenes" : [
    {
      "nodes" : [ 0 ]
    }
  ],
  "nodes" : [
    {
      "name" : "SM_Windscreen_2x6x2",
      "mesh" : 0
    }
  ],
  "materials" : [
    {
      "name" : "M_Brick_Translucent",
      "pbrMetallicRoughness" : {
        "baseColorFactor" : [ 0.3, 0.3, 0.3, 1.0 ],
        "metallicFactor" : 0.1,
        "roughnessFactor" : 0.5
      }
    }
  ],
  "meshes" : [
    {
      "primitives" : [
        {
          "attributes" : {
            "POSITION" : 1,
            "NORMAL" : 2,
            "TANGENT" : 3,
            "TEXCOORD_0" : 4
          },
          "indices" : 0,
          "material" : 0
        }
      ],
      "name" : "SM_Windscreen_2x6x2"
    }
  ],
  "buffers" : [
    {
      "uri" : "SM_Windscreen_2x6x2.bin",
      "byteLength" : 40932
    }
  ],
  "bufferViews" : [
    {
      "buffer" : 0,
      "byteOffset" : 0,
      "byteLength" : 4164
    },
    {
      "buffer" : 0,
      "byteOffset" : 4164,
      "byteLength" : 9192
    },
    {
      "buffer" : 0,
      "byteOffset" : 13356,
      "byteLength" : 9192
    },
    {
      "buffer" : 0,
      "byteOffset" : 22548,
      "byteLength" : 12256
    },
    {
      "buffer" : 0,
      "byteOffset" : 34804,
      "byteLength" : 6128
    }
  ],
  "accessors" : [
    {
      "bufferView" : 0,
      "componentType" : 5123,
      "count" : 2082,
      "type" : "SCALAR"
    },
    {
      "bufferView" : 1,
      "min" : [ -0.3, -2.56481e-07, -0.9 ],
      "max" : [ 0.3, 0.65, 0.9 ],
      "componentType" : 5126,
      "count" : 766,
      "type" : "VEC3"
    },
    {
      "bufferView" : 2,
      "componentType" : 5126,
      "count" : 766,
      "type" : "VEC3"
    },
    {
      "bufferView" : 3,
      "componentType" : 5126,
      "count" : 766,
      "type" : "VEC4"
    },
    {
      "bufferView" : 4,
      "componentType" : 5126,
      "count" : 766,
      "type" : "VEC2"
    }
  ]
}
