{
  "asset" : {
    "generator" : "UE Viewer (umodel) build 1590",
    "version" : "2.0"
  },
  "scene" : 0,
  "scenes" : [
    {
      "nodes" : [ 0 ]
    }
  ],
  "nodes" : [
    {
      "name" : "SM_Windscreen_4x6x3",
      "mesh" : 0
    }
  ],
  "materials" : [
    {
      "name" : "M_Brick_Translucent",
      "pbrMetallicRoughness" : {
        "baseColorFactor" : [ 0.3, 0.3, 0.3, 1.0 ],
        "metallicFactor" : 0.1,
        "roughnessFactor" : 0.5
      }
    }
  ],
  "meshes" : [
    {
      "primitives" : [
        {
          "attributes" : {
            "POSITION" : 1,
            "NORMAL" : 2,
            "TANGENT" : 3,
            "TEXCOORD_0" : 4
          },
          "indices" : 0,
          "material" : 0
        }
      ],
      "name" : "SM_Windscreen_4x6x3"
    }
  ],
  "buffers" : [
    {
      "uri" : "SM_Windscreen_4x6x3.bin",
      "byteLength" : 33972
    }
  ],
  "bufferViews" : [
    {
      "buffer" : 0,
      "byteOffset" : 0,
      "byteLength" : 2964
    },
    {
      "buffer" : 0,
      "byteOffset" : 2964,
      "byteLength" : 7752
    },
    {
      "buffer" : 0,
      "byteOffset" : 10716,
      "byteLength" : 7752
    },
    {
      "buffer" : 0,
      "byteOffset" : 18468,
      "byteLength" : 10336
    },
    {
      "buffer" : 0,
      "byteOffset" : 28804,
      "byteLength" : 5168
    }
  ],
  "accessors" : [
    {
      "bufferView" : 0,
      "componentType" : 5123,
      "count" : 1482,
      "type" : "SCALAR"
    },
    {
      "bufferView" : 1,
      "min" : [ -0.6, -1.50443e-07, -0.9 ],
      "max" : [ 0.6, 0.95, 0.9 ],
      "componentType" : 5126,
      "count" : 646,
      "type" : "VEC3"
    },
    {
      "bufferView" : 2,
      "componentType" : 5126,
      "count" : 646,
      "type" : "VEC3"
    },
    {
      "bufferView" : 3,
      "componentType" : 5126,
      "count" : 646,
      "type" : "VEC4"
    },
    {
      "bufferView" : 4,
      "componentType" : 5126,
      "count" : 646,
      "type" : "VEC2"
    }
  ]
}
