{
  "asset" : {
    "generator" : "UE Viewer (umodel) build 1590",
    "version" : "2.0"
  },
  "scene" : 0,
  "scenes" : [
    {
      "nodes" : [ 0 ]
    }
  ],
  "nodes" : [
    {
      "name" : "SM_Winch_3x2x1",
      "mesh" : 0
    }
  ],
  "materials" : [
    {
      "name" : "M_Brick",
      "pbrMetallicRoughness" : {
        "baseColorFactor" : [ 0.3, 0.3, 0.3, 1.0 ],
        "metallicFactor" : 0.1,
        "roughnessFactor" : 0.5
      }
    },
    {
      "name" : "M_SteelRope",
      "pbrMetallicRoughness" : {
        "baseColorFactor" : [ 0.9, 0.3, 0.3, 1.0 ],
        "metallicFactor" : 0.1,
        "roughnessFactor" : 0.5
      }
    }
  ],
  "meshes" : [
    {
      "primitives" : [
        {
          "attributes" : {
            "POSITION" : 1,
            "NORMAL" : 2,
            "TANGENT" : 3,
            "TEXCOORD_0" : 4
          },
          "indices" : 0,
          "material" : 0
        },
        {
          "attributes" : {
            "POSITION" : 6,
            "NORMAL" : 7,
            "TANGENT" : 8,
            "TEXCOORD_0" : 9
          },
          "indices" : 5,
          "material" : 1
        }
      ],
      "name" : "SM_Winch_3x2x1"
    }
  ],
  "buffers" : [
    {
      "uri" : "SM_Winch_3x2x1.bin",
      "byteLength" : 23916
    }
  ],
  "bufferViews" : [
    {
      "buffer" : 0,
      "byteOffset" : 0,
      "byteLength" : 2220
    },
    {
      "buffer" : 0,
      "byteOffset" : 2220,
      "byteLength" : 4968
    },
    {
      "buffer" : 0,
      "byteOffset" : 7188,
      "byteLength" : 4968
    },
    {
      "buffer" : 0,
      "byteOffset" : 12156,
      "byteLength" : 6624
    },
    {
      "buffer" : 0,
      "byteOffset" : 18780,
      "byteLength" : 3312
    },
    {
      "buffer" : 0,
      "byteOffset" : 22092,
      "byteLength" : 192
    },
    {
      "buffer" : 0,
      "byteOffset" : 22284,
      "byteLength" : 408
    },
    {
      "buffer" : 0,
      "byteOffset" : 22692,
      "byteLength" : 408
    },
    {
      "buffer" : 0,
      "byteOffset" : 23100,
      "byteLength" : 544
    },
    {
      "buffer" : 0,
      "byteOffset" : 23644,
      "byteLength" : 272
    }
  ],
  "accessors" : [
    {
      "bufferView" : 0,
      "componentType" : 5123,
      "count" : 1110,
      "type" : "SCALAR"
    },
    {
      "bufferView" : 1,
      "min" : [ -0.3, -5.26909e-08, -0.3 ],
      "max" : [ 0.6, 0.3, 0.3 ],
      "componentType" : 5126,
      "count" : 414,
      "type" : "VEC3"
    },
    {
      "bufferView" : 2,
      "componentType" : 5126,
      "count" : 414,
      "type" : "VEC3"
    },
    {
      "bufferView" : 3,
      "componentType" : 5126,
      "count" : 414,
      "type" : "VEC4"
    },
    {
      "bufferView" : 4,
      "componentType" : 5126,
      "count" : 414,
      "type" : "VEC2"
    },
    {
      "bufferView" : 5,
      "componentType" : 5123,
      "count" : 96,
      "type" : "SCALAR"
    },
    {
      "bufferView" : 6,
      "min" : [ 0.35, 0.05, -0.2 ],
      "max" : [ 0.55, 0.25, 0.2 ],
      "componentType" : 5126,
      "count" : 34,
      "type" : "VEC3"
    },
    {
      "bufferView" : 7,
      "componentType" : 5126,
      "count" : 34,
      "type" : "VEC3"
    },
    {
      "bufferView" : 8,
      "componentType" : 5126,
      "count" : 34,
      "type" : "VEC4"
    },
    {
      "bufferView" : 9,
      "componentType" : 5126,
      "count" : 34,
      "type" : "VEC2"
    }
  ]
}
