{
  "asset" : {
    "generator" : "UE Viewer (umodel) build 1590",
    "version" : "2.0"
  },
  "scene" : 0,
  "scenes" : [
    {
      "nodes" : [ 0 ]
    }
  ],
  "nodes" : [
    {
      "name" : "SM_Wing_3x3x1s",
      "mesh" : 0
    }
  ],
  "materials" : [
    {
      "name" : "M_Brick",
      "pbrMetallicRoughness" : {
        "baseColorFactor" : [ 0.3, 0.3, 0.3, 1.0 ],
        "metallicFactor" : 0.1,
        "roughnessFactor" : 0.5
      }
    }
  ],
  "meshes" : [
    {
      "primitives" : [
        {
          "attributes" : {
            "POSITION" : 1,
            "NORMAL" : 2,
            "TANGENT" : 3,
            "TEXCOORD_0" : 4
          },
          "indices" : 0,
          "material" : 0
        }
      ],
      "name" : "SM_Wing_3x3x1s"
    }
  ],
  "buffers" : [
    {
      "uri" : "SM_Wing_3x3x1s.bin",
      "byteLength" : 30284
    }
  ],
  "bufferViews" : [
    {
      "buffer" : 0,
      "byteOffset" : 0,
      "byteLength" : 2876
    },
    {
      "buffer" : 0,
      "byteOffset" : 2876,
      "byteLength" : 6852
    },
    {
      "buffer" : 0,
      "byteOffset" : 9728,
      "byteLength" : 6852
    },
    {
      "buffer" : 0,
      "byteOffset" : 16580,
      "byteLength" : 9136
    },
    {
      "buffer" : 0,
      "byteOffset" : 25716,
      "byteLength" : 4568
    }
  ],
  "accessors" : [
    {
      "bufferView" : 0,
      "componentType" : 5123,
      "count" : 1437,
      "type" : "SCALAR"
    },
    {
      "bufferView" : 1,
      "min" : [ -0.45, -7.7129e-08, -0.45 ],
      "max" : [ 0.45, 0.15, 0.45 ],
      "componentType" : 5126,
      "count" : 571,
      "type" : "VEC3"
    },
    {
      "bufferView" : 2,
      "componentType" : 5126,
      "count" : 571,
      "type" : "VEC3"
    },
    {
      "bufferView" : 3,
      "componentType" : 5126,
      "count" : 571,
      "type" : "VEC4"
    },
    {
      "bufferView" : 4,
      "componentType" : 5126,
      "count" : 571,
      "type" : "VEC2"
    }
  ]
}
