{
  "asset" : {
    "generator" : "UE Viewer (umodel) build 1590",
    "version" : "2.0"
  },
  "scene" : 0,
  "scenes" : [
    {
      "nodes" : [ 0 ]
    }
  ],
  "nodes" : [
    {
      "name" : "SM_Wing_2x4x1s_R",
      "mesh" : 0
    }
  ],
  "materials" : [
    {
      "name" : "M_Brick",
      "pbrMetallicRoughness" : {
        "baseColorFactor" : [ 0.3, 0.3, 0.3, 1.0 ],
        "metallicFactor" : 0.1,
        "roughnessFactor" : 0.5
      }
    }
  ],
  "meshes" : [
    {
      "primitives" : [
        {
          "attributes" : {
            "POSITION" : 1,
            "NORMAL" : 2,
            "TANGENT" : 3,
            "TEXCOORD_0" : 4
          },
          "indices" : 0,
          "material" : 0
        }
      ],
      "name" : "SM_Wing_2x4x1s_R"
    }
  ],
  "buffers" : [
    {
      "uri" : "SM_Wing_2x4x1s_R.bin",
      "byteLength" : 20064
    }
  ],
  "bufferViews" : [
    {
      "buffer" : 0,
      "byteOffset" : 0,
      "byteLength" : 1968
    },
    {
      "buffer" : 0,
      "byteOffset" : 1968,
      "byteLength" : 4524
    },
    {
      "buffer" : 0,
      "byteOffset" : 6492,
      "byteLength" : 4524
    },
    {
      "buffer" : 0,
      "byteOffset" : 11016,
      "byteLength" : 6032
    },
    {
      "buffer" : 0,
      "byteOffset" : 17048,
      "byteLength" : 3016
    }
  ],
  "accessors" : [
    {
      "bufferView" : 0,
      "componentType" : 5123,
      "count" : 984,
      "type" : "SCALAR"
    },
    {
      "bufferView" : 1,
      "min" : [ -0.3, -2.44381e-08, -0.15 ],
      "max" : [ 0.3, 0.15, 1.05 ],
      "componentType" : 5126,
      "count" : 377,
      "type" : "VEC3"
    },
    {
      "bufferView" : 2,
      "componentType" : 5126,
      "count" : 377,
      "type" : "VEC3"
    },
    {
      "bufferView" : 3,
      "componentType" : 5126,
      "count" : 377,
      "type" : "VEC4"
    },
    {
      "bufferView" : 4,
      "componentType" : 5126,
      "count" : 377,
      "type" : "VEC2"
    }
  ]
}
