{
  "asset" : {
    "generator" : "UE Viewer (umodel) build 1590",
    "version" : "2.0"
  },
  "scene" : 0,
  "scenes" : [
    {
      "nodes" : [ 0 ]
    }
  ],
  "nodes" : [
    {
      "name" : "SM_WindowedDoor_R_3x1x4",
      "mesh" : 0
    }
  ],
  "materials" : [
    {
      "name" : "M_Brick",
      "pbrMetallicRoughness" : {
        "baseColorFactor" : [ 0.3, 0.3, 0.3, 1.0 ],
        "metallicFactor" : 0.1,
        "roughnessFactor" : 0.5
      }
    }
  ],
  "meshes" : [
    {
      "primitives" : [
        {
          "attributes" : {
            "POSITION" : 1,
            "NORMAL" : 2,
            "TANGENT" : 3,
            "TEXCOORD_0" : 4
          },
          "indices" : 0,
          "material" : 0
        }
      ],
      "name" : "SM_WindowedDoor_R_3x1x4"
    }
  ],
  "buffers" : [
    {
      "uri" : "SM_WindowedDoor_R_3x1x4.bin",
      "byteLength" : 15636
    }
  ],
  "bufferViews" : [
    {
      "buffer" : 0,
      "byteOffset" : 0,
      "byteLength" : 1620
    },
    {
      "buffer" : 0,
      "byteOffset" : 1620,
      "byteLength" : 3504
    },
    {
      "buffer" : 0,
      "byteOffset" : 5124,
      "byteLength" : 3504
    },
    {
      "buffer" : 0,
      "byteOffset" : 8628,
      "byteLength" : 4672
    },
    {
      "buffer" : 0,
      "byteOffset" : 13300,
      "byteLength" : 2336
    }
  ],
  "accessors" : [
    {
      "bufferView" : 0,
      "componentType" : 5123,
      "count" : 810,
      "type" : "SCALAR"
    },
    {
      "bufferView" : 1,
      "min" : [ -0.75, -2.75961e-08, -0.15 ],
      "max" : [ 0.15, 1.25, 0.19 ],
      "componentType" : 5126,
      "count" : 292,
      "type" : "VEC3"
    },
    {
      "bufferView" : 2,
      "componentType" : 5126,
      "count" : 292,
      "type" : "VEC3"
    },
    {
      "bufferView" : 3,
      "componentType" : 5126,
      "count" : 292,
      "type" : "VEC4"
    },
    {
      "bufferView" : 4,
      "componentType" : 5126,
      "count" : 292,
      "type" : "VEC2"
    }
  ]
}
