{
  "asset" : {
    "generator" : "UE Viewer (umodel) build 1590",
    "version" : "2.0"
  },
  "scene" : 0,
  "scenes" : [
    {
      "nodes" : [ 0 ]
    }
  ],
  "nodes" : [
    {
      "name" : "SM_Wheel_4x2",
      "mesh" : 0
    }
  ],
  "materials" : [
    {
      "name" : "M_Brick",
      "pbrMetallicRoughness" : {
        "baseColorFactor" : [ 0.3, 0.3, 0.3, 1.0 ],
        "metallicFactor" : 0.1,
        "roughnessFactor" : 0.5
      }
    },
    {
      "name" : "M_Wheel_4x2",
      "pbrMetallicRoughness" : {
        "baseColorFactor" : [ 0.9, 0.3, 0.3, 1.0 ],
        "metallicFactor" : 0.1,
        "roughnessFactor" : 0.5
      }
    }
  ],
  "meshes" : [
    {
      "primitives" : [
        {
          "attributes" : {
            "POSITION" : 1,
            "NORMAL" : 2,
            "TANGENT" : 3,
            "COLOR_0" : 4,
            "TEXCOORD_0" : 5
          },
          "indices" : 0,
          "material" : 0
        },
        {
          "attributes" : {
            "POSITION" : 7,
            "NORMAL" : 8,
            "TANGENT" : 9,
            "COLOR_0" : 10,
            "TEXCOORD_0" : 11
          },
          "indices" : 6,
          "material" : 1
        }
      ],
      "name" : "SM_Wheel_4x2"
    }
  ],
  "buffers" : [
    {
      "uri" : "SM_Wheel_4x2.bin",
      "byteLength" : 47700
    }
  ],
  "bufferViews" : [
    {
      "buffer" : 0,
      "byteOffset" : 0,
      "byteLength" : 2268
    },
    {
      "buffer" : 0,
      "byteOffset" : 2268,
      "byteLength" : 5976
    },
    {
      "buffer" : 0,
      "byteOffset" : 8244,
      "byteLength" : 5976
    },
    {
      "buffer" : 0,
      "byteOffset" : 14220,
      "byteLength" : 7968
    },
    {
      "buffer" : 0,
      "byteOffset" : 22188,
      "byteLength" : 1992
    },
    {
      "buffer" : 0,
      "byteOffset" : 24180,
      "byteLength" : 3984
    },
    {
      "buffer" : 0,
      "byteOffset" : 28164,
      "byteLength" : 2688
    },
    {
      "buffer" : 0,
      "byteOffset" : 30852,
      "byteLength" : 3888
    },
    {
      "buffer" : 0,
      "byteOffset" : 34740,
      "byteLength" : 3888
    },
    {
      "buffer" : 0,
      "byteOffset" : 38628,
      "byteLength" : 5184
    },
    {
      "buffer" : 0,
      "byteOffset" : 43812,
      "byteLength" : 1296
    },
    {
      "buffer" : 0,
      "byteOffset" : 45108,
      "byteLength" : 2592
    }
  ],
  "accessors" : [
    {
      "bufferView" : 0,
      "componentType" : 5123,
      "count" : 1134,
      "type" : "SCALAR"
    },
    {
      "bufferView" : 1,
      "min" : [ 0, -0.3375, -0.3375 ],
      "max" : [ 0.55, 0.3375, 0.3375 ],
      "componentType" : 5126,
      "count" : 498,
      "type" : "VEC3"
    },
    {
      "bufferView" : 2,
      "componentType" : 5126,
      "count" : 498,
      "type" : "VEC3"
    },
    {
      "bufferView" : 3,
      "componentType" : 5126,
      "count" : 498,
      "type" : "VEC4"
    },
    {
      "bufferView" : 4,
      "normalized" : true,
      "componentType" : 5121,
      "count" : 498,
      "type" : "VEC4"
    },
    {
      "bufferView" : 5,
      "componentType" : 5126,
      "count" : 498,
      "type" : "VEC2"
    },
    {
      "bufferView" : 6,
      "componentType" : 5123,
      "count" : 1344,
      "type" : "SCALAR"
    },
    {
      "bufferView" : 7,
      "min" : [ -0.010961, -0.598565, -0.598565 ],
      "max" : [ 0.560961, 0.598565, 0.598565 ],
      "componentType" : 5126,
      "count" : 324,
      "type" : "VEC3"
    },
    {
      "bufferView" : 8,
      "componentType" : 5126,
      "count" : 324,
      "type" : "VEC3"
    },
    {
      "bufferView" : 9,
      "componentType" : 5126,
      "count" : 324,
      "type" : "VEC4"
    },
    {
      "bufferView" : 10,
      "normalized" : true,
      "componentType" : 5121,
      "count" : 324,
      "type" : "VEC4"
    },
    {
      "bufferView" : 11,
      "componentType" : 5126,
      "count" : 324,
      "type" : "VEC2"
    }
  ]
}
