{
  "asset" : {
    "generator" : "UE Viewer (umodel) build 1590",
    "version" : "2.0"
  },
  "scene" : 0,
  "scenes" : [
    {
      "nodes" : [ 0 ]
    }
  ],
  "nodes" : [
    {
      "name" : "SM_Zylinder_2x2x1s_Flat",
      "mesh" : 0
    }
  ],
  "materials" : [
    {
      "name" : "M_Brick",
      "pbrMetallicRoughness" : {
        "baseColorFactor" : [ 0.3, 0.3, 0.3, 1.0 ],
        "metallicFactor" : 0.1,
        "roughnessFactor" : 0.5
      }
    }
  ],
  "meshes" : [
    {
      "primitives" : [
        {
          "attributes" : {
            "POSITION" : 1,
            "NORMAL" : 2,
            "TANGENT" : 3,
            "TEXCOORD_0" : 4
          },
          "indices" : 0,
          "material" : 0
        }
      ],
      "name" : "SM_Zylinder_2x2x1s_Flat"
    }
  ],
  "buffers" : [
    {
      "uri" : "SM_Zylinder_2x2x1s_Flat.bin",
      "byteLength" : 18108
    }
  ],
  "bufferViews" : [
    {
      "buffer" : 0,
      "byteOffset" : 0,
      "byteLength" : 1788
    },
    {
      "buffer" : 0,
      "byteOffset" : 1788,
      "byteLength" : 4080
    },
    {
      "buffer" : 0,
      "byteOffset" : 5868,
      "byteLength" : 4080
    },
    {
      "buffer" : 0,
      "byteOffset" : 9948,
      "byteLength" : 5440
    },
    {
      "buffer" : 0,
      "byteOffset" : 15388,
      "byteLength" : 2720
    }
  ],
  "accessors" : [
    {
      "bufferView" : 0,
      "componentType" : 5123,
      "count" : 894,
      "type" : "SCALAR"
    },
    {
      "bufferView" : 1,
      "min" : [ -0.3, -4.88762e-08, -0.3 ],
      "max" : [ 0.3, 0.1, 0.3 ],
      "componentType" : 5126,
      "count" : 340,
      "type" : "VEC3"
    },
    {
      "bufferView" : 2,
      "componentType" : 5126,
      "count" : 340,
      "type" : "VEC3"
    },
    {
      "bufferView" : 3,
      "componentType" : 5126,
      "count" : 340,
      "type" : "VEC4"
    },
    {
      "bufferView" : 4,
      "componentType" : 5126,
      "count" : 340,
      "type" : "VEC2"
    }
  ]
}
